{
.appVersion = "926";
DisplayStrings = (
/Acircumflextilde
);
classes = (
{
automatic = 1;
code = "A B C D E F G H I J K L M N O P Q R S T U V W X Y Z Agrave Aacute Acircumflex Atilde Adieresis Aring AE Ccedilla Egrave Eacute Ecircumflex Edieresis Igrave Iacute Icircumflex Idieresis Eth Ntilde Ograve Oacute Ocircumflex Otilde Odieresis Oslash Ugrave Uacute Ucircumflex Udieresis Yacute Thorn Lslash OE Scaron Ydieresis Zcaron Abreve Abreveacute Abrevedotbelow Abrevegrave Abrevehookabove Abrevetilde Acircumflexacute Acircumflexdotbelow Acircumflexgrave Acircumflexhookabove Acircumflextilde Adblgrave Adotbelow Ahookabove Ainvertedbreve Amacron Aogonek Aringacute AEacute Cacute Ccaron Ccircumflex Cdotaccent DZcaron Dcaron Dcroat Dzcaron Ebreve Ecaron Ecircumflexacute Ecircumflexdotbelow Ecircumflexgrave Ecircumflexhookabove Ecircumflextilde Edblgrave Edotaccent Edotbelow Ehookabove Einvertedbreve Emacron Eogonek Etilde Gbreve Gcaron Gcircumflex Gcommaaccent Gdotaccent Hbar Hcircumflex IJ Ibreve Idblgrave Idotaccent Idotbelow Ihookabove Iinvertedbreve Imacron Iogonek Itilde Jcircumflex Kcommaaccent LJ Lacute Lcaron Lcommaaccent Ldot Lj NJ Nacute Ncaron Ncommaaccent Eng Nhookleft Nj Obreve Ocircumflexacute Ocircumflexdotbelow Ocircumflexgrave Ocircumflexhookabove Ocircumflextilde Odblgrave Odieresismacron Odotaccentmacron Odotbelow Ohookabove Ohorn Ohornacute Ohorndotbelow Ohorngrave Ohornhookabove Ohorntilde Ohungarumlaut Oinvertedbreve Omacron Oogonek Oslashacute Otildemacron Racute Rcaron Rcommaaccent Rdblgrave Rinvertedbreve Sacute Scedilla Scircumflex Scommaaccent Germandbls Schwa Tbar Tcaron Tcedilla Tcommaaccent Ubreve Udblgrave Udotbelow Uhorn Uhornacute Uhorndotbelow Uhorngrave Uhornhookabove Uhorntilde Uhungarumlaut Uinvertedbreve Umacron Uogonek Uring Utilde Wacute Wcircumflex Wdieresis Wgrave Ycircumflex Ydotbelow Ygrave Yhookabove Ymacron Ytilde Zacute Zdotaccent";
name = Uppercase;
}
);
copyright = "Copyright (c) 2011 by Vernon Adams. All rights reserved.";

glyphs = (
{
glyphname = exclam;
lastChange = "2016-07-07 11:28:23 +0000";
layers = (
{
background = {
paths = (
{
closed = 1;
nodes = (
"118 239 OFFCURVE",
"177 243 OFFCURVE",
"207 243 QCURVE",
"252 375 OFFCURVE",
"343 636 OFFCURVE",
"398 765 QCURVE",
"382 762 OFFCURVE",
"334 756 OFFCURVE",
"283 748 OFFCURVE",
"232 741 OFFCURVE",
"213 738 QCURVE",
"180 612 OFFCURVE",
"120 362 OFFCURVE",
"88 237 QCURVE"
);
},
{
closed = 1;
nodes = (
"118 -24 OFFCURVE",
"167 -6 OFFCURVE",
"200 24 OFFCURVE",
"217 62 OFFCURVE",
"217 82 QCURVE",
"217 118 OFFCURVE",
"158 174 OFFCURVE",
"98 174 QCURVE",
"72 174 OFFCURVE",
"34 156 OFFCURVE",
"8 128 OFFCURVE",
"-4 92 OFFCURVE",
"-4 73 QCURVE",
"-4 55 OFFCURVE",
"8 20 OFFCURVE",
"30 -7 OFFCURVE",
"64 -24 OFFCURVE",
"86 -24 QCURVE"
);
}
);
};
layerId = "A5922FF3-8C0B-4EAE-8A2D-3EBDCCE80B0C";
paths = (
{
closed = 1;
nodes = (
"118 239 OFFCURVE",
"177 243 OFFCURVE",
"207 243 QCURVE",
"252 375 OFFCURVE",
"343 636 OFFCURVE",
"398 765 QCURVE",
"382 762 OFFCURVE",
"334 756 OFFCURVE",
"283 748 OFFCURVE",
"232 741 OFFCURVE",
"213 738 QCURVE",
"180 612 OFFCURVE",
"120 362 OFFCURVE",
"88 237 QCURVE"
);
},
{
closed = 1;
nodes = (
"118 -24 OFFCURVE",
"167 -6 OFFCURVE",
"200 24 OFFCURVE",
"217 62 OFFCURVE",
"217 82 QCURVE",
"217 118 OFFCURVE",
"158 174 OFFCURVE",
"98 174 QCURVE",
"72 174 OFFCURVE",
"34 156 OFFCURVE",
"8 128 OFFCURVE",
"-4 92 OFFCURVE",
"-4 73 QCURVE",
"-4 55 OFFCURVE",
"8 20 OFFCURVE",
"30 -7 OFFCURVE",
"64 -24 OFFCURVE",
"86 -24 QCURVE"
);
}
);
width = 269;
}
);
unicode = 0021;
},
{
glyphname = quotedbl;
lastChange = "2016-07-07 11:28:23 +0000";
layers = (
{
background = {
paths = (
{
closed = 1;
nodes = (
"448 471 LINE",
"473 530 OFFCURVE",
"498 589 QCURVE",
"519 640 OFFCURVE",
"565 756 OFFCURVE",
"584 807 QCURVE",
"558 804 OFFCURVE",
"517 799 OFFCURVE",
"478 795 OFFCURVE",
"436 792 OFFCURVE",
"410 791 QCURVE",
"396 744 OFFCURVE",
"356 631 OFFCURVE",
"337 580 QCURVE",
"315 521 OFFCURVE",
"292 461 QCURVE"
);
},
{
closed = 1;
nodes = (
"218 470 LINE",
"240 533 OFFCURVE",
"263 594 QCURVE",
"282 646 OFFCURVE",
"327 760 OFFCURVE",
"345 802 QCURVE",
"305 802 OFFCURVE",
"238 798 OFFCURVE",
"200 798 QCURVE",
"192 798 OFFCURVE",
"175 798 OFFCURVE",
"166 799 QCURVE",
"161 778 OFFCURVE",
"148 726 OFFCURVE",
"133 669 OFFCURVE",
"117 610 OFFCURVE",
"110 583 QCURVE",
"92 519 OFFCURVE",
"74 451 QCURVE"
);
}
);
};
layerId = "A5922FF3-8C0B-4EAE-8A2D-3EBDCCE80B0C";
paths = (
{
closed = 1;
nodes = (
"448 471 LINE",
"473 530 OFFCURVE",
"498 589 QCURVE",
"519 640 OFFCURVE",
"565 756 OFFCURVE",
"584 807 QCURVE",
"558 804 OFFCURVE",
"517 799 OFFCURVE",
"478 795 OFFCURVE",
"436 792 OFFCURVE",
"410 791 QCURVE",
"396 744 OFFCURVE",
"356 631 OFFCURVE",
"337 580 QCURVE",
"315 521 OFFCURVE",
"292 461 QCURVE"
);
},
{
closed = 1;
nodes = (
"218 470 LINE",
"240 533 OFFCURVE",
"263 594 QCURVE",
"282 646 OFFCURVE",
"327 760 OFFCURVE",
"345 802 QCURVE",
"305 802 OFFCURVE",
"238 798 OFFCURVE",
"200 798 QCURVE",
"192 798 OFFCURVE",
"175 798 OFFCURVE",
"166 799 QCURVE",
"161 778 OFFCURVE",
"148 726 OFFCURVE",
"133 669 OFFCURVE",
"117 610 OFFCURVE",
"110 583 QCURVE",
"92 519 OFFCURVE",
"74 451 QCURVE"
);
}
);
width = 431;
}
);
unicode = 0022;
},
{
glyphname = numbersign;
lastChange = "2016-07-07 11:28:23 +0000";
layers = (
{
background = {
paths = (
{
closed = 1;
nodes = (
"102 2 OFFCURVE",
"185 9 OFFCURVE",
"227 11 QCURVE",
"236 46 OFFCURVE",
"250 117 OFFCURVE",
"256 153 QCURVE",
"262 153 OFFCURVE",
"294 155 OFFCURVE",
"330 158 OFFCURVE",
"362 160 OFFCURVE",
"368 160 QCURVE",
"360 125 OFFCURVE",
"342 58 OFFCURVE",
"333 24 QCURVE",
"414 24 OFFCURVE",
"498 21 QCURVE",
"505 56 OFFCURVE",
"515 126 OFFCURVE",
"522 161 QCURVE",
"526 161 OFFCURVE",
"548 162 OFFCURVE",
"574 162 OFFCURVE",
"601 163 OFFCURVE",
"612 163 QCURVE",
"620 163 OFFCURVE",
"631 162 OFFCURVE",
"634 162 QCURVE",
"637 187 OFFCURVE",
"644 227 OFFCURVE",
"650 264 OFFCURVE",
"656 304 OFFCURVE",
"660 329 QCURVE",
"548 322 LINE",
"550 331 OFFCURVE",
"555 356 OFFCURVE",
"559 382 OFFCURVE",
"564 406 OFFCURVE",
"566 415 QCURVE",
"673 421 LINE",
"677 447 OFFCURVE",
"688 504 OFFCURVE",
"693 527 QCURVE",
"699 554 OFFCURVE",
"706 581 QCURVE",
"603 577 LINE",
"612 615 OFFCURVE",
"621 650 QCURVE",
"629 679 OFFCURVE",
"645 741 OFFCURVE",
"651 759 QCURVE",
"611 754 OFFCURVE",
"533 745 OFFCURVE",
"494 743 QCURVE",
"489 726 OFFCURVE",
"474 666 OFFCURVE",
"467 637 QCURVE",
"459 603 OFFCURVE",
"451 566 QCURVE",
"339 560 LINE",
"347 599 OFFCURVE",
"354 634 QCURVE",
"360 664 OFFCURVE",
"373 724 OFFCURVE",
"378 741 QCURVE",
"357 740 OFFCURVE",
"309 736 OFFCURVE",
"264 732 OFFCURVE",
"226 729 OFFCURVE",
"214 728 QCURVE",
"210 709 OFFCURVE",
"200 651 OFFCURVE",
"195 623 QCURVE",
"189 590 OFFCURVE",
"182 556 QCURVE",
"101 551 LINE",
"98 519 OFFCURVE",
"95 491 QCURVE",
"93 467 OFFCURVE",
"88 419 OFFCURVE",
"87 408 QCURVE",
"157 408 LINE",
"156 400 OFFCURVE",
"152 374 OFFCURVE",
"147 347 OFFCURVE",
"143 322 OFFCURVE",
"141 314 QCURVE",
"137 314 OFFCURVE",
"115 313 OFFCURVE",
"89 311 OFFCURVE",
"67 310 OFFCURVE",
"63 310 QCURVE",
"45 141 LINE",
"56 141 OFFCURVE",
"93 143 OFFCURVE",
"104 143 QCURVE",
"94 106 OFFCURVE",
"72 32 OFFCURVE",
"60 -5 QCURVE"
);
},
{
closed = 1;
nodes = (
"312 408 LINE",
"316 408 OFFCURVE",
"348 410 OFFCURVE",
"384 412 OFFCURVE",
"416 414 OFFCURVE",
"420 414 QCURVE",
"418 408 OFFCURVE",
"412 377 OFFCURVE",
"405 345 OFFCURVE",
"398 320 OFFCURVE",
"395 320 QCURVE",
"388 320 OFFCURVE",
"357 318 OFFCURVE",
"324 316 OFFCURVE",
"295 314 OFFCURVE",
"291 314 QCURVE"
);
}
);
};
layerId = "A5922FF3-8C0B-4EAE-8A2D-3EBDCCE80B0C";
paths = (
{
closed = 1;
nodes = (
"102 2 OFFCURVE",
"185 9 OFFCURVE",
"227 11 QCURVE",
"236 46 OFFCURVE",
"250 117 OFFCURVE",
"256 153 QCURVE",
"262 153 OFFCURVE",
"294 155 OFFCURVE",
"330 158 OFFCURVE",
"362 160 OFFCURVE",
"368 160 QCURVE",
"360 125 OFFCURVE",
"342 58 OFFCURVE",
"333 24 QCURVE",
"414 24 OFFCURVE",
"498 21 QCURVE",
"505 56 OFFCURVE",
"515 126 OFFCURVE",
"522 161 QCURVE",
"526 161 OFFCURVE",
"548 162 OFFCURVE",
"574 162 OFFCURVE",
"601 163 OFFCURVE",
"612 163 QCURVE",
"620 163 OFFCURVE",
"631 162 OFFCURVE",
"634 162 QCURVE",
"637 187 OFFCURVE",
"644 227 OFFCURVE",
"650 264 OFFCURVE",
"656 304 OFFCURVE",
"660 329 QCURVE",
"548 322 LINE",
"550 331 OFFCURVE",
"555 356 OFFCURVE",
"559 382 OFFCURVE",
"564 406 OFFCURVE",
"566 415 QCURVE",
"673 421 LINE",
"677 447 OFFCURVE",
"688 504 OFFCURVE",
"693 527 QCURVE",
"699 554 OFFCURVE",
"706 581 QCURVE",
"603 577 LINE",
"612 615 OFFCURVE",
"621 650 QCURVE",
"629 679 OFFCURVE",
"645 741 OFFCURVE",
"651 759 QCURVE",
"611 754 OFFCURVE",
"533 745 OFFCURVE",
"494 743 QCURVE",
"489 726 OFFCURVE",
"474 666 OFFCURVE",
"467 637 QCURVE",
"459 603 OFFCURVE",
"451 566 QCURVE",
"339 560 LINE",
"347 599 OFFCURVE",
"354 634 QCURVE",
"360 664 OFFCURVE",
"373 724 OFFCURVE",
"378 741 QCURVE",
"357 740 OFFCURVE",
"309 736 OFFCURVE",
"264 732 OFFCURVE",
"226 729 OFFCURVE",
"214 728 QCURVE",
"210 709 OFFCURVE",
"200 651 OFFCURVE",
"195 623 QCURVE",
"189 590 OFFCURVE",
"182 556 QCURVE",
"101 551 LINE",
"98 519 OFFCURVE",
"95 491 QCURVE",
"93 467 OFFCURVE",
"88 419 OFFCURVE",
"87 408 QCURVE",
"157 408 LINE",
"156 400 OFFCURVE",
"152 374 OFFCURVE",
"147 347 OFFCURVE",
"143 322 OFFCURVE",
"141 314 QCURVE",
"137 314 OFFCURVE",
"115 313 OFFCURVE",
"89 311 OFFCURVE",
"67 310 OFFCURVE",
"63 310 QCURVE",
"45 141 LINE",
"56 141 OFFCURVE",
"93 143 OFFCURVE",
"104 143 QCURVE",
"94 106 OFFCURVE",
"72 32 OFFCURVE",
"60 -5 QCURVE"
);
},
{
closed = 1;
nodes = (
"312 408 LINE",
"316 408 OFFCURVE",
"348 410 OFFCURVE",
"384 412 OFFCURVE",
"416 414 OFFCURVE",
"420 414 QCURVE",
"418 408 OFFCURVE",
"412 377 OFFCURVE",
"405 345 OFFCURVE",
"398 320 OFFCURVE",
"395 320 QCURVE",
"388 320 OFFCURVE",
"357 318 OFFCURVE",
"324 316 OFFCURVE",
"295 314 OFFCURVE",
"291 314 QCURVE"
);
}
);
width = 641;
}
);
unicode = 0023;
},
{
glyphname = dollar;
lastChange = "2016-07-07 11:28:23 +0000";
layers = (
{
background = {
paths = (
{
closed = 1;
nodes = (
"273 -62 LINE",
"273 -51 OFFCURVE",
"279 6 OFFCURVE",
"283 35 QCURVE",
"320 47 OFFCURVE",
"384 90 OFFCURVE",
"432 149 OFFCURVE",
"459 222 OFFCURVE",
"459 264 QCURVE",
"459 308 OFFCURVE",
"431 374 OFFCURVE",
"390 423 OFFCURVE",
"342 460 OFFCURVE",
"301 491 OFFCURVE",
"273 520 OFFCURVE",
"273 537 QCURVE",
"273 549 OFFCURVE",
"285 571 OFFCURVE",
"304 586 OFFCURVE",
"326 595 OFFCURVE",
"336 595 QCURVE",
"352 595 OFFCURVE",
"376 568 OFFCURVE",
"376 537 QCURVE",
"376 534 OFFCURVE",
"374 526 OFFCURVE",
"372 514 QCURVE",
"519 547 LINE",
"521 562 OFFCURVE",
"525 589 OFFCURVE",
"525 603 QCURVE",
"525 636 OFFCURVE",
"505 683 OFFCURVE",
"469 713 OFFCURVE",
"421 728 OFFCURVE",
"393 729 QCURVE",
"434 832 LINE",
"294 816 LINE",
"286 790 OFFCURVE",
"272 740 OFFCURVE",
"264 702 QCURVE",
"231 688 OFFCURVE",
"169 649 OFFCURVE",
"121 600 OFFCURVE",
"93 542 OFFCURVE",
"93 511 QCURVE",
"93 482 OFFCURVE",
"119 431 OFFCURVE",
"157 385 OFFCURVE",
"203 343 OFFCURVE",
"241 305 OFFCURVE",
"267 268 OFFCURVE",
"267 250 QCURVE",
"267 208 OFFCURVE",
"224 174 OFFCURVE",
"198 174 QCURVE",
"184 174 OFFCURVE",
"154 190 OFFCURVE",
"126 216 OFFCURVE",
"102 246 OFFCURVE",
"95 260 QCURVE",
"21 111 LINE",
"56 67 OFFCURVE",
"131 24 OFFCURVE",
"168 20 QCURVE",
"163 6 OFFCURVE",
"155 -27 OFFCURVE",
"152 -41 QCURVE",
"148 -58 OFFCURVE",
"145 -74 QCURVE"
);
}
);
};
layerId = "A5922FF3-8C0B-4EAE-8A2D-3EBDCCE80B0C";
paths = (
{
closed = 1;
nodes = (
"273 -62 LINE",
"273 -51 OFFCURVE",
"279 6 OFFCURVE",
"283 35 QCURVE",
"320 47 OFFCURVE",
"384 90 OFFCURVE",
"432 149 OFFCURVE",
"459 222 OFFCURVE",
"459 264 QCURVE",
"459 308 OFFCURVE",
"431 374 OFFCURVE",
"390 423 OFFCURVE",
"342 460 OFFCURVE",
"301 491 OFFCURVE",
"273 520 OFFCURVE",
"273 537 QCURVE",
"273 549 OFFCURVE",
"285 571 OFFCURVE",
"304 586 OFFCURVE",
"326 595 OFFCURVE",
"336 595 QCURVE",
"352 595 OFFCURVE",
"376 568 OFFCURVE",
"376 537 QCURVE",
"376 534 OFFCURVE",
"374 526 OFFCURVE",
"372 514 QCURVE",
"519 547 LINE",
"521 562 OFFCURVE",
"525 589 OFFCURVE",
"525 603 QCURVE",
"525 636 OFFCURVE",
"505 683 OFFCURVE",
"469 713 OFFCURVE",
"421 728 OFFCURVE",
"393 729 QCURVE",
"434 832 LINE",
"294 816 LINE",
"286 790 OFFCURVE",
"272 740 OFFCURVE",
"264 702 QCURVE",
"231 688 OFFCURVE",
"169 649 OFFCURVE",
"121 600 OFFCURVE",
"93 542 OFFCURVE",
"93 511 QCURVE",
"93 482 OFFCURVE",
"119 431 OFFCURVE",
"157 385 OFFCURVE",
"203 343 OFFCURVE",
"241 305 OFFCURVE",
"267 268 OFFCURVE",
"267 250 QCURVE",
"267 208 OFFCURVE",
"224 174 OFFCURVE",
"198 174 QCURVE",
"184 174 OFFCURVE",
"154 190 OFFCURVE",
"126 216 OFFCURVE",
"102 246 OFFCURVE",
"95 260 QCURVE",
"21 111 LINE",
"56 67 OFFCURVE",
"131 24 OFFCURVE",
"168 20 QCURVE",
"163 6 OFFCURVE",
"155 -27 OFFCURVE",
"152 -41 QCURVE",
"148 -58 OFFCURVE",
"145 -74 QCURVE"
);
}
);
width = 453;
}
);
unicode = 0024;
},
{
glyphname = percent;
lastChange = "2016-07-07 11:28:23 +0000";
layers = (
{
background = {
paths = (
{
closed = 1;
nodes = (
"315 19 OFFCURVE",
"353 76 QCURVE",
"385 125 OFFCURVE",
"470 252 OFFCURVE",
"518 323 QCURVE",
"499 284 OFFCURVE",
"479 203 OFFCURVE",
"479 165 QCURVE",
"479 135 OFFCURVE",
"494 82 OFFCURVE",
"526 43 OFFCURVE",
"576 20 OFFCURVE",
"611 20 QCURVE",
"665 20 OFFCURVE",
"750 79 OFFCURVE",
"809 170 OFFCURVE",
"840 281 OFFCURVE",
"840 332 QCURVE",
"840 365 OFFCURVE",
"827 424 OFFCURVE",
"799 467 OFFCURVE",
"756 493 OFFCURVE",
"727 493 QCURVE",
"686 493 OFFCURVE",
"613 452 OFFCURVE",
"582 419 QCURVE",
"642 509 OFFCURVE",
"755 677 OFFCURVE",
"799 741 QCURVE",
"782 743 OFFCURVE",
"725 754 OFFCURVE",
"698 760 QCURVE",
"665 766 OFFCURVE",
"631 774 QCURVE",
"624 762 OFFCURVE",
"578 689 OFFCURVE",
"509 585 OFFCURVE",
"424 459 OFFCURVE",
"335 328 OFFCURVE",
"249 201 OFFCURVE",
"176 96 OFFCURVE",
"123 22 OFFCURVE",
"112 10 QCURVE",
"282 -30 LINE"
);
},
{
closed = 1;
nodes = (
"224 436 OFFCURVE",
"207 464 OFFCURVE",
"207 484 QCURVE",
"207 504 OFFCURVE",
"222 551 OFFCURVE",
"246 591 OFFCURVE",
"279 618 OFFCURVE",
"297 618 QCURVE",
"322 618 OFFCURVE",
"345 584 OFFCURVE",
"345 559 QCURVE",
"345 539 OFFCURVE",
"331 496 OFFCURVE",
"304 460 OFFCURVE",
"267 436 OFFCURVE",
"244 436 QCURVE"
);
},
{
closed = 1;
nodes = (
"270 311 OFFCURVE",
"355 370 OFFCURVE",
"413 461 OFFCURVE",
"444 572 OFFCURVE",
"444 623 QCURVE",
"444 656 OFFCURVE",
"431 715 OFFCURVE",
"403 758 OFFCURVE",
"361 784 OFFCURVE",
"332 784 QCURVE",
"281 784 OFFCURVE",
"191 721 OFFCURVE",
"123 624 OFFCURVE",
"84 508 OFFCURVE",
"84 456 QCURVE",
"84 426 OFFCURVE",
"99 373 OFFCURVE",
"131 334 OFFCURVE",
"181 311 OFFCURVE",
"216 311 QCURVE"
);
},
{
closed = 1;
nodes = (
"619 145 OFFCURVE",
"602 173 OFFCURVE",
"602 193 QCURVE",
"602 213 OFFCURVE",
"617 260 OFFCURVE",
"641 300 OFFCURVE",
"674 327 OFFCURVE",
"692 327 QCURVE",
"717 327 OFFCURVE",
"740 293 OFFCURVE",
"740 268 QCURVE",
"740 248 OFFCURVE",
"726 205 OFFCURVE",
"699 169 OFFCURVE",
"662 145 OFFCURVE",
"639 145 QCURVE"
);
}
);
};
layerId = "A5922FF3-8C0B-4EAE-8A2D-3EBDCCE80B0C";
paths = (
{
closed = 1;
nodes = (
"315 19 OFFCURVE",
"353 76 QCURVE",
"385 125 OFFCURVE",
"470 252 OFFCURVE",
"518 323 QCURVE",
"499 284 OFFCURVE",
"479 203 OFFCURVE",
"479 165 QCURVE",
"479 135 OFFCURVE",
"494 82 OFFCURVE",
"526 43 OFFCURVE",
"576 20 OFFCURVE",
"611 20 QCURVE",
"665 20 OFFCURVE",
"750 79 OFFCURVE",
"809 170 OFFCURVE",
"840 281 OFFCURVE",
"840 332 QCURVE",
"840 365 OFFCURVE",
"827 424 OFFCURVE",
"799 467 OFFCURVE",
"756 493 OFFCURVE",
"727 493 QCURVE",
"686 493 OFFCURVE",
"613 452 OFFCURVE",
"582 419 QCURVE",
"642 509 OFFCURVE",
"755 677 OFFCURVE",
"799 741 QCURVE",
"782 743 OFFCURVE",
"725 754 OFFCURVE",
"698 760 QCURVE",
"665 766 OFFCURVE",
"631 774 QCURVE",
"624 762 OFFCURVE",
"578 689 OFFCURVE",
"509 585 OFFCURVE",
"424 459 OFFCURVE",
"335 328 OFFCURVE",
"249 201 OFFCURVE",
"176 96 OFFCURVE",
"123 22 OFFCURVE",
"112 10 QCURVE",
"282 -30 LINE"
);
},
{
closed = 1;
nodes = (
"224 436 OFFCURVE",
"207 464 OFFCURVE",
"207 484 QCURVE",
"207 504 OFFCURVE",
"222 551 OFFCURVE",
"246 591 OFFCURVE",
"279 618 OFFCURVE",
"297 618 QCURVE",
"322 618 OFFCURVE",
"345 584 OFFCURVE",
"345 559 QCURVE",
"345 539 OFFCURVE",
"331 496 OFFCURVE",
"304 460 OFFCURVE",
"267 436 OFFCURVE",
"244 436 QCURVE"
);
},
{
closed = 1;
nodes = (
"270 311 OFFCURVE",
"355 370 OFFCURVE",
"413 461 OFFCURVE",
"444 572 OFFCURVE",
"444 623 QCURVE",
"444 656 OFFCURVE",
"431 715 OFFCURVE",
"403 758 OFFCURVE",
"361 784 OFFCURVE",
"332 784 QCURVE",
"281 784 OFFCURVE",
"191 721 OFFCURVE",
"123 624 OFFCURVE",
"84 508 OFFCURVE",
"84 456 QCURVE",
"84 426 OFFCURVE",
"99 373 OFFCURVE",
"131 334 OFFCURVE",
"181 311 OFFCURVE",
"216 311 QCURVE"
);
},
{
closed = 1;
nodes = (
"619 145 OFFCURVE",
"602 173 OFFCURVE",
"602 193 QCURVE",
"602 213 OFFCURVE",
"617 260 OFFCURVE",
"641 300 OFFCURVE",
"674 327 OFFCURVE",
"692 327 QCURVE",
"717 327 OFFCURVE",
"740 293 OFFCURVE",
"740 268 QCURVE",
"740 248 OFFCURVE",
"726 205 OFFCURVE",
"699 169 OFFCURVE",
"662 145 OFFCURVE",
"639 145 QCURVE"
);
}
);
width = 818;
}
);
unicode = 0025;
},
{
glyphname = ampersand;
lastChange = "2016-07-07 11:28:23 +0000";
layers = (
{
background = {
paths = (
{
closed = 1;
nodes = (
"310 -13 OFFCURVE",
"429 41 OFFCURVE",
"504 136 OFFCURVE",
"538 267 OFFCURVE",
"538 344 QCURVE",
"542 344 OFFCURVE",
"569 347 OFFCURVE",
"583 349 QCURVE",
"600 352 OFFCURVE",
"619 355 QCURVE",
"607 460 LINE",
"590 456 OFFCURVE",
"576 453 QCURVE",
"563 450 OFFCURVE",
"539 446 OFFCURVE",
"534 446 QCURVE",
"534 455 LINE",
"534 472 LINE",
"534 482 OFFCURVE",
"536 487 QCURVE",
"496 485 OFFCURVE",
"427 481 OFFCURVE",
"386 481 QCURVE",
"385 475 OFFCURVE",
"384 461 OFFCURVE",
"383 455 QCURVE",
"382 448 OFFCURVE",
"382 441 QCURVE",
"376 439 OFFCURVE",
"364 439 OFFCURVE",
"359 439 QCURVE",
"338 439 OFFCURVE",
"305 455 OFFCURVE",
"284 482 OFFCURVE",
"273 515 OFFCURVE",
"273 533 QCURVE",
"273 550 OFFCURVE",
"283 582 OFFCURVE",
"303 608 OFFCURVE",
"334 623 OFFCURVE",
"354 623 QCURVE",
"379 623 OFFCURVE",
"412 616 OFFCURVE",
"434 605 OFFCURVE",
"450 590 OFFCURVE",
"458 583 QCURVE",
"542 677 LINE",
"519 716 OFFCURVE",
"438 760 OFFCURVE",
"390 760 QCURVE",
"336 760 OFFCURVE",
"237 726 OFFCURVE",
"161 665 OFFCURVE",
"116 578 OFFCURVE",
"116 526 QCURVE",
"116 499 OFFCURVE",
"141 456 OFFCURVE",
"157 442 QCURVE",
"175 425 OFFCURVE",
"199 413 QCURVE",
"158 401 OFFCURVE",
"92 350 OFFCURVE",
"46 282 OFFCURVE",
"20 203 OFFCURVE",
"20 165 QCURVE",
"20 130 OFFCURVE",
"43 65 OFFCURVE",
"92 16 OFFCURVE",
"170 -13 OFFCURVE",
"224 -13 QCURVE"
);
},
{
closed = 1;
nodes = (
"223 116 OFFCURVE",
"183 157 OFFCURVE",
"183 189 QCURVE",
"183 216 OFFCURVE",
"204 266 OFFCURVE",
"250 308 OFFCURVE",
"323 336 OFFCURVE",
"375 340 QCURVE",
"373 311 OFFCURVE",
"363 234 OFFCURVE",
"338 165 OFFCURVE",
"294 116 OFFCURVE",
"258 116 QCURVE"
);
}
);
};
layerId = "A5922FF3-8C0B-4EAE-8A2D-3EBDCCE80B0C";
paths = (
{
closed = 1;
nodes = (
"310 -13 OFFCURVE",
"429 41 OFFCURVE",
"504 136 OFFCURVE",
"538 267 OFFCURVE",
"538 344 QCURVE",
"542 344 OFFCURVE",
"569 347 OFFCURVE",
"600 352 OFFCURVE",
"619 355 QCURVE",
"607 460 LINE",
"590 456 OFFCURVE",
"563 450 OFFCURVE",
"539 446 OFFCURVE",
"534 446 QCURVE",
"534 455 LINE",
"534 472 LINE",
"534 482 OFFCURVE",
"536 487 QCURVE",
"496 485 OFFCURVE",
"427 481 OFFCURVE",
"386 481 QCURVE",
"385 475 OFFCURVE",
"384 461 OFFCURVE",
"383 455 QCURVE",
"382 448 OFFCURVE",
"382 441 QCURVE",
"376 439 OFFCURVE",
"364 439 OFFCURVE",
"359 439 QCURVE",
"338 439 OFFCURVE",
"305 455 OFFCURVE",
"284 482 OFFCURVE",
"273 515 OFFCURVE",
"273 533 QCURVE",
"273 550 OFFCURVE",
"283 582 OFFCURVE",
"303 608 OFFCURVE",
"334 623 OFFCURVE",
"354 623 QCURVE",
"379 623 OFFCURVE",
"412 616 OFFCURVE",
"434 605 OFFCURVE",
"450 590 OFFCURVE",
"458 583 QCURVE",
"542 677 LINE",
"519 716 OFFCURVE",
"438 760 OFFCURVE",
"390 760 QCURVE",
"336 760 OFFCURVE",
"237 726 OFFCURVE",
"161 665 OFFCURVE",
"116 578 OFFCURVE",
"116 526 QCURVE",
"116 499 OFFCURVE",
"141 456 OFFCURVE",
"175 425 OFFCURVE",
"199 413 QCURVE",
"158 401 OFFCURVE",
"92 350 OFFCURVE",
"46 282 OFFCURVE",
"20 203 OFFCURVE",
"20 165 QCURVE",
"20 130 OFFCURVE",
"43 65 OFFCURVE",
"92 16 OFFCURVE",
"170 -13 OFFCURVE",
"224 -13 QCURVE"
);
},
{
closed = 1;
nodes = (
"223 116 OFFCURVE",
"183 157 OFFCURVE",
"183 189 QCURVE",
"183 216 OFFCURVE",
"204 266 OFFCURVE",
"250 308 OFFCURVE",
"323 336 OFFCURVE",
"375 340 QCURVE",
"373 311 OFFCURVE",
"363 234 OFFCURVE",
"338 165 OFFCURVE",
"294 116 OFFCURVE",
"258 116 QCURVE"
);
}
);
width = 548;
}
);
unicode = 0026;
},
{
glyphname = quotesingle;
lastChange = "2016-07-07 11:28:23 +0000";
layers = (
{
background = {
paths = (
{
closed = 1;
nodes = (
"248 489 LINE",
"348 808 LINE",
"327 804 OFFCURVE",
"307 801 QCURVE",
"290 798 OFFCURVE",
"252 794 OFFCURVE",
"238 794 QCURVE",
"232 794 OFFCURVE",
"210 794 OFFCURVE",
"187 795 OFFCURVE",
"165 796 OFFCURVE",
"159 797 QCURVE",
"147 745 OFFCURVE",
"120 631 OFFCURVE",
"108 583 QCURVE",
"94 527 OFFCURVE",
"80 472 QCURVE"
);
}
);
};
layerId = "A5922FF3-8C0B-4EAE-8A2D-3EBDCCE80B0C";
paths = (
{
closed = 1;
nodes = (
"248 489 LINE",
"348 808 LINE",
"327 804 OFFCURVE",
"290 798 OFFCURVE",
"252 794 OFFCURVE",
"238 794 QCURVE",
"232 794 OFFCURVE",
"210 794 OFFCURVE",
"187 795 OFFCURVE",
"165 796 OFFCURVE",
"159 797 QCURVE",
"147 745 OFFCURVE",
"120 631 OFFCURVE",
"108 583 QCURVE",
"94 527 OFFCURVE",
"80 472 QCURVE"
);
}
);
width = 207;
}
);
unicode = 0027;
},
{
glyphname = parenleft;
lastChange = "2016-07-07 11:28:23 +0000";
layers = (
{
background = {
paths = (
{
closed = 1;
nodes = (
"365 -18 LINE",
"340 -5 OFFCURVE",
"286 51 OFFCURVE",
"241 127 OFFCURVE",
"212 218 OFFCURVE",
"212 265 QCURVE",
"212 354 OFFCURVE",
"266 509 OFFCURVE",
"348 637 OFFCURVE",
"447 739 OFFCURVE",
"491 776 QCURVE",
"361 898 LINE",
"283 834 OFFCURVE",
"164 684 OFFCURVE",
"84 520 OFFCURVE",
"44 345 OFFCURVE",
"44 257 QCURVE",
"44 180 OFFCURVE",
"74 51 OFFCURVE",
"125 -50 OFFCURVE",
"193 -121 OFFCURVE",
"231 -140 QCURVE"
);
}
);
};
layerId = "A5922FF3-8C0B-4EAE-8A2D-3EBDCCE80B0C";
paths = (
{
closed = 1;
nodes = (
"365 -18 LINE",
"340 -5 OFFCURVE",
"286 51 OFFCURVE",
"241 127 OFFCURVE",
"212 218 OFFCURVE",
"212 265 QCURVE",
"212 354 OFFCURVE",
"266 509 OFFCURVE",
"348 637 OFFCURVE",
"447 739 OFFCURVE",
"491 776 QCURVE",
"361 898 LINE",
"283 834 OFFCURVE",
"164 684 OFFCURVE",
"84 520 OFFCURVE",
"44 345 OFFCURVE",
"44 257 QCURVE",
"44 180 OFFCURVE",
"74 51 OFFCURVE",
"125 -50 OFFCURVE",
"193 -121 OFFCURVE",
"231 -140 QCURVE"
);
}
);
width = 342;
}
);
unicode = 0028;
},
{
glyphname = parenright;
lastChange = "2016-07-07 11:28:23 +0000";
layers = (
{
background = {
paths = (
{
closed = 1;
nodes = (
"94 -115 OFFCURVE",
"223 4 OFFCURVE",
"331 175 OFFCURVE",
"401 389 OFFCURVE",
"401 510 QCURVE",
"401 619 OFFCURVE",
"331 817 OFFCURVE",
"259 898 QCURVE",
"98 778 LINE",
"127 757 OFFCURVE",
"169 696 OFFCURVE",
"197 622 OFFCURVE",
"211 537 OFFCURVE",
"211 492 QCURVE",
"211 420 OFFCURVE",
"176 271 OFFCURVE",
"109 138 OFFCURVE",
"8 31 OFFCURVE",
"-58 2 QCURVE",
"35 -140 LINE"
);
}
);
};
layerId = "A5922FF3-8C0B-4EAE-8A2D-3EBDCCE80B0C";
paths = (
{
closed = 1;
nodes = (
"94 -115 OFFCURVE",
"223 4 OFFCURVE",
"331 175 OFFCURVE",
"401 389 OFFCURVE",
"401 510 QCURVE",
"401 619 OFFCURVE",
"331 817 OFFCURVE",
"259 898 QCURVE",
"98 778 LINE",
"127 757 OFFCURVE",
"169 696 OFFCURVE",
"197 622 OFFCURVE",
"211 537 OFFCURVE",
"211 492 QCURVE",
"211 420 OFFCURVE",
"176 271 OFFCURVE",
"109 138 OFFCURVE",
"8 31 OFFCURVE",
"-58 2 QCURVE",
"35 -140 LINE"
);
}
);
width = 339;
}
);
unicode = 0029;
},
{
glyphname = asterisk;
lastChange = "2016-07-07 11:28:23 +0000";
layers = (
{
background = {
paths = (
{
closed = 1;
nodes = (
"425 276 LINE",
"350 396 LINE",
"472 379 LINE",
"480 513 LINE",
"378 501 LINE",
"477 611 LINE",
"382 684 LINE",
"299 536 LINE",
"245 685 LINE",
"135 619 LINE",
"202 497 LINE",
"92 508 LINE",
"78 386 LINE",
"175 392 LINE",
"78 280 LINE",
"192 229 LINE",
"265 357 LINE",
"296 226 LINE"
);
}
);
};
layerId = "A5922FF3-8C0B-4EAE-8A2D-3EBDCCE80B0C";
paths = (
{
closed = 1;
nodes = (
"425 276 LINE",
"350 396 LINE",
"472 379 LINE",
"480 513 LINE",
"378 501 LINE",
"477 611 LINE",
"382 684 LINE",
"299 536 LINE",
"245 685 LINE",
"135 619 LINE",
"202 497 LINE",
"92 508 LINE",
"78 386 LINE",
"175 392 LINE",
"78 280 LINE",
"192 229 LINE",
"265 357 LINE",
"296 226 LINE"
);
}
);
width = 433;
}
);
unicode = 002A;
},
{
glyphname = plus;
lastChange = "2016-07-07 11:28:23 +0000";
layers = (
{
background = {
paths = (
{
closed = 1;
nodes = (
"228 122 LINE",
"232 141 OFFCURVE",
"238 182 OFFCURVE",
"240 200 QCURVE",
"243 220 OFFCURVE",
"244 241 QCURVE",
"259 240 OFFCURVE",
"274 240 QCURVE",
"287 240 OFFCURVE",
"314 239 OFFCURVE",
"325 239 QCURVE",
"329 262 OFFCURVE",
"336 303 OFFCURVE",
"344 343 OFFCURVE",
"353 384 OFFCURVE",
"358 407 QCURVE",
"347 405 OFFCURVE",
"320 403 OFFCURVE",
"307 401 QCURVE",
"292 399 OFFCURVE",
"277 398 QCURVE",
"282 419 OFFCURVE",
"287 442 QCURVE",
"292 461 OFFCURVE",
"302 506 OFFCURVE",
"307 526 QCURVE",
"276 521 OFFCURVE",
"215 517 OFFCURVE",
"183 515 QCURVE",
"179 496 OFFCURVE",
"172 455 OFFCURVE",
"169 438 QCURVE",
"165 418 OFFCURVE",
"162 397 QCURVE",
"147 395 OFFCURVE",
"132 394 QCURVE",
"119 393 OFFCURVE",
"90 392 OFFCURVE",
"79 392 QCURVE",
"68 392 LINE",
"64 369 OFFCURVE",
"58 316 OFFCURVE",
"56 293 QCURVE",
"53 267 OFFCURVE",
"51 240 QCURVE",
"133 240 LINE",
"129 219 OFFCURVE",
"125 197 QCURVE",
"121 178 OFFCURVE",
"111 134 OFFCURVE",
"106 115 QCURVE"
);
}
);
};
layerId = "A5922FF3-8C0B-4EAE-8A2D-3EBDCCE80B0C";
paths = (
{
closed = 1;
nodes = (
"228 122 LINE",
"232 141 OFFCURVE",
"238 182 OFFCURVE",
"240 200 QCURVE",
"243 220 OFFCURVE",
"244 241 QCURVE",
"259 240 OFFCURVE",
"274 240 QCURVE",
"287 240 OFFCURVE",
"314 239 OFFCURVE",
"325 239 QCURVE",
"329 262 OFFCURVE",
"336 303 OFFCURVE",
"344 343 OFFCURVE",
"353 384 OFFCURVE",
"358 407 QCURVE",
"347 405 OFFCURVE",
"320 403 OFFCURVE",
"307 401 QCURVE",
"292 399 OFFCURVE",
"277 398 QCURVE",
"282 419 OFFCURVE",
"287 442 QCURVE",
"292 461 OFFCURVE",
"302 506 OFFCURVE",
"307 526 QCURVE",
"276 521 OFFCURVE",
"215 517 OFFCURVE",
"183 515 QCURVE",
"179 496 OFFCURVE",
"172 455 OFFCURVE",
"169 438 QCURVE",
"165 418 OFFCURVE",
"162 397 QCURVE",
"147 395 OFFCURVE",
"119 393 OFFCURVE",
"90 392 OFFCURVE",
"79 392 QCURVE",
"68 392 LINE",
"64 369 OFFCURVE",
"58 316 OFFCURVE",
"53 267 OFFCURVE",
"51 240 QCURVE",
"133 240 LINE",
"129 219 OFFCURVE",
"121 178 OFFCURVE",
"111 134 OFFCURVE",
"106 115 QCURVE"
);
}
);
width = 318;
}
);
unicode = 002B;
},
{
glyphname = comma;
lastChange = "2016-07-07 11:28:23 +0000";
layers = (
{
background = {
paths = (
{
closed = 1;
nodes = (
"126 -114 LINE",
"143 -57 OFFCURVE",
"160 -2 QCURVE",
"174 45 OFFCURVE",
"202 148 OFFCURVE",
"210 186 QCURVE",
"184 185 OFFCURVE",
"159 184 QCURVE",
"138 183 OFFCURVE",
"92 183 OFFCURVE",
"78 183 QCURVE",
"69 183 OFFCURVE",
"33 184 OFFCURVE",
"25 184 QCURVE",
"22 159 OFFCURVE",
"8 91 OFFCURVE",
"-8 12 OFFCURVE",
"-27 -73 OFFCURVE",
"-35 -114 QCURVE"
);
}
);
};
layerId = "A5922FF3-8C0B-4EAE-8A2D-3EBDCCE80B0C";
paths = (
{
closed = 1;
nodes = (
"126 -114 LINE",
"143 -57 OFFCURVE",
"174 45 OFFCURVE",
"202 148 OFFCURVE",
"210 186 QCURVE",
"184 185 OFFCURVE",
"138 183 OFFCURVE",
"92 183 OFFCURVE",
"78 183 QCURVE",
"69 183 OFFCURVE",
"33 184 OFFCURVE",
"25 184 QCURVE",
"22 159 OFFCURVE",
"8 91 OFFCURVE",
"-8 12 OFFCURVE",
"-27 -73 OFFCURVE",
"-35 -114 QCURVE"
);
}
);
width = 202;
}
);
unicode = 002C;
},
{
glyphname = hyphen;
lastChange = "2016-07-07 11:28:23 +0000";
layers = (
{
background = {
paths = (
{
closed = 1;
nodes = (
"409 427 LINE",
"377 425 OFFCURVE",
"345 424 QCURVE",
"318 423 OFFCURVE",
"259 422 OFFCURVE",
"238 422 QCURVE",
"220 422 OFFCURVE",
"169 423 OFFCURVE",
"146 424 QCURVE",
"119 425 OFFCURVE",
"91 426 QCURVE",
"42 245 LINE",
"69 245 OFFCURVE",
"95 246 QCURVE",
"118 247 OFFCURVE",
"166 248 OFFCURVE",
"184 248 QCURVE",
"207 248 OFFCURVE",
"273 247 OFFCURVE",
"303 246 QCURVE",
"338 245 OFFCURVE",
"374 244 QCURVE"
);
}
);
};
layerId = "A5922FF3-8C0B-4EAE-8A2D-3EBDCCE80B0C";
paths = (
{
closed = 1;
nodes = (
"409 427 LINE",
"377 425 OFFCURVE",
"318 423 OFFCURVE",
"259 422 OFFCURVE",
"238 422 QCURVE",
"220 422 OFFCURVE",
"169 423 OFFCURVE",
"119 425 OFFCURVE",
"91 426 QCURVE",
"42 245 LINE",
"69 245 OFFCURVE",
"118 247 OFFCURVE",
"166 248 OFFCURVE",
"184 248 QCURVE",
"207 248 OFFCURVE",
"273 247 OFFCURVE",
"338 245 OFFCURVE",
"374 244 QCURVE"
);
}
);
width = 369;
}
);
unicode = 002D;
},
{
glyphname = period;
lastChange = "2016-07-07 11:28:23 +0000";
layers = (
{
background = {
paths = (
{
closed = 1;
nodes = (
"114 -24 OFFCURVE",
"163 -6 OFFCURVE",
"196 24 OFFCURVE",
"213 62 OFFCURVE",
"213 82 QCURVE",
"213 118 OFFCURVE",
"154 174 OFFCURVE",
"94 174 QCURVE",
"68 174 OFFCURVE",
"30 156 OFFCURVE",
"4 128 OFFCURVE",
"-8 92 OFFCURVE",
"-8 73 QCURVE",
"-8 55 OFFCURVE",
"4 20 OFFCURVE",
"26 -7 OFFCURVE",
"60 -24 OFFCURVE",
"82 -24 QCURVE"
);
}
);
};
layerId = "A5922FF3-8C0B-4EAE-8A2D-3EBDCCE80B0C";
paths = (
{
closed = 1;
nodes = (
"114 -24 OFFCURVE",
"163 -6 OFFCURVE",
"196 24 OFFCURVE",
"213 62 OFFCURVE",
"213 82 QCURVE",
"213 118 OFFCURVE",
"154 174 OFFCURVE",
"94 174 QCURVE",
"68 174 OFFCURVE",
"30 156 OFFCURVE",
"4 128 OFFCURVE",
"-8 92 OFFCURVE",
"-8 73 QCURVE",
"-8 55 OFFCURVE",
"4 20 OFFCURVE",
"26 -7 OFFCURVE",
"60 -24 OFFCURVE",
"82 -24 QCURVE"
);
}
);
width = 214;
}
);
unicode = 002E;
},
{
glyphname = slash;
lastChange = "2016-07-07 11:28:23 +0000";
layers = (
{
background = {
paths = (
{
closed = 1;
nodes = (
"260 121 OFFCURVE",
"356 264 QCURVE",
"397 325 OFFCURVE",
"484 455 OFFCURVE",
"568 580 OFFCURVE",
"645 695 OFFCURVE",
"676 741 QCURVE",
"659 743 OFFCURVE",
"609 749 OFFCURVE",
"559 757 OFFCURVE",
"517 768 OFFCURVE",
"508 774 QCURVE",
"469 710 OFFCURVE",
"374 564 OFFCURVE",
"273 414 OFFCURVE",
"173 268 OFFCURVE",
"84 141 OFFCURVE",
"11 40 OFFCURVE",
"-11 10 QCURVE",
"159 -30 LINE"
);
}
);
};
layerId = "A5922FF3-8C0B-4EAE-8A2D-3EBDCCE80B0C";
paths = (
{
closed = 1;
nodes = (
"260 121 OFFCURVE",
"356 264 QCURVE",
"397 325 OFFCURVE",
"484 455 OFFCURVE",
"568 580 OFFCURVE",
"645 695 OFFCURVE",
"676 741 QCURVE",
"659 743 OFFCURVE",
"609 749 OFFCURVE",
"559 757 OFFCURVE",
"517 768 OFFCURVE",
"508 774 QCURVE",
"469 710 OFFCURVE",
"374 564 OFFCURVE",
"273 414 OFFCURVE",
"173 268 OFFCURVE",
"84 141 OFFCURVE",
"11 40 OFFCURVE",
"-11 10 QCURVE",
"159 -30 LINE"
);
}
);
width = 564;
}
);
unicode = 002F;
},
{
glyphname = zero;
lastChange = "2016-07-07 11:28:23 +0000";
layers = (
{
background = {
paths = (
{
closed = 1;
nodes = (
"268 1 OFFCURVE",
"355 45 OFFCURVE",
"427 120 OFFCURVE",
"481 220 OFFCURVE",
"519 332 OFFCURVE",
"538 449 OFFCURVE",
"538 504 QCURVE",
"538 555 OFFCURVE",
"520 646 OFFCURVE",
"483 714 OFFCURVE",
"427 753 OFFCURVE",
"389 753 QCURVE",
"342 753 OFFCURVE",
"254 705 OFFCURVE",
"177 625 OFFCURVE",
"112 518 OFFCURVE",
"66 401 OFFCURVE",
"41 279 OFFCURVE",
"41 224 QCURVE",
"41 177 OFFCURVE",
"61 96 OFFCURVE",
"103 36 OFFCURVE",
"170 1 OFFCURVE",
"217 1 QCURVE"
);
},
{
closed = 1;
nodes = (
"219 173 OFFCURVE",
"195 220 OFFCURVE",
"195 258 QCURVE",
"195 299 OFFCURVE",
"221 397 OFFCURVE",
"263 482 OFFCURVE",
"318 539 OFFCURVE",
"348 539 QCURVE",
"385 539 OFFCURVE",
"419 477 OFFCURVE",
"419 433 QCURVE",
"419 392 OFFCURVE",
"394 301 OFFCURVE",
"349 224 OFFCURVE",
"286 173 OFFCURVE",
"248 173 QCURVE"
);
}
);
};
layerId = "A5922FF3-8C0B-4EAE-8A2D-3EBDCCE80B0C";
paths = (
{
closed = 1;
nodes = (
"268 1 OFFCURVE",
"355 45 OFFCURVE",
"427 120 OFFCURVE",
"481 220 OFFCURVE",
"519 332 OFFCURVE",
"538 449 OFFCURVE",
"538 504 QCURVE",
"538 555 OFFCURVE",
"520 646 OFFCURVE",
"483 714 OFFCURVE",
"427 753 OFFCURVE",
"389 753 QCURVE",
"342 753 OFFCURVE",
"254 705 OFFCURVE",
"177 625 OFFCURVE",
"112 518 OFFCURVE",
"66 401 OFFCURVE",
"41 279 OFFCURVE",
"41 224 QCURVE",
"41 177 OFFCURVE",
"61 96 OFFCURVE",
"103 36 OFFCURVE",
"170 1 OFFCURVE",
"217 1 QCURVE"
);
},
{
closed = 1;
nodes = (
"219 173 OFFCURVE",
"195 220 OFFCURVE",
"195 258 QCURVE",
"195 299 OFFCURVE",
"221 397 OFFCURVE",
"263 482 OFFCURVE",
"318 539 OFFCURVE",
"348 539 QCURVE",
"385 539 OFFCURVE",
"419 477 OFFCURVE",
"419 433 QCURVE",
"419 392 OFFCURVE",
"394 301 OFFCURVE",
"349 224 OFFCURVE",
"286 173 OFFCURVE",
"248 173 QCURVE"
);
}
);
width = 485;
}
);
unicode = 0030;
},
{
glyphname = one;
lastChange = "2016-07-07 11:28:23 +0000";
layers = (
{
background = {
paths = (
{
closed = 1;
nodes = (
"128 10 OFFCURVE",
"161 17 QCURVE",
"190 23 OFFCURVE",
"252 37 OFFCURVE",
"275 44 QCURVE",
"290 135 OFFCURVE",
"319 308 OFFCURVE",
"351 478 OFFCURVE",
"387 648 OFFCURVE",
"409 738 QCURVE",
"320 724 OFFCURVE",
"202 706 OFFCURVE",
"166 699 QCURVE",
"124 691 OFFCURVE",
"100 686 QCURVE",
"94 645 OFFCURVE",
"90 610 QCURVE",
"85 580 OFFCURVE",
"77 521 OFFCURVE",
"75 507 QCURVE",
"89 509 OFFCURVE",
"131 516 OFFCURVE",
"151 519 QCURVE",
"174 523 OFFCURVE",
"199 525 QCURVE",
"192 487 OFFCURVE",
"176 401 OFFCURVE",
"159 314 OFFCURVE",
"141 227 OFFCURVE",
"133 188 QCURVE",
"114 96 OFFCURVE",
"93 4 QCURVE"
);
}
);
};
layerId = "A5922FF3-8C0B-4EAE-8A2D-3EBDCCE80B0C";
paths = (
{
closed = 1;
nodes = (
"128 10 OFFCURVE",
"161 17 QCURVE",
"190 23 OFFCURVE",
"252 37 OFFCURVE",
"275 44 QCURVE",
"290 135 OFFCURVE",
"319 308 OFFCURVE",
"351 478 OFFCURVE",
"387 648 OFFCURVE",
"409 738 QCURVE",
"320 724 OFFCURVE",
"202 706 OFFCURVE",
"166 699 QCURVE",
"124 691 OFFCURVE",
"100 686 QCURVE",
"94 645 OFFCURVE",
"90 610 QCURVE",
"85 580 OFFCURVE",
"77 521 OFFCURVE",
"75 507 QCURVE",
"89 509 OFFCURVE",
"131 516 OFFCURVE",
"151 519 QCURVE",
"174 523 OFFCURVE",
"199 525 QCURVE",
"192 487 OFFCURVE",
"176 401 OFFCURVE",
"159 314 OFFCURVE",
"141 227 OFFCURVE",
"133 188 QCURVE",
"114 96 OFFCURVE",
"93 4 QCURVE"
);
}
);
width = 328;
}
);
unicode = 0031;
},
{
glyphname = two;
lastChange = "2016-07-07 11:28:23 +0000";
layers = (
{
background = {
paths = (
{
closed = 1;
nodes = (
"91 15 OFFCURVE",
"174 21 QCURVE",
"209 24 OFFCURVE",
"284 29 OFFCURVE",
"354 33 OFFCURVE",
"417 37 OFFCURVE",
"441 39 QCURVE",
"458 187 LINE",
"404 183 OFFCURVE",
"355 179 QCURVE",
"313 176 OFFCURVE",
"226 172 OFFCURVE",
"199 172 QCURVE",
"274 212 OFFCURVE",
"403 300 OFFCURVE",
"498 393 OFFCURVE",
"551 491 OFFCURVE",
"551 542 QCURVE",
"551 595 OFFCURVE",
"518 672 OFFCURVE",
"464 722 OFFCURVE",
"393 746 OFFCURVE",
"354 746 QCURVE",
"307 746 OFFCURVE",
"212 712 OFFCURVE",
"137 647 OFFCURVE",
"90 552 OFFCURVE",
"90 492 QCURVE",
"90 484 OFFCURVE",
"91 467 OFFCURVE",
"92 459 QCURVE",
"123 462 OFFCURVE",
"185 469 OFFCURVE",
"211 471 QCURVE",
"241 474 OFFCURVE",
"268 476 QCURVE",
"267 477 OFFCURVE",
"267 480 QCURVE",
"267 491 LINE",
"267 505 OFFCURVE",
"273 534 OFFCURVE",
"287 558 OFFCURVE",
"312 573 OFFCURVE",
"330 573 QCURVE",
"347 573 OFFCURVE",
"371 540 OFFCURVE",
"371 509 QCURVE",
"371 489 OFFCURVE",
"321 437 OFFCURVE",
"245 376 OFFCURVE",
"156 309 OFFCURVE",
"78 239 OFFCURVE",
"22 170 OFFCURVE",
"18 138 QCURVE",
"1 9 LINE"
);
}
);
};
layerId = "A5922FF3-8C0B-4EAE-8A2D-3EBDCCE80B0C";
paths = (
{
closed = 1;
nodes = (
"91 15 OFFCURVE",
"174 21 QCURVE",
"209 24 OFFCURVE",
"284 29 OFFCURVE",
"354 33 OFFCURVE",
"417 37 OFFCURVE",
"441 39 QCURVE",
"458 187 LINE",
"404 183 OFFCURVE",
"313 176 OFFCURVE",
"226 172 OFFCURVE",
"199 172 QCURVE",
"274 212 OFFCURVE",
"403 300 OFFCURVE",
"498 393 OFFCURVE",
"551 491 OFFCURVE",
"551 542 QCURVE",
"551 595 OFFCURVE",
"518 672 OFFCURVE",
"464 722 OFFCURVE",
"393 746 OFFCURVE",
"354 746 QCURVE",
"307 746 OFFCURVE",
"212 712 OFFCURVE",
"137 647 OFFCURVE",
"90 552 OFFCURVE",
"90 492 QCURVE",
"90 484 OFFCURVE",
"91 467 OFFCURVE",
"92 459 QCURVE",
"123 462 OFFCURVE",
"185 469 OFFCURVE",
"211 471 QCURVE",
"241 474 OFFCURVE",
"268 476 QCURVE",
"267 477 OFFCURVE",
"267 480 QCURVE",
"267 491 LINE",
"267 505 OFFCURVE",
"273 534 OFFCURVE",
"287 558 OFFCURVE",
"312 573 OFFCURVE",
"330 573 QCURVE",
"347 573 OFFCURVE",
"371 540 OFFCURVE",
"371 509 QCURVE",
"371 489 OFFCURVE",
"321 437 OFFCURVE",
"245 376 OFFCURVE",
"156 309 OFFCURVE",
"78 239 OFFCURVE",
"22 170 OFFCURVE",
"18 138 QCURVE",
"1 9 LINE"
);
}
);
width = 478;
}
);
unicode = 0032;
},
{
glyphname = three;
lastChange = "2016-07-07 11:28:23 +0000";
layers = (
{
background = {
paths = (
{
closed = 1;
nodes = (
"240 -12 OFFCURVE",
"353 38 OFFCURVE",
"440 117 OFFCURVE",
"492 215 OFFCURVE",
"492 262 QCURVE",
"492 290 OFFCURVE",
"471 342 OFFCURVE",
"425 386 OFFCURVE",
"352 419 OFFCURVE",
"301 428 QCURVE",
"506 536 LINE",
"530 754 LINE",
"516 754 OFFCURVE",
"466 753 OFFCURVE",
"404 750 OFFCURVE",
"334 747 OFFCURVE",
"300 746 QCURVE",
"220 742 OFFCURVE",
"127 738 QCURVE",
"115 562 LINE",
"280 565 LINE",
"251 542 OFFCURVE",
"219 519 QCURVE",
"192 499 OFFCURVE",
"127 455 OFFCURVE",
"96 435 QCURVE",
"78 284 LINE",
"104 286 OFFCURVE",
"182 297 OFFCURVE",
"222 297 QCURVE",
"276 297 OFFCURVE",
"324 256 OFFCURVE",
"324 231 QCURVE",
"324 214 OFFCURVE",
"306 185 OFFCURVE",
"279 163 OFFCURVE",
"248 150 OFFCURVE",
"234 150 QCURVE",
"219 150 OFFCURVE",
"199 168 OFFCURVE",
"199 188 QCURVE",
"19 178 LINE",
"10 149 OFFCURVE",
"10 126 QCURVE",
"10 90 OFFCURVE",
"37 38 OFFCURVE",
"83 4 OFFCURVE",
"144 -12 OFFCURVE",
"179 -12 QCURVE"
);
}
);
};
layerId = "A5922FF3-8C0B-4EAE-8A2D-3EBDCCE80B0C";
paths = (
{
closed = 1;
nodes = (
"240 -12 OFFCURVE",
"353 38 OFFCURVE",
"440 117 OFFCURVE",
"492 215 OFFCURVE",
"492 262 QCURVE",
"492 290 OFFCURVE",
"471 342 OFFCURVE",
"425 386 OFFCURVE",
"352 419 OFFCURVE",
"301 428 QCURVE",
"506 536 LINE",
"530 754 LINE",
"516 754 OFFCURVE",
"466 753 OFFCURVE",
"404 750 OFFCURVE",
"334 747 OFFCURVE",
"300 746 QCURVE",
"220 742 OFFCURVE",
"127 738 QCURVE",
"115 562 LINE",
"280 565 LINE",
"251 542 OFFCURVE",
"219 519 QCURVE",
"192 499 OFFCURVE",
"127 455 OFFCURVE",
"96 435 QCURVE",
"78 284 LINE",
"104 286 OFFCURVE",
"182 297 OFFCURVE",
"222 297 QCURVE",
"276 297 OFFCURVE",
"324 256 OFFCURVE",
"324 231 QCURVE",
"324 214 OFFCURVE",
"306 185 OFFCURVE",
"279 163 OFFCURVE",
"248 150 OFFCURVE",
"234 150 QCURVE",
"219 150 OFFCURVE",
"199 168 OFFCURVE",
"199 188 QCURVE",
"19 178 LINE",
"10 149 OFFCURVE",
"10 126 QCURVE",
"10 90 OFFCURVE",
"37 38 OFFCURVE",
"83 4 OFFCURVE",
"144 -12 OFFCURVE",
"179 -12 QCURVE"
);
}
);
width = 469;
}
);
unicode = 0033;
},
{
glyphname = four;
lastChange = "2016-07-07 11:28:23 +0000";
layers = (
{
background = {
paths = (
{
closed = 1;
nodes = (
"412 31 LINE",
"421 165 LINE",
"473 165 LINE",
"515 329 LINE",
"457 329 LINE",
"459 339 OFFCURVE",
"467 388 OFFCURVE",
"479 450 OFFCURVE",
"491 519 OFFCURVE",
"502 581 OFFCURVE",
"511 630 OFFCURVE",
"512 640 QCURVE",
"490 638 OFFCURVE",
"431 632 OFFCURVE",
"403 628 QCURVE",
"370 624 OFFCURVE",
"337 619 QCURVE",
"323 548 OFFCURVE",
"312 488 QCURVE",
"307 462 OFFCURVE",
"298 411 OFFCURVE",
"290 368 OFFCURVE",
"284 336 OFFCURVE",
"283 329 QCURVE",
"210 329 LINE",
"212 336 OFFCURVE",
"214 346 OFFCURVE",
"215 353 QCURVE",
"246 453 OFFCURVE",
"310 645 OFFCURVE",
"348 740 QCURVE",
"304 734 OFFCURVE",
"227 729 OFFCURVE",
"184 729 QCURVE",
"175 703 OFFCURVE",
"153 634 OFFCURVE",
"127 556 OFFCURVE",
"100 473 OFFCURVE",
"87 434 QCURVE",
"56 342 OFFCURVE",
"23 241 QCURVE",
"68 148 LINE",
"244 162 LINE",
"223 -2 LINE"
);
}
);
};
layerId = "A5922FF3-8C0B-4EAE-8A2D-3EBDCCE80B0C";
paths = (
{
closed = 1;
nodes = (
"412 31 LINE",
"421 165 LINE",
"473 165 LINE",
"515 329 LINE",
"457 329 LINE",
"459 339 OFFCURVE",
"467 388 OFFCURVE",
"479 450 OFFCURVE",
"491 519 OFFCURVE",
"502 581 OFFCURVE",
"511 630 OFFCURVE",
"512 640 QCURVE",
"490 638 OFFCURVE",
"431 632 OFFCURVE",
"403 628 QCURVE",
"370 624 OFFCURVE",
"337 619 QCURVE",
"323 548 OFFCURVE",
"312 488 QCURVE",
"307 462 OFFCURVE",
"298 411 OFFCURVE",
"290 368 OFFCURVE",
"284 336 OFFCURVE",
"283 329 QCURVE",
"210 329 LINE",
"212 336 OFFCURVE",
"214 346 OFFCURVE",
"215 353 QCURVE",
"246 453 OFFCURVE",
"310 645 OFFCURVE",
"348 740 QCURVE",
"304 734 OFFCURVE",
"227 729 OFFCURVE",
"184 729 QCURVE",
"175 703 OFFCURVE",
"153 634 OFFCURVE",
"127 556 OFFCURVE",
"100 473 OFFCURVE",
"87 434 QCURVE",
"56 342 OFFCURVE",
"23 241 QCURVE",
"68 148 LINE",
"244 162 LINE",
"223 -2 LINE"
);
}
);
width = 470;
}
);
unicode = 0034;
},
{
glyphname = five;
lastChange = "2016-07-07 11:28:23 +0000";
layers = (
{
background = {
paths = (
{
closed = 1;
nodes = (
"244 -5 OFFCURVE",
"313 24 OFFCURVE",
"378 73 OFFCURVE",
"435 138 OFFCURVE",
"477 211 OFFCURVE",
"502 287 OFFCURVE",
"502 323 QCURVE",
"502 358 OFFCURVE",
"476 417 OFFCURVE",
"419 460 OFFCURVE",
"327 484 OFFCURVE",
"261 484 QCURVE",
"264 511 OFFCURVE",
"269 556 OFFCURVE",
"271 570 QCURVE",
"333 573 OFFCURVE",
"451 578 OFFCURVE",
"508 580 QCURVE",
"528 747 LINE",
"138 732 LINE",
"115 606 OFFCURVE",
"82 407 OFFCURVE",
"71 330 QCURVE",
"106 336 OFFCURVE",
"153 343 OFFCURVE",
"185 347 OFFCURVE",
"205 348 OFFCURVE",
"214 348 QCURVE",
"249 348 OFFCURVE",
"292 337 OFFCURVE",
"315 320 OFFCURVE",
"323 297 OFFCURVE",
"323 285 QCURVE",
"323 260 OFFCURVE",
"308 223 OFFCURVE",
"285 199 OFFCURVE",
"257 187 OFFCURVE",
"244 187 QCURVE",
"227 187 OFFCURVE",
"203 206 OFFCURVE",
"203 226 QCURVE",
"203 236 OFFCURVE",
"208 251 QCURVE",
"50 263 LINE",
"48 240 OFFCURVE",
"45 197 OFFCURVE",
"45 177 QCURVE",
"45 137 OFFCURVE",
"68 70 OFFCURVE",
"110 22 OFFCURVE",
"172 -5 OFFCURVE",
"211 -5 QCURVE"
);
}
);
};
layerId = "A5922FF3-8C0B-4EAE-8A2D-3EBDCCE80B0C";
paths = (
{
closed = 1;
nodes = (
"244 -5 OFFCURVE",
"313 24 OFFCURVE",
"378 73 OFFCURVE",
"435 138 OFFCURVE",
"477 211 OFFCURVE",
"502 287 OFFCURVE",
"502 323 QCURVE",
"502 358 OFFCURVE",
"476 417 OFFCURVE",
"419 460 OFFCURVE",
"327 484 OFFCURVE",
"261 484 QCURVE",
"264 511 OFFCURVE",
"269 556 OFFCURVE",
"271 570 QCURVE",
"333 573 OFFCURVE",
"451 578 OFFCURVE",
"508 580 QCURVE",
"528 747 LINE",
"138 732 LINE",
"115 606 OFFCURVE",
"82 407 OFFCURVE",
"71 330 QCURVE",
"106 336 OFFCURVE",
"153 343 OFFCURVE",
"185 347 OFFCURVE",
"205 348 OFFCURVE",
"214 348 QCURVE",
"249 348 OFFCURVE",
"292 337 OFFCURVE",
"315 320 OFFCURVE",
"323 297 OFFCURVE",
"323 285 QCURVE",
"323 260 OFFCURVE",
"308 223 OFFCURVE",
"285 199 OFFCURVE",
"257 187 OFFCURVE",
"244 187 QCURVE",
"227 187 OFFCURVE",
"203 206 OFFCURVE",
"203 226 QCURVE",
"203 236 OFFCURVE",
"208 251 QCURVE",
"50 263 LINE",
"48 240 OFFCURVE",
"45 197 OFFCURVE",
"45 177 QCURVE",
"45 137 OFFCURVE",
"68 70 OFFCURVE",
"110 22 OFFCURVE",
"172 -5 OFFCURVE",
"211 -5 QCURVE"
);
}
);
width = 461;
}
);
unicode = 0035;
},
{
glyphname = six;
lastChange = "2016-07-07 11:28:23 +0000";
layers = (
{
background = {
paths = (
{
closed = 1;
nodes = (
"330 5 OFFCURVE",
"423 45 OFFCURVE",
"484 108 OFFCURVE",
"515 188 OFFCURVE",
"515 229 QCURVE",
"515 263 OFFCURVE",
"493 327 OFFCURVE",
"449 376 OFFCURVE",
"385 405 OFFCURVE",
"342 405 QCURVE",
"303 405 OFFCURVE",
"258 392 QCURVE",
"268 434 OFFCURVE",
"296 505 OFFCURVE",
"326 556 OFFCURVE",
"355 585 OFFCURVE",
"367 585 QCURVE",
"384 585 OFFCURVE",
"404 550 OFFCURVE",
"404 512 QCURVE",
"545 579 LINE",
"545 615 OFFCURVE",
"526 679 OFFCURVE",
"487 727 OFFCURVE",
"430 756 OFFCURVE",
"392 756 QCURVE",
"340 756 OFFCURVE",
"221 695 OFFCURVE",
"120 571 OFFCURVE",
"53 384 OFFCURVE",
"53 259 QCURVE",
"53 195 OFFCURVE",
"88 100 OFFCURVE",
"146 37 OFFCURVE",
"224 5 OFFCURVE",
"267 5 QCURVE"
);
},
{
closed = 1;
nodes = (
"265 159 OFFCURVE",
"235 199 OFFCURVE",
"235 247 QCURVE",
"235 253 OFFCURVE",
"235 265 OFFCURVE",
"236 271 QCURVE",
"255 277 OFFCURVE",
"287 282 OFFCURVE",
"301 282 QCURVE",
"346 282 OFFCURVE",
"381 257 OFFCURVE",
"381 241 QCURVE",
"381 226 OFFCURVE",
"366 196 OFFCURVE",
"340 173 OFFCURVE",
"305 159 OFFCURVE",
"285 159 QCURVE"
);
}
);
};
layerId = "A5922FF3-8C0B-4EAE-8A2D-3EBDCCE80B0C";
paths = (
{
closed = 1;
nodes = (
"330 5 OFFCURVE",
"423 45 OFFCURVE",
"484 108 OFFCURVE",
"515 188 OFFCURVE",
"515 229 QCURVE",
"515 263 OFFCURVE",
"493 327 OFFCURVE",
"449 376 OFFCURVE",
"385 405 OFFCURVE",
"342 405 QCURVE",
"303 405 OFFCURVE",
"258 392 QCURVE",
"268 434 OFFCURVE",
"296 505 OFFCURVE",
"326 556 OFFCURVE",
"355 585 OFFCURVE",
"367 585 QCURVE",
"384 585 OFFCURVE",
"404 550 OFFCURVE",
"404 512 QCURVE",
"545 579 LINE",
"545 615 OFFCURVE",
"526 679 OFFCURVE",
"487 727 OFFCURVE",
"430 756 OFFCURVE",
"392 756 QCURVE",
"340 756 OFFCURVE",
"221 695 OFFCURVE",
"120 571 OFFCURVE",
"53 384 OFFCURVE",
"53 259 QCURVE",
"53 195 OFFCURVE",
"88 100 OFFCURVE",
"146 37 OFFCURVE",
"224 5 OFFCURVE",
"267 5 QCURVE"
);
},
{
closed = 1;
nodes = (
"265 159 OFFCURVE",
"235 199 OFFCURVE",
"235 247 QCURVE",
"235 253 OFFCURVE",
"235 265 OFFCURVE",
"236 271 QCURVE",
"255 277 OFFCURVE",
"287 282 OFFCURVE",
"301 282 QCURVE",
"346 282 OFFCURVE",
"381 257 OFFCURVE",
"381 241 QCURVE",
"381 226 OFFCURVE",
"366 196 OFFCURVE",
"340 173 OFFCURVE",
"305 159 OFFCURVE",
"285 159 QCURVE"
);
}
);
width = 489;
}
);
unicode = 0036;
},
{
glyphname = seven;
lastChange = "2016-07-07 11:28:23 +0000";
layers = (
{
background = {
paths = (
{
closed = 1;
nodes = (
"213 26 LINE",
"473 758 LINE",
"114 727 LINE",
"82 547 LINE",
"233 569 LINE",
"30 9 LINE"
);
}
);
};
layerId = "A5922FF3-8C0B-4EAE-8A2D-3EBDCCE80B0C";
paths = (
{
closed = 1;
nodes = (
"213 26 LINE",
"473 758 LINE",
"114 727 LINE",
"82 547 LINE",
"233 569 LINE",
"30 9 LINE"
);
}
);
width = 347;
}
);
unicode = 0037;
},
{
glyphname = eight;
lastChange = "2016-07-07 11:28:23 +0000";
layers = (
{
background = {
paths = (
{
closed = 1;
nodes = (
"298 -11 OFFCURVE",
"412 34 OFFCURVE",
"497 109 OFFCURVE",
"546 206 OFFCURVE",
"546 259 QCURVE",
"546 300 OFFCURVE",
"514 383 OFFCURVE",
"478 421 QCURVE",
"508 434 OFFCURVE",
"554 475 OFFCURVE",
"586 524 OFFCURVE",
"602 579 OFFCURVE",
"602 606 QCURVE",
"602 636 OFFCURVE",
"581 693 OFFCURVE",
"538 736 OFFCURVE",
"473 762 OFFCURVE",
"429 762 QCURVE",
"373 762 OFFCURVE",
"262 721 OFFCURVE",
"175 655 OFFCURVE",
"121 570 OFFCURVE",
"121 525 QCURVE",
"121 494 OFFCURVE",
"151 434 OFFCURVE",
"184 407 QCURVE",
"140 391 OFFCURVE",
"78 335 OFFCURVE",
"38 267 OFFCURVE",
"20 192 OFFCURVE",
"20 158 QCURVE",
"20 113 OFFCURVE",
"52 48 OFFCURVE",
"109 8 OFFCURVE",
"187 -11 OFFCURVE",
"232 -11 QCURVE"
);
},
{
closed = 1;
nodes = (
"210 145 OFFCURVE",
"169 184 OFFCURVE",
"169 210 QCURVE",
"169 232 OFFCURVE",
"197 277 OFFCURVE",
"241 313 OFFCURVE",
"294 335 OFFCURVE",
"318 335 QCURVE",
"348 335 OFFCURVE",
"392 293 OFFCURVE",
"392 241 QCURVE",
"392 224 OFFCURVE",
"379 189 OFFCURVE",
"348 162 OFFCURVE",
"297 145 OFFCURVE",
"260 145 QCURVE"
);
},
{
closed = 1;
nodes = (
"311 452 OFFCURVE",
"282 487 OFFCURVE",
"282 510 QCURVE",
"282 525 OFFCURVE",
"292 556 OFFCURVE",
"314 580 OFFCURVE",
"347 595 OFFCURVE",
"370 595 QCURVE",
"382 595 OFFCURVE",
"407 590 OFFCURVE",
"428 578 OFFCURVE",
"441 559 OFFCURVE",
"441 546 QCURVE",
"441 531 OFFCURVE",
"422 497 OFFCURVE",
"392 470 OFFCURVE",
"355 452 OFFCURVE",
"337 452 QCURVE"
);
}
);
};
layerId = "A5922FF3-8C0B-4EAE-8A2D-3EBDCCE80B0C";
paths = (
{
closed = 1;
nodes = (
"298 -11 OFFCURVE",
"412 34 OFFCURVE",
"497 109 OFFCURVE",
"546 206 OFFCURVE",
"546 259 QCURVE",
"546 300 OFFCURVE",
"514 383 OFFCURVE",
"478 421 QCURVE",
"508 434 OFFCURVE",
"554 475 OFFCURVE",
"586 524 OFFCURVE",
"602 579 OFFCURVE",
"602 606 QCURVE",
"602 636 OFFCURVE",
"581 693 OFFCURVE",
"538 736 OFFCURVE",
"473 762 OFFCURVE",
"429 762 QCURVE",
"373 762 OFFCURVE",
"262 721 OFFCURVE",
"175 655 OFFCURVE",
"121 570 OFFCURVE",
"121 525 QCURVE",
"121 494 OFFCURVE",
"151 434 OFFCURVE",
"184 407 QCURVE",
"140 391 OFFCURVE",
"78 335 OFFCURVE",
"38 267 OFFCURVE",
"20 192 OFFCURVE",
"20 158 QCURVE",
"20 113 OFFCURVE",
"52 48 OFFCURVE",
"109 8 OFFCURVE",
"187 -11 OFFCURVE",
"232 -11 QCURVE"
);
},
{
closed = 1;
nodes = (
"210 145 OFFCURVE",
"169 184 OFFCURVE",
"169 210 QCURVE",
"169 232 OFFCURVE",
"197 277 OFFCURVE",
"241 313 OFFCURVE",
"294 335 OFFCURVE",
"318 335 QCURVE",
"348 335 OFFCURVE",
"392 293 OFFCURVE",
"392 241 QCURVE",
"392 224 OFFCURVE",
"379 189 OFFCURVE",
"348 162 OFFCURVE",
"297 145 OFFCURVE",
"260 145 QCURVE"
);
},
{
closed = 1;
nodes = (
"311 452 OFFCURVE",
"282 487 OFFCURVE",
"282 510 QCURVE",
"282 525 OFFCURVE",
"292 556 OFFCURVE",
"314 580 OFFCURVE",
"347 595 OFFCURVE",
"370 595 QCURVE",
"382 595 OFFCURVE",
"407 590 OFFCURVE",
"428 578 OFFCURVE",
"441 559 OFFCURVE",
"441 546 QCURVE",
"441 531 OFFCURVE",
"422 497 OFFCURVE",
"392 470 OFFCURVE",
"355 452 OFFCURVE",
"337 452 QCURVE"
);
}
);
width = 530;
}
);
unicode = 0038;
},
{
glyphname = nine;
lastChange = "2016-07-07 11:28:23 +0000";
layers = (
{
background = {
paths = (
{
closed = 1;
nodes = (
"227 7 OFFCURVE",
"373 77 OFFCURVE",
"487 203 OFFCURVE",
"557 378 OFFCURVE",
"557 482 QCURVE",
"557 554 OFFCURVE",
"515 659 OFFCURVE",
"447 728 OFFCURVE",
"359 761 OFFCURVE",
"314 761 QCURVE",
"269 761 OFFCURVE",
"182 729 OFFCURVE",
"114 668 OFFCURVE",
"72 579 OFFCURVE",
"72 522 QCURVE",
"72 475 OFFCURVE",
"103 401 OFFCURVE",
"154 349 OFFCURVE",
"220 321 OFFCURVE",
"255 321 QCURVE",
"281 321 OFFCURVE",
"333 335 OFFCURVE",
"356 349 QCURVE",
"347 310 OFFCURVE",
"311 246 OFFCURVE",
"261 201 OFFCURVE",
"199 177 OFFCURVE",
"165 177 QCURVE",
"150 7 LINE"
);
},
{
closed = 1;
nodes = (
"284 477 OFFCURVE",
"239 508 OFFCURVE",
"239 542 QCURVE",
"239 558 OFFCURVE",
"254 584 OFFCURVE",
"278 602 OFFCURVE",
"308 612 OFFCURVE",
"322 612 QCURVE",
"345 612 OFFCURVE",
"379 581 OFFCURVE",
"379 533 QCURVE",
"379 506 OFFCURVE",
"336 477 OFFCURVE",
"310 477 QCURVE"
);
}
);
};
layerId = "A5922FF3-8C0B-4EAE-8A2D-3EBDCCE80B0C";
paths = (
{
closed = 1;
nodes = (
"227 7 OFFCURVE",
"373 77 OFFCURVE",
"487 203 OFFCURVE",
"557 378 OFFCURVE",
"557 482 QCURVE",
"557 554 OFFCURVE",
"515 659 OFFCURVE",
"447 728 OFFCURVE",
"359 761 OFFCURVE",
"314 761 QCURVE",
"269 761 OFFCURVE",
"182 729 OFFCURVE",
"114 668 OFFCURVE",
"72 579 OFFCURVE",
"72 522 QCURVE",
"72 475 OFFCURVE",
"103 401 OFFCURVE",
"154 349 OFFCURVE",
"220 321 OFFCURVE",
"255 321 QCURVE",
"281 321 OFFCURVE",
"333 335 OFFCURVE",
"356 349 QCURVE",
"347 310 OFFCURVE",
"311 246 OFFCURVE",
"261 201 OFFCURVE",
"199 177 OFFCURVE",
"165 177 QCURVE",
"150 7 LINE"
);
},
{
closed = 1;
nodes = (
"284 477 OFFCURVE",
"239 508 OFFCURVE",
"239 542 QCURVE",
"239 558 OFFCURVE",
"254 584 OFFCURVE",
"278 602 OFFCURVE",
"308 612 OFFCURVE",
"322 612 QCURVE",
"345 612 OFFCURVE",
"379 581 OFFCURVE",
"379 533 QCURVE",
"379 506 OFFCURVE",
"336 477 OFFCURVE",
"310 477 QCURVE"
);
}
);
width = 501;
}
);
unicode = 0039;
},
{
glyphname = colon;
lastChange = "2016-07-07 11:28:23 +0000";
layers = (
{
background = {
paths = (
{
closed = 1;
nodes = (
"86 344 LINE",
"118 344 OFFCURVE",
"184 346 OFFCURVE",
"217 348 QCURVE",
"226 409 OFFCURVE",
"247 530 OFFCURVE",
"261 590 QCURVE",
"223 579 OFFCURVE",
"147 566 OFFCURVE",
"109 566 QCURVE",
"100 511 OFFCURVE",
"82 401 OFFCURVE",
"74 344 QCURVE"
);
},
{
closed = 1;
nodes = (
"57 54 OFFCURVE",
"132 64 OFFCURVE",
"170 66 QCURVE",
"178 117 OFFCURVE",
"195 220 OFFCURVE",
"204 271 QCURVE",
"190 272 OFFCURVE",
"164 272 OFFCURVE",
"150 272 QCURVE",
"127 272 OFFCURVE",
"81 271 OFFCURVE",
"58 270 QCURVE",
"50 213 OFFCURVE",
"32 100 OFFCURVE",
"20 43 QCURVE"
);
}
);
};
layerId = "A5922FF3-8C0B-4EAE-8A2D-3EBDCCE80B0C";
paths = (
{
closed = 1;
nodes = (
"86 344 LINE",
"118 344 OFFCURVE",
"184 346 OFFCURVE",
"217 348 QCURVE",
"226 409 OFFCURVE",
"247 530 OFFCURVE",
"261 590 QCURVE",
"223 579 OFFCURVE",
"147 566 OFFCURVE",
"109 566 QCURVE",
"100 511 OFFCURVE",
"82 401 OFFCURVE",
"74 344 QCURVE"
);
},
{
closed = 1;
nodes = (
"57 54 OFFCURVE",
"132 64 OFFCURVE",
"170 66 QCURVE",
"178 117 OFFCURVE",
"195 220 OFFCURVE",
"204 271 QCURVE",
"190 272 OFFCURVE",
"164 272 OFFCURVE",
"150 272 QCURVE",
"127 272 OFFCURVE",
"81 271 OFFCURVE",
"58 270 QCURVE",
"50 213 OFFCURVE",
"32 100 OFFCURVE",
"20 43 QCURVE"
);
}
);
width = 200;
}
);
unicode = 003A;
},
{
glyphname = semicolon;
lastChange = "2016-07-07 11:28:23 +0000";
layers = (
{
background = {
paths = (
{
closed = 1;
nodes = (
"180 -27 LINE",
"197 30 OFFCURVE",
"214 85 QCURVE",
"228 132 OFFCURVE",
"256 235 OFFCURVE",
"264 273 QCURVE",
"238 272 OFFCURVE",
"213 271 QCURVE",
"192 270 OFFCURVE",
"146 270 OFFCURVE",
"132 270 QCURVE",
"123 270 OFFCURVE",
"87 271 OFFCURVE",
"79 271 QCURVE",
"76 246 OFFCURVE",
"62 178 OFFCURVE",
"46 99 OFFCURVE",
"27 14 OFFCURVE",
"19 -27 QCURVE"
);
},
{
closed = 1;
nodes = (
"112 344 LINE",
"128 344 OFFCURVE",
"167 345 OFFCURVE",
"207 346 OFFCURVE",
"246 347 OFFCURVE",
"263 348 QCURVE",
"267 378 OFFCURVE",
"277 430 OFFCURVE",
"286 481 OFFCURVE",
"294 536 OFFCURVE",
"297 570 QCURVE",
"269 568 OFFCURVE",
"225 567 OFFCURVE",
"188 566 OFFCURVE",
"154 566 OFFCURVE",
"135 566 QCURVE",
"126 511 OFFCURVE",
"108 401 OFFCURVE",
"100 344 QCURVE"
);
}
);
};
layerId = "A5922FF3-8C0B-4EAE-8A2D-3EBDCCE80B0C";
paths = (
{
closed = 1;
nodes = (
"180 -27 LINE",
"197 30 OFFCURVE",
"228 132 OFFCURVE",
"256 235 OFFCURVE",
"264 273 QCURVE",
"238 272 OFFCURVE",
"192 270 OFFCURVE",
"146 270 OFFCURVE",
"132 270 QCURVE",
"123 270 OFFCURVE",
"87 271 OFFCURVE",
"79 271 QCURVE",
"76 246 OFFCURVE",
"62 178 OFFCURVE",
"46 99 OFFCURVE",
"27 14 OFFCURVE",
"19 -27 QCURVE"
);
},
{
closed = 1;
nodes = (
"112 344 LINE",
"128 344 OFFCURVE",
"167 345 OFFCURVE",
"207 346 OFFCURVE",
"246 347 OFFCURVE",
"263 348 QCURVE",
"267 378 OFFCURVE",
"277 430 OFFCURVE",
"286 481 OFFCURVE",
"294 536 OFFCURVE",
"297 570 QCURVE",
"269 568 OFFCURVE",
"225 567 OFFCURVE",
"188 566 OFFCURVE",
"154 566 OFFCURVE",
"135 566 QCURVE",
"126 511 OFFCURVE",
"108 401 OFFCURVE",
"100 344 QCURVE"
);
}
);
width = 268;
}
);
unicode = 003B;
},
{
glyphname = less;
lastChange = "2016-07-07 11:28:23 +0000";
layers = (
{
background = {
paths = (
{
closed = 1;
nodes = (
"264 84 OFFCURVE",
"285 190 OFFCURVE",
"297 244 QCURVE",
"259 278 OFFCURVE",
"184 346 OFFCURVE",
"146 380 QCURVE",
"191 414 OFFCURVE",
"285 478 OFFCURVE",
"330 514 QCURVE",
"343 575 OFFCURVE",
"370 695 OFFCURVE",
"387 754 QCURVE",
"317 685 OFFCURVE",
"167 568 OFFCURVE",
"91 511 QCURVE",
"81 441 OFFCURVE",
"61 304 OFFCURVE",
"48 235 QCURVE",
"97 180 OFFCURVE",
"200 82 OFFCURVE",
"251 30 QCURVE"
);
}
);
};
layerId = "A5922FF3-8C0B-4EAE-8A2D-3EBDCCE80B0C";
paths = (
{
closed = 1;
nodes = (
"264 84 OFFCURVE",
"285 190 OFFCURVE",
"297 244 QCURVE",
"259 278 OFFCURVE",
"184 346 OFFCURVE",
"146 380 QCURVE",
"191 414 OFFCURVE",
"285 478 OFFCURVE",
"330 514 QCURVE",
"343 575 OFFCURVE",
"370 695 OFFCURVE",
"387 754 QCURVE",
"317 685 OFFCURVE",
"167 568 OFFCURVE",
"91 511 QCURVE",
"81 441 OFFCURVE",
"61 304 OFFCURVE",
"48 235 QCURVE",
"97 180 OFFCURVE",
"200 82 OFFCURVE",
"251 30 QCURVE"
);
}
);
width = 296;
}
);
unicode = 003C;
},
{
glyphname = equal;
lastChange = "2016-07-07 11:28:23 +0000";
layers = (
{
background = {
paths = (
{
closed = 1;
nodes = (
"216 261 OFFCURVE",
"270 262 OFFCURVE",
"298 262 QCURVE",
"306 304 OFFCURVE",
"327 385 OFFCURVE",
"340 426 QCURVE",
"301 421 OFFCURVE",
"223 416 OFFCURVE",
"183 416 QCURVE",
"157 416 OFFCURVE",
"104 418 OFFCURVE",
"78 420 QCURVE",
"76 380 OFFCURVE",
"70 303 OFFCURVE",
"65 262 QCURVE",
"96 262 OFFCURVE",
"157 261 OFFCURVE",
"188 261 QCURVE"
);
},
{
closed = 1;
nodes = (
"48 8 OFFCURVE",
"127 12 OFFCURVE",
"166 12 QCURVE",
"219 12 OFFCURVE",
"272 9 QCURVE",
"274 48 OFFCURVE",
"279 125 OFFCURVE",
"281 163 QCURVE",
"245 165 OFFCURVE",
"173 165 OFFCURVE",
"136 165 QCURVE",
"52 165 LINE",
"44 123 OFFCURVE",
"23 43 OFFCURVE",
"9 3 QCURVE"
);
}
);
};
layerId = "A5922FF3-8C0B-4EAE-8A2D-3EBDCCE80B0C";
paths = (
{
closed = 1;
nodes = (
"216 261 OFFCURVE",
"270 262 OFFCURVE",
"298 262 QCURVE",
"306 304 OFFCURVE",
"327 385 OFFCURVE",
"340 426 QCURVE",
"301 421 OFFCURVE",
"223 416 OFFCURVE",
"183 416 QCURVE",
"157 416 OFFCURVE",
"104 418 OFFCURVE",
"78 420 QCURVE",
"76 380 OFFCURVE",
"70 303 OFFCURVE",
"65 262 QCURVE",
"96 262 OFFCURVE",
"157 261 OFFCURVE",
"188 261 QCURVE"
);
},
{
closed = 1;
nodes = (
"48 8 OFFCURVE",
"127 12 OFFCURVE",
"166 12 QCURVE",
"219 12 OFFCURVE",
"272 9 QCURVE",
"274 48 OFFCURVE",
"279 125 OFFCURVE",
"281 163 QCURVE",
"245 165 OFFCURVE",
"173 165 OFFCURVE",
"136 165 QCURVE",
"52 165 LINE",
"44 123 OFFCURVE",
"23 43 OFFCURVE",
"9 3 QCURVE"
);
}
);
width = 309;
}
);
unicode = 003D;
},
{
glyphname = greater;
lastChange = "2016-07-07 11:28:23 +0000";
layers = (
{
background = {
paths = (
{
closed = 1;
nodes = (
"84 68 OFFCURVE",
"237 178 OFFCURVE",
"312 235 QCURVE",
"323 307 OFFCURVE",
"346 449 OFFCURVE",
"360 521 QCURVE",
"305 576 OFFCURVE",
"195 683 OFFCURVE",
"141 738 QCURVE",
"135 679 OFFCURVE",
"122 564 OFFCURVE",
"117 505 QCURVE",
"152 474 OFFCURVE",
"222 411 OFFCURVE",
"257 380 QCURVE",
"209 346 OFFCURVE",
"111 281 OFFCURVE",
"63 246 QCURVE",
"53 184 OFFCURVE",
"30 61 OFFCURVE",
"14 1 QCURVE"
);
}
);
};
layerId = "A5922FF3-8C0B-4EAE-8A2D-3EBDCCE80B0C";
paths = (
{
closed = 1;
nodes = (
"84 68 OFFCURVE",
"237 178 OFFCURVE",
"312 235 QCURVE",
"323 307 OFFCURVE",
"346 449 OFFCURVE",
"360 521 QCURVE",
"305 576 OFFCURVE",
"195 683 OFFCURVE",
"141 738 QCURVE",
"135 679 OFFCURVE",
"122 564 OFFCURVE",
"117 505 QCURVE",
"152 474 OFFCURVE",
"222 411 OFFCURVE",
"257 380 QCURVE",
"209 346 OFFCURVE",
"111 281 OFFCURVE",
"63 246 QCURVE",
"53 184 OFFCURVE",
"30 61 OFFCURVE",
"14 1 QCURVE"
);
}
);
width = 302;
}
);
unicode = 003E;
},
{
glyphname = question;
lastChange = "2016-07-07 11:28:23 +0000";
layers = (
{
background = {
paths = (
{
closed = 1;
nodes = (
"213 248 LINE",
"273 254 LINE",
"283 293 OFFCURVE",
"328 350 OFFCURVE",
"383 397 OFFCURVE",
"443 442 OFFCURVE",
"492 496 OFFCURVE",
"524 566 OFFCURVE",
"524 616 QCURVE",
"524 652 OFFCURVE",
"498 702 OFFCURVE",
"454 734 OFFCURVE",
"395 748 OFFCURVE",
"362 748 QCURVE",
"295 748 OFFCURVE",
"164 693 OFFCURVE",
"112 646 QCURVE",
"166 520 LINE",
"197 548 OFFCURVE",
"228 571 QCURVE",
"254 590 OFFCURVE",
"310 622 OFFCURVE",
"330 622 QCURVE",
"347 622 OFFCURVE",
"364 600 OFFCURVE",
"364 594 QCURVE",
"364 578 OFFCURVE",
"333 544 OFFCURVE",
"286 502 OFFCURVE",
"231 450 OFFCURVE",
"184 383 OFFCURVE",
"153 297 OFFCURVE",
"153 242 QCURVE"
);
},
{
closed = 1;
nodes = (
"212 -24 OFFCURVE",
"266 -3 OFFCURVE",
"303 31 OFFCURVE",
"322 72 OFFCURVE",
"322 93 QCURVE",
"322 125 OFFCURVE",
"269 174 OFFCURVE",
"213 174 QCURVE",
"185 174 OFFCURVE",
"142 154 OFFCURVE",
"113 121 OFFCURVE",
"98 81 OFFCURVE",
"98 61 QCURVE",
"98 27 OFFCURVE",
"137 -24 OFFCURVE",
"178 -24 QCURVE"
);
}
);
};
layerId = "A5922FF3-8C0B-4EAE-8A2D-3EBDCCE80B0C";
paths = (
{
closed = 1;
nodes = (
"213 248 LINE",
"273 254 LINE",
"283 293 OFFCURVE",
"328 350 OFFCURVE",
"383 397 OFFCURVE",
"443 442 OFFCURVE",
"492 496 OFFCURVE",
"524 566 OFFCURVE",
"524 616 QCURVE",
"524 652 OFFCURVE",
"498 702 OFFCURVE",
"454 734 OFFCURVE",
"395 748 OFFCURVE",
"362 748 QCURVE",
"295 748 OFFCURVE",
"164 693 OFFCURVE",
"112 646 QCURVE",
"166 520 LINE",
"197 548 OFFCURVE",
"254 590 OFFCURVE",
"310 622 OFFCURVE",
"330 622 QCURVE",
"347 622 OFFCURVE",
"364 600 OFFCURVE",
"364 594 QCURVE",
"364 578 OFFCURVE",
"333 544 OFFCURVE",
"286 502 OFFCURVE",
"231 450 OFFCURVE",
"184 383 OFFCURVE",
"153 297 OFFCURVE",
"153 242 QCURVE"
);
},
{
closed = 1;
nodes = (
"212 -24 OFFCURVE",
"266 -3 OFFCURVE",
"303 31 OFFCURVE",
"322 72 OFFCURVE",
"322 93 QCURVE",
"322 125 OFFCURVE",
"269 174 OFFCURVE",
"213 174 QCURVE",
"185 174 OFFCURVE",
"142 154 OFFCURVE",
"113 121 OFFCURVE",
"98 81 OFFCURVE",
"98 61 QCURVE",
"98 27 OFFCURVE",
"137 -24 OFFCURVE",
"178 -24 QCURVE"
);
}
);
width = 449;
}
);
unicode = 003F;
},
{
glyphname = at;
lastChange = "2016-07-07 11:28:23 +0000";
layers = (
{
background = {
paths = (
{
closed = 1;
nodes = (
"235 105 LINE",
"209 176 OFFCURVE",
"209 247 QCURVE",
"209 328 OFFCURVE",
"285 454 OFFCURVE",
"408 540 OFFCURVE",
"560 584 OFFCURVE",
"637 584 QCURVE",
"689 584 OFFCURVE",
"782 562 OFFCURVE",
"852 516 OFFCURVE",
"893 447 OFFCURVE",
"893 401 QCURVE",
"893 348 OFFCURVE",
"827 240 OFFCURVE",
"741 193 QCURVE",
"773 322 LINE",
"778 342 OFFCURVE",
"790 387 OFFCURVE",
"795 406 QCURVE",
"801 428 OFFCURVE",
"807 449 QCURVE",
"762 474 OFFCURVE",
"677 493 OFFCURVE",
"643 493 QCURVE",
"628 493 OFFCURVE",
"600 491 OFFCURVE",
"588 489 QCURVE",
"522 479 OFFCURVE",
"408 423 OFFCURVE",
"323 346 OFFCURVE",
"274 258 OFFCURVE",
"274 215 QCURVE",
"274 188 OFFCURVE",
"292 141 OFFCURVE",
"330 106 OFFCURVE",
"386 86 OFFCURVE",
"425 86 QCURVE",
"463 86 OFFCURVE",
"537 115 OFFCURVE",
"575 139 QCURVE",
"571 126 OFFCURVE",
"571 112 QCURVE",
"571 100 OFFCURVE",
"588 83 OFFCURVE",
"617 72 OFFCURVE",
"652 67 OFFCURVE",
"670 67 QCURVE",
"764 67 OFFCURVE",
"906 125 OFFCURVE",
"1000 220 OFFCURVE",
"1048 341 OFFCURVE",
"1048 404 QCURVE",
"1048 466 OFFCURVE",
"1001 586 OFFCURVE",
"908 679 OFFCURVE",
"768 736 OFFCURVE",
"674 736 QCURVE",
"602 736 OFFCURVE",
"453 706 OFFCURVE",
"313 648 OFFCURVE",
"190 562 OFFCURVE",
"99 449 OFFCURVE",
"46 310 OFFCURVE",
"46 228 QCURVE",
"46 168 OFFCURVE",
"74 42 OFFCURVE",
"104 -24 QCURVE"
);
},
{
closed = 1;
nodes = (
"460 193 OFFCURVE",
"431 223 OFFCURVE",
"431 247 QCURVE",
"431 280 OFFCURVE",
"466 337 OFFCURVE",
"521 379 OFFCURVE",
"589 403 OFFCURVE",
"622 403 QCURVE",
"630 403 OFFCURVE",
"644 401 OFFCURVE",
"652 399 QCURVE",
"596 217 LINE",
"573 206 OFFCURVE",
"524 193 OFFCURVE",
"502 193 QCURVE"
);
}
);
};
layerId = "A5922FF3-8C0B-4EAE-8A2D-3EBDCCE80B0C";
paths = (
{
closed = 1;
nodes = (
"235 105 LINE",
"209 176 OFFCURVE",
"209 247 QCURVE",
"209 328 OFFCURVE",
"285 454 OFFCURVE",
"408 540 OFFCURVE",
"560 584 OFFCURVE",
"637 584 QCURVE",
"689 584 OFFCURVE",
"782 562 OFFCURVE",
"852 516 OFFCURVE",
"893 447 OFFCURVE",
"893 401 QCURVE",
"893 348 OFFCURVE",
"827 240 OFFCURVE",
"741 193 QCURVE",
"773 322 LINE",
"778 342 OFFCURVE",
"790 387 OFFCURVE",
"795 406 QCURVE",
"801 428 OFFCURVE",
"807 449 QCURVE",
"762 474 OFFCURVE",
"677 493 OFFCURVE",
"643 493 QCURVE",
"628 493 OFFCURVE",
"600 491 OFFCURVE",
"522 479 OFFCURVE",
"408 423 OFFCURVE",
"323 346 OFFCURVE",
"274 258 OFFCURVE",
"274 215 QCURVE",
"274 188 OFFCURVE",
"292 141 OFFCURVE",
"330 106 OFFCURVE",
"386 86 OFFCURVE",
"425 86 QCURVE",
"463 86 OFFCURVE",
"537 115 OFFCURVE",
"575 139 QCURVE",
"571 126 OFFCURVE",
"571 112 QCURVE",
"571 100 OFFCURVE",
"588 83 OFFCURVE",
"617 72 OFFCURVE",
"652 67 OFFCURVE",
"670 67 QCURVE",
"764 67 OFFCURVE",
"906 125 OFFCURVE",
"1000 220 OFFCURVE",
"1048 341 OFFCURVE",
"1048 404 QCURVE",
"1048 466 OFFCURVE",
"1001 586 OFFCURVE",
"908 679 OFFCURVE",
"768 736 OFFCURVE",
"674 736 QCURVE",
"602 736 OFFCURVE",
"453 706 OFFCURVE",
"313 648 OFFCURVE",
"190 562 OFFCURVE",
"99 449 OFFCURVE",
"46 310 OFFCURVE",
"46 228 QCURVE",
"46 168 OFFCURVE",
"74 42 OFFCURVE",
"104 -24 QCURVE"
);
},
{
closed = 1;
nodes = (
"460 193 OFFCURVE",
"431 223 OFFCURVE",
"431 247 QCURVE",
"431 280 OFFCURVE",
"466 337 OFFCURVE",
"521 379 OFFCURVE",
"589 403 OFFCURVE",
"622 403 QCURVE",
"630 403 OFFCURVE",
"644 401 OFFCURVE",
"652 399 QCURVE",
"596 217 LINE",
"573 206 OFFCURVE",
"524 193 OFFCURVE",
"502 193 QCURVE"
);
}
);
width = 1011;
}
);
unicode = 0040;
},
{
glyphname = A;
lastChange = "2016-10-05 13:51:22 +0000";
layers = (
{
anchors = (
{
name = bottom;
position = "{222, 0}";
},
{
name = ogonek;
position = "{429, 10}";
},
{
name = top;
position = "{289, 738}";
}
);
background = {
anchors = (
{
name = bottom;
position = "{222, 0}";
},
{
name = ogonek;
position = "{399, 10}";
},
{
name = top;
position = "{343, 738}";
}
);
paths = (
{
closed = 1;
nodes = (
"290 6 OFFCURVE",
"351 16 OFFCURVE",
"377 20 QCURVE",
"408 24 OFFCURVE",
"438 29 QCURVE",
"444 187 OFFCURVE",
"450 329 QCURVE",
"453 389 OFFCURVE",
"459 514 OFFCURVE",
"465 629 OFFCURVE",
"472 726 OFFCURVE",
"475 759 QCURVE",
"407 746 OFFCURVE",
"262 732 OFFCURVE",
"193 727 QCURVE",
"180 681 OFFCURVE",
"147 570 OFFCURVE",
"112 451 OFFCURVE",
"76 330 OFFCURVE",
"59 274 QCURVE",
"19 142 OFFCURVE",
"-22 6 QCURVE",
"10 10 OFFCURVE",
"43 14 QCURVE",
"70 17 OFFCURVE",
"131 25 OFFCURVE",
"154 28 QCURVE",
"195 175 LINE",
"284 175 LINE",
"282 155 OFFCURVE",
"276 97 OFFCURVE",
"273 69 QCURVE",
"269 36 OFFCURVE",
"265 2 QCURVE"
);
},
{
closed = 1;
nodes = (
"283 535 LINE",
"306 623 LINE",
"322 624 LINE",
"315 535 LINE",
"309 474 OFFCURVE",
"305 422 QCURVE",
"303 400 OFFCURVE",
"299 355 OFFCURVE",
"296 317 OFFCURVE",
"293 288 OFFCURVE",
"293 282 QCURVE",
"289 281 OFFCURVE",
"268 280 OFFCURVE",
"245 279 OFFCURVE",
"223 278 OFFCURVE",
"219 277 QCURVE"
);
}
);
};
layerId = "A5922FF3-8C0B-4EAE-8A2D-3EBDCCE80B0C";
paths = (
{
closed = 1;
nodes = (
"290 6 OFFCURVE",
"351 16 OFFCURVE",
"377 20 QCURVE",
"408 24 OFFCURVE",
"438 29 QCURVE",
"444 187 OFFCURVE",
"450 329 QCURVE",
"453 389 OFFCURVE",
"459 514 OFFCURVE",
"465 629 OFFCURVE",
"472 726 OFFCURVE",
"475 759 QCURVE",
"407 746 OFFCURVE",
"262 732 OFFCURVE",
"193 727 QCURVE",
"180 681 OFFCURVE",
"147 570 OFFCURVE",
"112 451 OFFCURVE",
"76 330 OFFCURVE",
"59 274 QCURVE",
"19 142 OFFCURVE",
"-22 6 QCURVE",
"10 10 OFFCURVE",
"43 14 QCURVE",
"70 17 OFFCURVE",
"131 25 OFFCURVE",
"154 28 QCURVE",
"195 175 LINE",
"284 175 LINE",
"282 155 OFFCURVE",
"276 97 OFFCURVE",
"273 69 QCURVE",
"269 36 OFFCURVE",
"265 2 QCURVE"
);
},
{
closed = 1;
nodes = (
"283 535 LINE",
"306 623 LINE",
"322 624 LINE",
"315 535 LINE",
"309 474 OFFCURVE",
"305 422 QCURVE",
"303 400 OFFCURVE",
"299 355 OFFCURVE",
"296 317 OFFCURVE",
"293 288 OFFCURVE",
"293 282 QCURVE",
"289 281 OFFCURVE",
"268 280 OFFCURVE",
"245 279 OFFCURVE",
"223 278 OFFCURVE",
"219 277 QCURVE"
);
}
);
width = 443;
}
);
unicode = 0041;
},
{
glyphname = B;
lastChange = "2016-07-07 11:41:41 +0000";
layers = (
{
anchors = (
{
name = bottom;
position = "{219, 0}";
},
{
name = top;
position = "{353, 738}";
}
);
background = {
anchors = (
{
name = bottom;
position = "{219, 0}";
},
{
name = top;
position = "{219, 738}";
}
);
paths = (
{
closed = 1;
nodes = (
"112 -4 OFFCURVE",
"203 11 OFFCURVE",
"290 41 OFFCURVE",
"369 85 OFFCURVE",
"428 143 OFFCURVE",
"463 215 OFFCURVE",
"463 257 QCURVE",
"463 288 OFFCURVE",
"447 337 OFFCURVE",
"423 373 OFFCURVE",
"394 399 OFFCURVE",
"381 407 QCURVE",
"408 417 OFFCURVE",
"459 457 OFFCURVE",
"499 512 OFFCURVE",
"524 580 OFFCURVE",
"524 619 QCURVE",
"524 659 OFFCURVE",
"493 713 OFFCURVE",
"445 745 OFFCURVE",
"388 758 OFFCURVE",
"362 758 QCURVE",
"301 758 OFFCURVE",
"186 740 OFFCURVE",
"133 729 QCURVE",
"106 545 OFFCURVE",
"48 181 OFFCURVE",
"-1 2 QCURVE",
"32 -4 OFFCURVE",
"70 -4 QCURVE"
);
},
{
closed = 1;
nodes = (
"204 228 OFFCURVE",
"211 266 OFFCURVE",
"217 301 OFFCURVE",
"224 339 OFFCURVE",
"228 364 QCURVE",
"232 365 OFFCURVE",
"240 365 OFFCURVE",
"245 365 QCURVE",
"260 365 OFFCURVE",
"295 357 OFFCURVE",
"325 341 OFFCURVE",
"344 316 OFFCURVE",
"344 298 QCURVE",
"344 272 OFFCURVE",
"313 237 OFFCURVE",
"268 215 OFFCURVE",
"219 205 OFFCURVE",
"200 203 QCURVE"
);
},
{
closed = 1;
nodes = (
"254 503 OFFCURVE",
"261 536 OFFCURVE",
"267 569 OFFCURVE",
"272 600 OFFCURVE",
"274 611 QCURVE",
"285 611 LINE",
"297 611 OFFCURVE",
"329 606 OFFCURVE",
"358 594 OFFCURVE",
"377 574 OFFCURVE",
"377 559 QCURVE",
"377 547 OFFCURVE",
"355 526 OFFCURVE",
"319 509 OFFCURVE",
"274 495 OFFCURVE",
"252 490 QCURVE"
);
}
);
};
layerId = "A5922FF3-8C0B-4EAE-8A2D-3EBDCCE80B0C";
paths = (
{
closed = 1;
nodes = (
"112 -4 OFFCURVE",
"203 11 OFFCURVE",
"290 41 OFFCURVE",
"369 85 OFFCURVE",
"428 143 OFFCURVE",
"463 215 OFFCURVE",
"463 257 QCURVE",
"463 288 OFFCURVE",
"447 337 OFFCURVE",
"423 373 OFFCURVE",
"394 399 OFFCURVE",
"381 407 QCURVE",
"408 417 OFFCURVE",
"459 457 OFFCURVE",
"499 512 OFFCURVE",
"524 580 OFFCURVE",
"524 619 QCURVE",
"524 659 OFFCURVE",
"493 713 OFFCURVE",
"445 745 OFFCURVE",
"388 758 OFFCURVE",
"362 758 QCURVE",
"301 758 OFFCURVE",
"186 740 OFFCURVE",
"133 729 QCURVE",
"106 545 OFFCURVE",
"48 181 OFFCURVE",
"-1 2 QCURVE",
"32 -4 OFFCURVE",
"70 -4 QCURVE"
);
},
{
closed = 1;
nodes = (
"204 228 OFFCURVE",
"211 266 OFFCURVE",
"217 301 OFFCURVE",
"224 339 OFFCURVE",
"228 364 QCURVE",
"232 365 OFFCURVE",
"240 365 OFFCURVE",
"245 365 QCURVE",
"260 365 OFFCURVE",
"295 357 OFFCURVE",
"325 341 OFFCURVE",
"344 316 OFFCURVE",
"344 298 QCURVE",
"344 272 OFFCURVE",
"313 237 OFFCURVE",
"268 215 OFFCURVE",
"219 205 OFFCURVE",
"200 203 QCURVE"
);
},
{
closed = 1;
nodes = (
"254 503 OFFCURVE",
"261 536 OFFCURVE",
"267 569 OFFCURVE",
"272 600 OFFCURVE",
"274 611 QCURVE",
"285 611 LINE",
"297 611 OFFCURVE",
"329 606 OFFCURVE",
"358 594 OFFCURVE",
"377 574 OFFCURVE",
"377 559 QCURVE",
"377 547 OFFCURVE",
"355 526 OFFCURVE",
"319 509 OFFCURVE",
"274 495 OFFCURVE",
"252 490 QCURVE"
);
}
);
width = 438;
}
);
unicode = 0042;
},
{
glyphname = C;
lastChange = "2016-07-07 19:10:06 +0000";
layers = (
{
anchors = (
{
name = bottom;
position = "{212, 0}";
},
{
name = top;
position = "{401, 749}";
}
);
background = {
anchors = (
{
name = bottom;
position = "{212, 0}";
},
{
name = top;
position = "{212, 738}";
}
);
paths = (
{
closed = 1;
nodes = (
"218 -2 OFFCURVE",
"286 25 OFFCURVE",
"352 81 OFFCURVE",
"413 164 OFFCURVE",
"437 220 QCURVE",
"320 267 LINE",
"316 250 OFFCURVE",
"296 215 OFFCURVE",
"271 187 OFFCURVE",
"243 170 OFFCURVE",
"231 170 QCURVE",
"217 170 OFFCURVE",
"200 197 OFFCURVE",
"200 229 QCURVE",
"200 251 OFFCURVE",
"215 319 OFFCURVE",
"240 395 OFFCURVE",
"272 470 OFFCURVE",
"307 530 OFFCURVE",
"343 568 OFFCURVE",
"359 568 QCURVE",
"376 568 OFFCURVE",
"388 543 QCURVE",
"522 579 LINE",
"523 586 OFFCURVE",
"523 599 OFFCURVE",
"523 605 QCURVE",
"523 638 OFFCURVE",
"504 691 OFFCURVE",
"471 728 OFFCURVE",
"426 749 OFFCURVE",
"401 749 QCURVE",
"322 749 OFFCURVE",
"189 657 OFFCURVE",
"93 508 OFFCURVE",
"40 320 OFFCURVE",
"40 224 QCURVE",
"40 168 OFFCURVE",
"63 84 OFFCURVE",
"102 27 OFFCURVE",
"155 -2 OFFCURVE",
"186 -2 QCURVE"
);
}
);
};
layerId = "A5922FF3-8C0B-4EAE-8A2D-3EBDCCE80B0C";
paths = (
{
closed = 1;
nodes = (
"218 -2 OFFCURVE",
"286 25 OFFCURVE",
"352 81 OFFCURVE",
"413 164 OFFCURVE",
"437 220 QCURVE",
"320 267 LINE",
"316 250 OFFCURVE",
"296 215 OFFCURVE",
"271 187 OFFCURVE",
"243 170 OFFCURVE",
"231 170 QCURVE",
"217 170 OFFCURVE",
"200 197 OFFCURVE",
"200 229 QCURVE",
"200 251 OFFCURVE",
"215 319 OFFCURVE",
"240 395 OFFCURVE",
"272 470 OFFCURVE",
"307 530 OFFCURVE",
"343 568 OFFCURVE",
"359 568 QCURVE",
"376 568 OFFCURVE",
"388 543 QCURVE",
"522 579 LINE",
"523 586 OFFCURVE",
"523 599 OFFCURVE",
"523 605 QCURVE",
"523 638 OFFCURVE",
"504 691 OFFCURVE",
"471 728 OFFCURVE",
"426 749 OFFCURVE",
"401 749 QCURVE",
"322 749 OFFCURVE",
"189 657 OFFCURVE",
"93 508 OFFCURVE",
"40 320 OFFCURVE",
"40 224 QCURVE",
"40 168 OFFCURVE",
"63 84 OFFCURVE",
"102 27 OFFCURVE",
"155 -2 OFFCURVE",
"186 -2 QCURVE"
);
}
);
width = 424;
}
);
unicode = 0043;
},
{
glyphname = D;
lastChange = "2016-07-07 11:42:01 +0000";
layers = (
{
anchors = (
{
name = bottom;
position = "{226, 0}";
},
{
name = center;
position = "{226, 369}";
},
{
name = top;
position = "{320, 738}";
}
);
background = {
anchors = (
{
name = bottom;
position = "{226, 0}";
},
{
name = center;
position = "{226, 369}";
},
{
name = top;
position = "{226, 738}";
}
);
paths = (
{
closed = 1;
nodes = (
"130 -5 OFFCURVE",
"252 44 OFFCURVE",
"354 125 OFFCURVE",
"435 232 OFFCURVE",
"491 350 OFFCURVE",
"521 470 OFFCURVE",
"521 523 QCURVE",
"521 569 OFFCURVE",
"499 651 OFFCURVE",
"451 713 OFFCURVE",
"374 748 OFFCURVE",
"318 748 QCURVE",
"271 748 OFFCURVE",
"181 733 OFFCURVE",
"137 725 QCURVE",
"131 681 OFFCURVE",
"112 572 OFFCURVE",
"91 454 OFFCURVE",
"69 332 OFFCURVE",
"58 275 QCURVE",
"32 141 OFFCURVE",
"4 0 QCURVE",
"18 -2 OFFCURVE",
"47 -5 OFFCURVE",
"61 -5 QCURVE"
);
},
{
closed = 1;
nodes = (
"195 197 OFFCURVE",
"219 319 OFFCURVE",
"244 432 OFFCURVE",
"268 543 OFFCURVE",
"280 603 QCURVE",
"325 603 OFFCURVE",
"367 560 OFFCURVE",
"367 522 QCURVE",
"367 498 OFFCURVE",
"353 430 OFFCURVE",
"329 352 OFFCURVE",
"295 270 OFFCURVE",
"254 197 OFFCURVE",
"208 140 OFFCURVE",
"183 124 QCURVE"
);
}
);
};
layerId = "A5922FF3-8C0B-4EAE-8A2D-3EBDCCE80B0C";
paths = (
{
closed = 1;
nodes = (
"130 -5 OFFCURVE",
"252 44 OFFCURVE",
"354 125 OFFCURVE",
"435 232 OFFCURVE",
"491 350 OFFCURVE",
"521 470 OFFCURVE",
"521 523 QCURVE",
"521 569 OFFCURVE",
"499 651 OFFCURVE",
"451 713 OFFCURVE",
"374 748 OFFCURVE",
"318 748 QCURVE",
"271 748 OFFCURVE",
"181 733 OFFCURVE",
"137 725 QCURVE",
"131 681 OFFCURVE",
"112 572 OFFCURVE",
"91 454 OFFCURVE",
"69 332 OFFCURVE",
"58 275 QCURVE",
"32 141 OFFCURVE",
"4 0 QCURVE",
"18 -2 OFFCURVE",
"47 -5 OFFCURVE",
"61 -5 QCURVE"
);
},
{
closed = 1;
nodes = (
"195 197 OFFCURVE",
"219 319 OFFCURVE",
"244 432 OFFCURVE",
"268 543 OFFCURVE",
"280 603 QCURVE",
"325 603 OFFCURVE",
"367 560 OFFCURVE",
"367 522 QCURVE",
"367 498 OFFCURVE",
"353 430 OFFCURVE",
"329 352 OFFCURVE",
"295 270 OFFCURVE",
"254 197 OFFCURVE",
"208 140 OFFCURVE",
"183 124 QCURVE"
);
}
);
width = 452;
}
);
unicode = 0044;
},
{
glyphname = E;
lastChange = "2016-10-05 13:48:43 +0000";
layers = (
{
anchors = (
{
name = bottom;
position = "{175, 0}";
},
{
name = ogonek;
position = "{314, 10}";
},
{
name = top;
position = "{271, 768}";
},
{
name = topleft;
position = "{20, 738}";
}
);
background = {
anchors = (
{
name = bottom;
position = "{175, 0}";
},
{
name = ogonek;
position = "{314, 10}";
},
{
name = top;
position = "{175, 738}";
},
{
name = topleft;
position = "{20, 738}";
}
);
paths = (
{
closed = 1;
nodes = (
"339 50 LINE",
"349 167 LINE",
"200 143 LINE",
"235 332 LINE",
"266 333 OFFCURVE",
"293 334 QCURVE",
"316 335 OFFCURVE",
"362 336 OFFCURVE",
"373 337 QCURVE",
"378 366 OFFCURVE",
"385 421 OFFCURVE",
"389 450 QCURVE",
"378 449 OFFCURVE",
"331 448 OFFCURVE",
"308 447 QCURVE",
"281 446 OFFCURVE",
"249 444 QCURVE",
"285 628 LINE",
"301 628 OFFCURVE",
"345 628 OFFCURVE",
"388 629 OFFCURVE",
"426 630 OFFCURVE",
"436 631 QCURVE",
"439 647 OFFCURVE",
"449 689 OFFCURVE",
"454 709 QCURVE",
"459 732 OFFCURVE",
"466 755 QCURVE",
"142 727 LINE",
"8 -1 LINE"
);
}
);
};
layerId = "A5922FF3-8C0B-4EAE-8A2D-3EBDCCE80B0C";
paths = (
{
closed = 1;
nodes = (
"339 50 LINE",
"349 167 LINE",
"200 143 LINE",
"235 332 LINE",
"266 333 OFFCURVE",
"293 334 QCURVE",
"316 335 OFFCURVE",
"362 336 OFFCURVE",
"373 337 QCURVE",
"378 366 OFFCURVE",
"385 421 OFFCURVE",
"389 450 QCURVE",
"378 449 OFFCURVE",
"331 448 OFFCURVE",
"308 447 QCURVE",
"281 446 OFFCURVE",
"249 444 QCURVE",
"285 628 LINE",
"301 628 OFFCURVE",
"345 628 OFFCURVE",
"388 629 OFFCURVE",
"426 630 OFFCURVE",
"436 631 QCURVE",
"439 647 OFFCURVE",
"449 689 OFFCURVE",
"454 709 QCURVE",
"459 732 OFFCURVE",
"466 755 QCURVE",
"142 727 LINE",
"8 -1 LINE"
);
}
);
width = 349;
}
);
unicode = 0045;
},
{
glyphname = F;
lastChange = "2016-07-07 11:42:08 +0000";
layers = (
{
anchors = (
{
name = bottom;
position = "{175, 0}";
},
{
name = top;
position = "{333, 738}";
}
);
background = {
anchors = (
{
name = bottom;
position = "{175, 0}";
},
{
name = top;
position = "{175, 738}";
}
);
paths = (
{
closed = 1;
nodes = (
"30 5 OFFCURVE",
"97 19 OFFCURVE",
"126 25 QCURVE",
"160 32 OFFCURVE",
"195 38 QCURVE",
"242 340 LINE",
"274 339 OFFCURVE",
"303 338 QCURVE",
"327 337 OFFCURVE",
"376 336 OFFCURVE",
"389 336 QCURVE",
"393 364 OFFCURVE",
"402 419 OFFCURVE",
"406 447 QCURVE",
"392 446 OFFCURVE",
"343 446 OFFCURVE",
"319 446 QCURVE",
"291 446 OFFCURVE",
"259 445 QCURVE",
"291 628 LINE",
"452 628 LINE",
"481 754 LINE",
"138 736 LINE",
"117 591 OFFCURVE",
"95 455 QCURVE",
"85 397 OFFCURVE",
"63 273 OFFCURVE",
"40 153 OFFCURVE",
"16 43 OFFCURVE",
"4 -1 QCURVE"
);
}
);
};
layerId = "A5922FF3-8C0B-4EAE-8A2D-3EBDCCE80B0C";
paths = (
{
closed = 1;
nodes = (
"30 5 OFFCURVE",
"97 19 OFFCURVE",
"126 25 QCURVE",
"160 32 OFFCURVE",
"195 38 QCURVE",
"242 340 LINE",
"274 339 OFFCURVE",
"327 337 OFFCURVE",
"376 336 OFFCURVE",
"389 336 QCURVE",
"393 364 OFFCURVE",
"402 419 OFFCURVE",
"406 447 QCURVE",
"392 446 OFFCURVE",
"343 446 OFFCURVE",
"319 446 QCURVE",
"291 446 OFFCURVE",
"259 445 QCURVE",
"291 628 LINE",
"452 628 LINE",
"481 754 LINE",
"138 736 LINE",
"117 591 OFFCURVE",
"95 455 QCURVE",
"85 397 OFFCURVE",
"63 273 OFFCURVE",
"40 153 OFFCURVE",
"16 43 OFFCURVE",
"4 -1 QCURVE"
);
}
);
width = 349;
}
);
unicode = 0046;
},
{
glyphname = G;
lastChange = "2016-07-07 19:10:59 +0000";
layers = (
{
anchors = (
{
name = bottom;
position = "{256, 0}";
},
{
name = top;
position = "{388, 738}";
}
);
background = {
anchors = (
{
name = bottom;
position = "{256, 0}";
},
{
name = top;
position = "{256, 738}";
}
);
paths = (
{
closed = 1;
nodes = (
"277 -25 OFFCURVE",
"387 27 OFFCURVE",
"482 131 OFFCURVE",
"550 286 OFFCURVE",
"557 390 QCURVE",
"524 384 OFFCURVE",
"437 370 OFFCURVE",
"398 365 QCURVE",
"352 358 OFFCURVE",
"304 352 QCURVE",
"285 251 LINE",
"394 267 LINE",
"393 238 OFFCURVE",
"370 187 OFFCURVE",
"335 150 OFFCURVE",
"291 129 OFFCURVE",
"270 129 QCURVE",
"241 129 OFFCURVE",
"203 183 OFFCURVE",
"203 247 QCURVE",
"205 313 OFFCURVE",
"242 451 OFFCURVE",
"295 565 OFFCURVE",
"356 638 OFFCURVE",
"382 638 QCURVE",
"401 638 OFFCURVE",
"432 603 OFFCURVE",
"441 562 QCURVE",
"582 589 LINE",
"582 625 OFFCURVE",
"564 689 OFFCURVE",
"525 737 OFFCURVE",
"465 766 OFFCURVE",
"424 766 QCURVE",
"367 766 OFFCURVE",
"234 702 OFFCURVE",
"119 571 OFFCURVE",
"43 375 OFFCURVE",
"43 243 QCURVE",
"43 175 OFFCURVE",
"72 75 OFFCURVE",
"122 8 OFFCURVE",
"190 -25 OFFCURVE",
"228 -25 QCURVE"
);
}
);
};
layerId = "A5922FF3-8C0B-4EAE-8A2D-3EBDCCE80B0C";
paths = (
{
closed = 1;
nodes = (
"277 -25 OFFCURVE",
"387 27 OFFCURVE",
"482 131 OFFCURVE",
"550 286 OFFCURVE",
"557 390 QCURVE",
"524 384 OFFCURVE",
"437 370 OFFCURVE",
"398 365 QCURVE",
"352 358 OFFCURVE",
"304 352 QCURVE",
"285 251 LINE",
"394 267 LINE",
"393 238 OFFCURVE",
"370 187 OFFCURVE",
"335 150 OFFCURVE",
"291 129 OFFCURVE",
"270 129 QCURVE",
"241 129 OFFCURVE",
"203 183 OFFCURVE",
"203 247 QCURVE",
"205 313 OFFCURVE",
"242 451 OFFCURVE",
"295 565 OFFCURVE",
"356 638 OFFCURVE",
"382 638 QCURVE",
"401 638 OFFCURVE",
"432 603 OFFCURVE",
"441 562 QCURVE",
"582 589 LINE",
"582 625 OFFCURVE",
"564 689 OFFCURVE",
"525 737 OFFCURVE",
"465 766 OFFCURVE",
"424 766 QCURVE",
"367 766 OFFCURVE",
"234 702 OFFCURVE",
"119 571 OFFCURVE",
"43 375 OFFCURVE",
"43 243 QCURVE",
"43 175 OFFCURVE",
"72 75 OFFCURVE",
"122 8 OFFCURVE",
"190 -25 OFFCURVE",
"228 -25 QCURVE"
);
}
);
width = 511;
}
);
unicode = 0047;
},
{
glyphname = H;
lastChange = "2016-07-07 11:42:14 +0000";
layers = (
{
anchors = (
{
name = bottom;
position = "{227, 0}";
},
{
name = center;
position = "{227, 369}";
},
{
name = top;
position = "{357, 738}";
},
{
name = topleft;
position = "{20, 738}";
}
);
background = {
anchors = (
{
name = bottom;
position = "{227, 0}";
},
{
name = center;
position = "{227, 369}";
},
{
name = top;
position = "{227, 738}";
},
{
name = topleft;
position = "{20, 738}";
}
);
paths = (
{
closed = 1;
nodes = (
"167 31 LINE",
"178 86 OFFCURVE",
"189 141 QCURVE",
"198 187 OFFCURVE",
"217 290 OFFCURVE",
"224 329 QCURVE",
"324 338 LINE",
"317 300 OFFCURVE",
"296 194 OFFCURVE",
"286 144 QCURVE",
"275 86 OFFCURVE",
"262 25 QCURVE",
"422 43 LINE",
"441 179 OFFCURVE",
"464 309 QCURVE",
"473 364 OFFCURVE",
"496 484 OFFCURVE",
"520 602 OFFCURVE",
"546 712 OFFCURVE",
"560 758 QCURVE",
"560 758 OFFCURVE",
"526 755 OFFCURVE",
"477 751 OFFCURVE",
"420 745 OFFCURVE",
"396 741 QCURVE",
"378 669 OFFCURVE",
"355 532 OFFCURVE",
"341 460 QCURVE",
"240 448 LINE",
"254 522 OFFCURVE",
"288 678 OFFCURVE",
"305 750 QCURVE",
"139 738 LINE",
"132 691 OFFCURVE",
"114 578 OFFCURVE",
"93 457 OFFCURVE",
"71 333 OFFCURVE",
"61 275 QCURVE",
"36 139 OFFCURVE",
"9 -2 QCURVE"
);
}
);
};
layerId = "A5922FF3-8C0B-4EAE-8A2D-3EBDCCE80B0C";
paths = (
{
closed = 1;
nodes = (
"167 31 LINE",
"178 86 OFFCURVE",
"189 141 QCURVE",
"198 187 OFFCURVE",
"217 290 OFFCURVE",
"224 329 QCURVE",
"324 338 LINE",
"317 300 OFFCURVE",
"296 194 OFFCURVE",
"286 144 QCURVE",
"275 86 OFFCURVE",
"262 25 QCURVE",
"422 43 LINE",
"441 179 OFFCURVE",
"464 309 QCURVE",
"473 364 OFFCURVE",
"496 484 OFFCURVE",
"520 602 OFFCURVE",
"546 712 OFFCURVE",
"560 758 QCURVE",
"560 758 OFFCURVE",
"526 755 OFFCURVE",
"477 751 OFFCURVE",
"420 745 OFFCURVE",
"396 741 QCURVE",
"378 669 OFFCURVE",
"355 532 OFFCURVE",
"341 460 QCURVE",
"240 448 LINE",
"254 522 OFFCURVE",
"288 678 OFFCURVE",
"305 750 QCURVE",
"139 738 LINE",
"132 691 OFFCURVE",
"114 578 OFFCURVE",
"93 457 OFFCURVE",
"71 333 OFFCURVE",
"61 275 QCURVE",
"36 139 OFFCURVE",
"9 -2 QCURVE"
);
}
);
width = 453;
}
);
unicode = 0048;
},
{
glyphname = I;
lastChange = "2016-10-05 14:03:22 +0000";
layers = (
{
anchors = (
{
name = bottom;
position = "{103, 0}";
},
{
name = ogonek;
position = "{190, 10}";
},
{
name = top;
position = "{277, 738}";
},
{
name = topleft;
position = "{20, 738}";
}
);
background = {
anchors = (
{
name = bottom;
position = "{103, 0}";
},
{
name = ogonek;
position = "{184, 10}";
},
{
name = top;
position = "{271, 738}";
},
{
name = topleft;
position = "{20, 738}";
}
);
paths = (
{
closed = 1;
nodes = (
"-4 2 OFFCURVE",
"42 8 OFFCURVE",
"99 15 OFFCURVE",
"153 20 OFFCURVE",
"162 20 QCURVE",
"170 66 OFFCURVE",
"191 177 OFFCURVE",
"213 296 OFFCURVE",
"237 417 OFFCURVE",
"248 473 QCURVE",
"274 605 OFFCURVE",
"301 742 QCURVE",
"141 717 LINE",
"117 579 OFFCURVE",
"91 447 QCURVE",
"80 391 OFFCURVE",
"56 270 OFFCURVE",
"31 153 OFFCURVE",
"6 45 OFFCURVE",
"-6 1 QCURVE"
);
}
);
};
layerId = "A5922FF3-8C0B-4EAE-8A2D-3EBDCCE80B0C";
paths = (
{
closed = 1;
nodes = (
"-4 2 OFFCURVE",
"42 8 OFFCURVE",
"99 15 OFFCURVE",
"153 20 OFFCURVE",
"162 20 QCURVE",
"170 66 OFFCURVE",
"191 177 OFFCURVE",
"213 296 OFFCURVE",
"237 417 OFFCURVE",
"248 473 QCURVE",
"274 605 OFFCURVE",
"301 742 QCURVE",
"141 717 LINE",
"117 579 OFFCURVE",
"91 447 QCURVE",
"80 391 OFFCURVE",
"56 270 OFFCURVE",
"31 153 OFFCURVE",
"6 45 OFFCURVE",
"-6 1 QCURVE"
);
}
);
width = 205;
}
);
unicode = 0049;
},
{
glyphname = J;
lastChange = "2016-07-07 11:42:21 +0000";
layers = (
{
anchors = (
{
name = bottom;
position = "{143, 0}";
},
{
name = top;
position = "{329, 738}";
}
);
background = {
anchors = (
{
name = bottom;
position = "{143, 0}";
},
{
name = top;
position = "{143, 738}";
}
);
paths = (
{
closed = 1;
nodes = (
"151 -1 OFFCURVE",
"213 51 OFFCURVE",
"257 130 OFFCURVE",
"284 227 OFFCURVE",
"293 272 QCURVE",
"303 326 OFFCURVE",
"331 460 OFFCURVE",
"361 599 OFFCURVE",
"394 732 OFFCURVE",
"410 784 QCURVE",
"365 772 OFFCURVE",
"275 755 OFFCURVE",
"229 751 QCURVE",
"206 652 OFFCURVE",
"171 455 OFFCURVE",
"152 355 QCURVE",
"149 338 OFFCURVE",
"141 281 OFFCURVE",
"127 226 OFFCURVE",
"108 185 OFFCURVE",
"95 185 QCURVE",
"78 185 OFFCURVE",
"48 201 OFFCURVE",
"43 211 QCURVE",
"-28 53 LINE",
"12 24 OFFCURVE",
"79 -1 OFFCURVE",
"108 -1 QCURVE"
);
}
);
};
layerId = "A5922FF3-8C0B-4EAE-8A2D-3EBDCCE80B0C";
paths = (
{
closed = 1;
nodes = (
"151 -1 OFFCURVE",
"213 51 OFFCURVE",
"257 130 OFFCURVE",
"284 227 OFFCURVE",
"293 272 QCURVE",
"303 326 OFFCURVE",
"331 460 OFFCURVE",
"361 599 OFFCURVE",
"394 732 OFFCURVE",
"410 784 QCURVE",
"365 772 OFFCURVE",
"275 755 OFFCURVE",
"229 751 QCURVE",
"206 652 OFFCURVE",
"171 455 OFFCURVE",
"152 355 QCURVE",
"149 338 OFFCURVE",
"141 281 OFFCURVE",
"127 226 OFFCURVE",
"108 185 OFFCURVE",
"95 185 QCURVE",
"78 185 OFFCURVE",
"48 201 OFFCURVE",
"43 211 QCURVE",
"-28 53 LINE",
"12 24 OFFCURVE",
"79 -1 OFFCURVE",
"108 -1 QCURVE"
);
}
);
width = 286;
}
);
unicode = 004A;
},
{
glyphname = K;
lastChange = "2016-07-07 11:42:23 +0000";
layers = (
{
anchors = (
{
name = bottom;
position = "{237, 0}";
},
{
name = top;
position = "{369, 738}";
}
);
background = {
anchors = (
{
name = bottom;
position = "{237, 0}";
},
{
name = top;
position = "{237, 738}";
}
);
paths = (
{
closed = 1;
nodes = (
"173 24 LINE",
"183 76 OFFCURVE",
"193 125 QCURVE",
"201 167 OFFCURVE",
"218 257 OFFCURVE",
"225 288 QCURVE",
"244 309 LINE",
"253 243 OFFCURVE",
"274 96 OFFCURVE",
"284 30 QCURVE",
"313 31 OFFCURVE",
"369 32 OFFCURVE",
"398 32 QCURVE",
"422 32 OFFCURVE",
"471 31 OFFCURVE",
"495 30 QCURVE",
"463 130 OFFCURVE",
"401 323 OFFCURVE",
"379 426 QCURVE",
"392 447 OFFCURVE",
"426 499 OFFCURVE",
"465 554 OFFCURVE",
"505 611 OFFCURVE",
"524 638 QCURVE",
"569 700 OFFCURVE",
"617 765 QCURVE",
"566 757 OFFCURVE",
"464 746 OFFCURVE",
"413 742 QCURVE",
"399 721 OFFCURVE",
"360 660 OFFCURVE",
"319 595 OFFCURVE",
"282 537 OFFCURVE",
"271 520 QCURVE",
"265 519 LINE",
"275 575 OFFCURVE",
"284 621 QCURVE",
"288 640 OFFCURVE",
"295 679 OFFCURVE",
"301 711 OFFCURVE",
"305 733 OFFCURVE",
"306 737 QCURVE",
"275 737 OFFCURVE",
"245 739 QCURVE",
"219 741 OFFCURVE",
"160 744 OFFCURVE",
"136 747 QCURVE",
"132 699 OFFCURVE",
"117 584 OFFCURVE",
"97 461 OFFCURVE",
"75 336 OFFCURVE",
"64 278 QCURVE",
"38 142 OFFCURVE",
"7 -1 QCURVE"
);
}
);
};
layerId = "A5922FF3-8C0B-4EAE-8A2D-3EBDCCE80B0C";
paths = (
{
closed = 1;
nodes = (
"173 24 LINE",
"183 76 OFFCURVE",
"193 125 QCURVE",
"201 167 OFFCURVE",
"218 257 OFFCURVE",
"225 288 QCURVE",
"244 309 LINE",
"253 243 OFFCURVE",
"274 96 OFFCURVE",
"284 30 QCURVE",
"313 31 OFFCURVE",
"369 32 OFFCURVE",
"398 32 QCURVE",
"422 32 OFFCURVE",
"471 31 OFFCURVE",
"495 30 QCURVE",
"463 130 OFFCURVE",
"401 323 OFFCURVE",
"379 426 QCURVE",
"392 447 OFFCURVE",
"426 499 OFFCURVE",
"465 554 OFFCURVE",
"505 611 OFFCURVE",
"524 638 QCURVE",
"569 700 OFFCURVE",
"617 765 QCURVE",
"566 757 OFFCURVE",
"464 746 OFFCURVE",
"413 742 QCURVE",
"399 721 OFFCURVE",
"360 660 OFFCURVE",
"319 595 OFFCURVE",
"282 537 OFFCURVE",
"271 520 QCURVE",
"265 519 LINE",
"275 575 OFFCURVE",
"284 621 QCURVE",
"288 640 OFFCURVE",
"295 679 OFFCURVE",
"301 711 OFFCURVE",
"305 733 OFFCURVE",
"306 737 QCURVE",
"275 737 OFFCURVE",
"245 739 QCURVE",
"219 741 OFFCURVE",
"160 744 OFFCURVE",
"136 747 QCURVE",
"132 699 OFFCURVE",
"117 584 OFFCURVE",
"97 461 OFFCURVE",
"75 336 OFFCURVE",
"64 278 QCURVE",
"38 142 OFFCURVE",
"7 -1 QCURVE"
);
}
);
width = 473;
}
);
unicode = 004B;
},
{
glyphname = L;
lastChange = "2016-07-07 11:42:27 +0000";
layers = (
{
anchors = (
{
name = bottom;
position = "{155, 0}";
},
{
name = center;
position = "{155, 369}";
},
{
name = top;
position = "{250, 738}";
},
{
name = topright;
position = "{289, 738}";
}
);
background = {
anchors = (
{
name = bottom;
position = "{155, 0}";
},
{
name = center;
position = "{155, 369}";
},
{
name = top;
position = "{155, 738}";
},
{
name = topright;
position = "{289, 738}";
}
);
paths = (
{
closed = 1;
nodes = (
"40 7 OFFCURVE",
"109 20 OFFCURVE",
"180 29 OFFCURVE",
"251 33 OFFCURVE",
"283 33 QCURVE",
"291 33 OFFCURVE",
"306 32 OFFCURVE",
"314 32 QCURVE",
"313 36 OFFCURVE",
"310 59 OFFCURVE",
"305 90 OFFCURVE",
"301 128 OFFCURVE",
"300 147 QCURVE",
"277 147 OFFCURVE",
"219 146 OFFCURVE",
"194 144 QCURVE",
"199 180 OFFCURVE",
"215 272 OFFCURVE",
"236 371 OFFCURVE",
"258 474 OFFCURVE",
"269 522 QCURVE",
"295 635 OFFCURVE",
"323 754 QCURVE",
"143 730 LINE",
"115 591 OFFCURVE",
"89 457 QCURVE",
"78 400 OFFCURVE",
"56 277 OFFCURVE",
"35 157 OFFCURVE",
"18 44 OFFCURVE",
"12 -2 QCURVE"
);
}
);
};
layerId = "A5922FF3-8C0B-4EAE-8A2D-3EBDCCE80B0C";
paths = (
{
closed = 1;
nodes = (
"40 7 OFFCURVE",
"109 20 OFFCURVE",
"180 29 OFFCURVE",
"251 33 OFFCURVE",
"283 33 QCURVE",
"291 33 OFFCURVE",
"306 32 OFFCURVE",
"314 32 QCURVE",
"313 36 OFFCURVE",
"310 59 OFFCURVE",
"305 90 OFFCURVE",
"301 128 OFFCURVE",
"300 147 QCURVE",
"277 147 OFFCURVE",
"219 146 OFFCURVE",
"194 144 QCURVE",
"199 180 OFFCURVE",
"215 272 OFFCURVE",
"236 371 OFFCURVE",
"258 474 OFFCURVE",
"269 522 QCURVE",
"295 635 OFFCURVE",
"323 754 QCURVE",
"143 730 LINE",
"115 591 OFFCURVE",
"89 457 QCURVE",
"78 400 OFFCURVE",
"56 277 OFFCURVE",
"35 157 OFFCURVE",
"18 44 OFFCURVE",
"12 -2 QCURVE"
);
}
);
width = 309;
}
);
unicode = 004C;
},
{
glyphname = M;
lastChange = "2016-07-07 11:42:30 +0000";
layers = (
{
anchors = (
{
name = bottom;
position = "{317, 0}";
},
{
name = top;
position = "{481, 738}";
}
);
background = {
anchors = (
{
name = bottom;
position = "{317, 0}";
},
{
name = top;
position = "{317, 738}";
}
);
paths = (
{
closed = 1;
nodes = (
"138 17 LINE",
"139 20 OFFCURVE",
"154 69 OFFCURVE",
"175 143 OFFCURVE",
"200 230 OFFCURVE",
"221 311 OFFCURVE",
"238 374 OFFCURVE",
"240 387 QCURVE",
"255 387 LINE",
"222 7 LINE",
"256 9 OFFCURVE",
"307 12 OFFCURVE",
"343 13 QCURVE",
"356 56 OFFCURVE",
"391 151 OFFCURVE",
"427 249 OFFCURVE",
"462 344 OFFCURVE",
"476 387 QCURVE",
"485 387 LINE",
"480 360 OFFCURVE",
"470 286 OFFCURVE",
"461 206 OFFCURVE",
"452 126 OFFCURVE",
"446 60 OFFCURVE",
"443 15 OFFCURVE",
"443 10 QCURVE",
"622 42 LINE",
"631 163 OFFCURVE",
"643 290 QCURVE",
"648 344 OFFCURVE",
"661 465 OFFCURVE",
"676 589 OFFCURVE",
"694 714 OFFCURVE",
"704 773 QCURVE",
"677 768 OFFCURVE",
"631 761 OFFCURVE",
"586 754 OFFCURVE",
"541 748 OFFCURVE",
"515 745 QCURVE",
"505 724 OFFCURVE",
"481 668 OFFCURVE",
"456 605 OFFCURVE",
"431 540 OFFCURVE",
"419 509 QCURVE",
"392 436 OFFCURVE",
"363 358 QCURVE",
"349 358 LINE",
"361 435 OFFCURVE",
"372 507 QCURVE",
"376 538 OFFCURVE",
"386 603 OFFCURVE",
"395 665 OFFCURVE",
"402 721 OFFCURVE",
"405 743 QCURVE",
"347 738 OFFCURVE",
"247 726 OFFCURVE",
"190 726 QCURVE",
"178 679 OFFCURVE",
"146 568 OFFCURVE",
"110 450 OFFCURVE",
"73 329 OFFCURVE",
"55 273 QCURVE",
"14 142 OFFCURVE",
"-31 6 QCURVE"
);
}
);
};
layerId = "A5922FF3-8C0B-4EAE-8A2D-3EBDCCE80B0C";
paths = (
{
closed = 1;
nodes = (
"138 17 LINE",
"139 20 OFFCURVE",
"154 69 OFFCURVE",
"175 143 OFFCURVE",
"200 230 OFFCURVE",
"221 311 OFFCURVE",
"238 374 OFFCURVE",
"240 387 QCURVE",
"255 387 LINE",
"222 7 LINE",
"256 9 OFFCURVE",
"307 12 OFFCURVE",
"343 13 QCURVE",
"356 56 OFFCURVE",
"391 151 OFFCURVE",
"427 249 OFFCURVE",
"462 344 OFFCURVE",
"476 387 QCURVE",
"485 387 LINE",
"480 360 OFFCURVE",
"470 286 OFFCURVE",
"461 206 OFFCURVE",
"452 126 OFFCURVE",
"446 60 OFFCURVE",
"443 15 OFFCURVE",
"443 10 QCURVE",
"622 42 LINE",
"631 163 OFFCURVE",
"643 290 QCURVE",
"648 344 OFFCURVE",
"661 465 OFFCURVE",
"676 589 OFFCURVE",
"694 714 OFFCURVE",
"704 773 QCURVE",
"677 768 OFFCURVE",
"631 761 OFFCURVE",
"586 754 OFFCURVE",
"541 748 OFFCURVE",
"515 745 QCURVE",
"505 724 OFFCURVE",
"481 668 OFFCURVE",
"456 605 OFFCURVE",
"431 540 OFFCURVE",
"392 436 OFFCURVE",
"363 358 QCURVE",
"349 358 LINE",
"361 435 OFFCURVE",
"376 538 OFFCURVE",
"386 603 OFFCURVE",
"395 665 OFFCURVE",
"402 721 OFFCURVE",
"405 743 QCURVE",
"347 738 OFFCURVE",
"247 726 OFFCURVE",
"190 726 QCURVE",
"178 679 OFFCURVE",
"146 568 OFFCURVE",
"110 450 OFFCURVE",
"73 329 OFFCURVE",
"55 273 QCURVE",
"14 142 OFFCURVE",
"-31 6 QCURVE"
);
}
);
width = 634;
}
);
unicode = 004D;
},
{
glyphname = N;
lastChange = "2016-07-07 11:42:33 +0000";
layers = (
{
anchors = (
{
name = bottom;
position = "{232, 0}";
},
{
name = top;
position = "{384, 738}";
}
);
background = {
anchors = (
{
name = bottom;
position = "{232, 0}";
},
{
name = top;
position = "{232, 738}";
}
);
paths = (
{
closed = 1;
nodes = (
"156 30 LINE",
"171 109 OFFCURVE",
"184 181 QCURVE",
"190 212 OFFCURVE",
"201 276 OFFCURVE",
"211 337 OFFCURVE",
"221 390 OFFCURVE",
"224 409 QCURVE",
"227 390 OFFCURVE",
"235 336 OFFCURVE",
"242 274 OFFCURVE",
"250 207 OFFCURVE",
"253 175 QCURVE",
"261 100 OFFCURVE",
"268 17 QCURVE",
"282 22 OFFCURVE",
"336 35 OFFCURVE",
"390 47 OFFCURVE",
"432 56 OFFCURVE",
"435 56 QCURVE",
"439 89 OFFCURVE",
"454 184 OFFCURVE",
"474 297 OFFCURVE",
"498 418 OFFCURVE",
"510 477 QCURVE",
"537 614 OFFCURVE",
"571 768 QCURVE",
"446 753 LINE",
"430 675 OFFCURVE",
"415 603 QCURVE",
"409 572 OFFCURVE",
"395 507 OFFCURVE",
"383 444 OFFCURVE",
"373 388 OFFCURVE",
"369 367 QCURVE",
"364 388 OFFCURVE",
"353 444 OFFCURVE",
"343 506 OFFCURVE",
"332 572 OFFCURVE",
"327 603 QCURVE",
"316 675 OFFCURVE",
"303 754 QCURVE",
"282 752 OFFCURVE",
"226 749 OFFCURVE",
"200 747 QCURVE",
"170 744 OFFCURVE",
"138 742 QCURVE",
"133 695 OFFCURVE",
"116 582 OFFCURVE",
"95 460 OFFCURVE",
"72 334 OFFCURVE",
"61 276 QCURVE",
"35 139 OFFCURVE",
"6 -5 QCURVE"
);
}
);
};
layerId = "A5922FF3-8C0B-4EAE-8A2D-3EBDCCE80B0C";
paths = (
{
closed = 1;
nodes = (
"156 30 LINE",
"171 109 OFFCURVE",
"184 181 QCURVE",
"190 212 OFFCURVE",
"201 276 OFFCURVE",
"211 337 OFFCURVE",
"221 390 OFFCURVE",
"224 409 QCURVE",
"227 390 OFFCURVE",
"235 336 OFFCURVE",
"242 274 OFFCURVE",
"250 207 OFFCURVE",
"253 175 QCURVE",
"261 100 OFFCURVE",
"268 17 QCURVE",
"282 22 OFFCURVE",
"336 35 OFFCURVE",
"390 47 OFFCURVE",
"432 56 OFFCURVE",
"435 56 QCURVE",
"439 89 OFFCURVE",
"454 184 OFFCURVE",
"474 297 OFFCURVE",
"498 418 OFFCURVE",
"510 477 QCURVE",
"537 614 OFFCURVE",
"571 768 QCURVE",
"446 753 LINE",
"430 675 OFFCURVE",
"415 603 QCURVE",
"409 572 OFFCURVE",
"395 507 OFFCURVE",
"383 444 OFFCURVE",
"373 388 OFFCURVE",
"369 367 QCURVE",
"364 388 OFFCURVE",
"353 444 OFFCURVE",
"343 506 OFFCURVE",
"332 572 OFFCURVE",
"327 603 QCURVE",
"316 675 OFFCURVE",
"303 754 QCURVE",
"282 752 OFFCURVE",
"226 749 OFFCURVE",
"200 747 QCURVE",
"170 744 OFFCURVE",
"138 742 QCURVE",
"133 695 OFFCURVE",
"116 582 OFFCURVE",
"95 460 OFFCURVE",
"72 334 OFFCURVE",
"61 276 QCURVE",
"35 139 OFFCURVE",
"6 -5 QCURVE"
);
}
);
width = 464;
}
);
unicode = 004E;
},
{
glyphname = O;
lastChange = "2016-10-05 13:53:40 +0000";
layers = (
{
anchors = (
{
name = bottom;
position = "{166, 0}";
},
{
name = center;
position = "{253, 369}";
},
{
name = ogonek;
position = "{302, 10}";
},
{
name = top;
position = "{424, 768}";
},
{
name = topleft;
position = "{20, 738}";
},
{
name = topright;
position = "{503, 588}";
}
);
background = {
anchors = (
{
name = bottom;
position = "{253, 0}";
},
{
name = center;
position = "{253, 369}";
},
{
name = ogonek;
position = "{454, 10}";
},
{
name = top;
position = "{253, 738}";
},
{
name = topleft;
position = "{20, 738}";
},
{
name = topright;
position = "{485, 738}";
}
);
paths = (
{
closed = 1;
nodes = (
"225 -4 OFFCURVE",
"313 32 OFFCURVE",
"399 100 OFFCURVE",
"478 198 OFFCURVE",
"538 322 OFFCURVE",
"573 470 OFFCURVE",
"573 554 QCURVE",
"573 592 OFFCURVE",
"559 668 OFFCURVE",
"525 728 OFFCURVE",
"465 766 OFFCURVE",
"419 766 QCURVE",
"366 766 OFFCURVE",
"267 715 OFFCURVE",
"181 628 OFFCURVE",
"110 515 OFFCURVE",
"60 390 OFFCURVE",
"32 263 OFFCURVE",
"32 206 QCURVE",
"32 151 OFFCURVE",
"55 72 OFFCURVE",
"96 21 OFFCURVE",
"152 -4 OFFCURVE",
"185 -4 QCURVE"
);
},
{
closed = 1;
nodes = (
"228 165 OFFCURVE",
"207 178 OFFCURVE",
"192 197 OFFCURVE",
"184 221 OFFCURVE",
"184 232 QCURVE",
"184 257 OFFCURVE",
"195 325 OFFCURVE",
"218 395 OFFCURVE",
"251 464 OFFCURVE",
"295 518 OFFCURVE",
"350 551 OFFCURVE",
"383 551 QCURVE",
"399 551 OFFCURVE",
"419 534 OFFCURVE",
"428 509 OFFCURVE",
"431 480 OFFCURVE",
"431 468 QCURVE",
"431 425 OFFCURVE",
"406 320 OFFCURVE",
"358 228 OFFCURVE",
"287 165 OFFCURVE",
"241 165 QCURVE"
);
}
);
};
layerId = "A5922FF3-8C0B-4EAE-8A2D-3EBDCCE80B0C";
paths = (
{
closed = 1;
nodes = (
"225 -4 OFFCURVE",
"313 32 OFFCURVE",
"399 100 OFFCURVE",
"478 198 OFFCURVE",
"538 322 OFFCURVE",
"573 470 OFFCURVE",
"573 554 QCURVE",
"573 592 OFFCURVE",
"559 668 OFFCURVE",
"525 728 OFFCURVE",
"465 766 OFFCURVE",
"419 766 QCURVE",
"366 766 OFFCURVE",
"267 715 OFFCURVE",
"181 628 OFFCURVE",
"110 515 OFFCURVE",
"60 390 OFFCURVE",
"32 263 OFFCURVE",
"32 206 QCURVE",
"32 151 OFFCURVE",
"55 72 OFFCURVE",
"96 21 OFFCURVE",
"152 -4 OFFCURVE",
"185 -4 QCURVE"
);
},
{
closed = 1;
nodes = (
"228 165 OFFCURVE",
"207 178 OFFCURVE",
"192 197 OFFCURVE",
"184 221 OFFCURVE",
"184 232 QCURVE",
"184 257 OFFCURVE",
"195 325 OFFCURVE",
"218 395 OFFCURVE",
"251 464 OFFCURVE",
"295 518 OFFCURVE",
"350 551 OFFCURVE",
"383 551 QCURVE",
"399 551 OFFCURVE",
"419 534 OFFCURVE",
"428 509 OFFCURVE",
"431 480 OFFCURVE",
"431 468 QCURVE",
"431 425 OFFCURVE",
"406 320 OFFCURVE",
"358 228 OFFCURVE",
"287 165 OFFCURVE",
"241 165 QCURVE"
);
}
);
width = 505;
}
);
unicode = 004F;
},
{
glyphname = P;
lastChange = "2016-07-07 11:42:40 +0000";
layers = (
{
anchors = (
{
name = bottom;
position = "{194, 0}";
},
{
name = top;
position = "{318, 738}";
}
);
background = {
anchors = (
{
name = bottom;
position = "{194, 0}";
},
{
name = top;
position = "{194, 738}";
}
);
paths = (
{
closed = 1;
nodes = (
"174 34 LINE",
"180 75 OFFCURVE",
"187 116 QCURVE",
"193 151 OFFCURVE",
"207 232 OFFCURVE",
"215 267 QCURVE",
"226 267 LINE",
"275 267 OFFCURVE",
"367 316 OFFCURVE",
"437 399 OFFCURVE",
"479 506 OFFCURVE",
"479 563 QCURVE",
"479 603 OFFCURVE",
"463 673 OFFCURVE",
"424 725 OFFCURVE",
"361 756 OFFCURVE",
"315 756 QCURVE",
"289 756 OFFCURVE",
"228 745 OFFCURVE",
"202 739 QCURVE",
"171 732 OFFCURVE",
"141 723 QCURVE",
"134 677 OFFCURVE",
"114 566 OFFCURVE",
"91 447 OFFCURVE",
"67 325 OFFCURVE",
"55 269 QCURVE",
"28 137 OFFCURVE",
"-3 -1 QCURVE"
);
},
{
closed = 1;
nodes = (
"249 443 OFFCURVE",
"271 564 OFFCURVE",
"283 632 QCURVE",
"303 632 OFFCURVE",
"337 593 OFFCURVE",
"337 555 QCURVE",
"337 520 OFFCURVE",
"318 457 OFFCURVE",
"288 409 OFFCURVE",
"252 379 OFFCURVE",
"236 375 QCURVE"
);
}
);
};
layerId = "A5922FF3-8C0B-4EAE-8A2D-3EBDCCE80B0C";
paths = (
{
closed = 1;
nodes = (
"174 34 LINE",
"180 75 OFFCURVE",
"187 116 QCURVE",
"193 151 OFFCURVE",
"207 232 OFFCURVE",
"215 267 QCURVE",
"226 267 LINE",
"275 267 OFFCURVE",
"367 316 OFFCURVE",
"437 399 OFFCURVE",
"479 506 OFFCURVE",
"479 563 QCURVE",
"479 603 OFFCURVE",
"463 673 OFFCURVE",
"424 725 OFFCURVE",
"361 756 OFFCURVE",
"315 756 QCURVE",
"289 756 OFFCURVE",
"228 745 OFFCURVE",
"171 732 OFFCURVE",
"141 723 QCURVE",
"134 677 OFFCURVE",
"114 566 OFFCURVE",
"91 447 OFFCURVE",
"67 325 OFFCURVE",
"55 269 QCURVE",
"28 137 OFFCURVE",
"-3 -1 QCURVE"
);
},
{
closed = 1;
nodes = (
"249 443 OFFCURVE",
"271 564 OFFCURVE",
"283 632 QCURVE",
"303 632 OFFCURVE",
"337 593 OFFCURVE",
"337 555 QCURVE",
"337 520 OFFCURVE",
"318 457 OFFCURVE",
"288 409 OFFCURVE",
"252 379 OFFCURVE",
"236 375 QCURVE"
);
}
);
width = 388;
}
);
unicode = 0050;
},
{
glyphname = Q;
lastChange = "2016-07-07 11:42:43 +0000";
layers = (
{
anchors = (
{
name = bottom;
position = "{269, 0}";
},
{
name = top;
position = "{421, 738}";
}
);
background = {
anchors = (
{
name = bottom;
position = "{269, 0}";
},
{
name = top;
position = "{269, 738}";
}
);
paths = (
{
closed = 1;
nodes = (
"477 -31 OFFCURVE",
"519 21 OFFCURVE",
"538 45 QCURVE",
"560 73 OFFCURVE",
"583 102 QCURVE",
"485 217 LINE",
"524 285 OFFCURVE",
"573 454 OFFCURVE",
"573 554 QCURVE",
"573 592 OFFCURVE",
"559 668 OFFCURVE",
"525 728 OFFCURVE",
"465 766 OFFCURVE",
"419 766 QCURVE",
"366 766 OFFCURVE",
"267 715 OFFCURVE",
"181 628 OFFCURVE",
"110 515 OFFCURVE",
"60 390 OFFCURVE",
"32 263 OFFCURVE",
"32 206 QCURVE",
"32 151 OFFCURVE",
"55 72 OFFCURVE",
"96 21 OFFCURVE",
"152 -4 OFFCURVE",
"185 -4 QCURVE",
"229 -4 OFFCURVE",
"325 38 OFFCURVE",
"372 78 QCURVE",
"377 70 LINE",
"397 39 OFFCURVE",
"441 -20 OFFCURVE",
"462 -49 QCURVE"
);
},
{
closed = 1;
nodes = (
"228 165 OFFCURVE",
"207 178 OFFCURVE",
"192 197 OFFCURVE",
"184 221 OFFCURVE",
"184 232 QCURVE",
"184 257 OFFCURVE",
"195 325 OFFCURVE",
"218 395 OFFCURVE",
"251 464 OFFCURVE",
"295 518 OFFCURVE",
"350 551 OFFCURVE",
"383 551 QCURVE",
"399 551 OFFCURVE",
"419 534 OFFCURVE",
"428 509 OFFCURVE",
"431 480 OFFCURVE",
"431 468 QCURVE",
"431 434 OFFCURVE",
"415 354 OFFCURVE",
"401 316 QCURVE",
"379 342 LINE",
"377 340 OFFCURVE",
"365 330 QCURVE",
"354 322 OFFCURVE",
"308 285 OFFCURVE",
"265 252 QCURVE",
"306 184 LINE",
"276 165 OFFCURVE",
"241 165 QCURVE"
);
}
);
};
layerId = "A5922FF3-8C0B-4EAE-8A2D-3EBDCCE80B0C";
paths = (
{
closed = 1;
nodes = (
"477 -31 OFFCURVE",
"519 21 OFFCURVE",
"538 45 QCURVE",
"560 73 OFFCURVE",
"583 102 QCURVE",
"485 217 LINE",
"524 285 OFFCURVE",
"573 454 OFFCURVE",
"573 554 QCURVE",
"573 592 OFFCURVE",
"559 668 OFFCURVE",
"525 728 OFFCURVE",
"465 766 OFFCURVE",
"419 766 QCURVE",
"366 766 OFFCURVE",
"267 715 OFFCURVE",
"181 628 OFFCURVE",
"110 515 OFFCURVE",
"60 390 OFFCURVE",
"32 263 OFFCURVE",
"32 206 QCURVE",
"32 151 OFFCURVE",
"55 72 OFFCURVE",
"96 21 OFFCURVE",
"152 -4 OFFCURVE",
"185 -4 QCURVE",
"229 -4 OFFCURVE",
"325 38 OFFCURVE",
"372 78 QCURVE",
"377 70 LINE",
"397 39 OFFCURVE",
"441 -20 OFFCURVE",
"462 -49 QCURVE"
);
},
{
closed = 1;
nodes = (
"228 165 OFFCURVE",
"207 178 OFFCURVE",
"192 197 OFFCURVE",
"184 221 OFFCURVE",
"184 232 QCURVE",
"184 257 OFFCURVE",
"195 325 OFFCURVE",
"218 395 OFFCURVE",
"251 464 OFFCURVE",
"295 518 OFFCURVE",
"350 551 OFFCURVE",
"383 551 QCURVE",
"399 551 OFFCURVE",
"419 534 OFFCURVE",
"428 509 OFFCURVE",
"431 480 OFFCURVE",
"431 468 QCURVE",
"431 434 OFFCURVE",
"415 354 OFFCURVE",
"401 316 QCURVE",
"379 342 LINE",
"377 340 OFFCURVE",
"365 330 QCURVE",
"354 322 OFFCURVE",
"308 285 OFFCURVE",
"265 252 QCURVE",
"306 184 LINE",
"276 165 OFFCURVE",
"241 165 QCURVE"
);
}
);
width = 538;
}
);
unicode = 0051;
},
{
glyphname = R;
lastChange = "2016-07-07 11:42:46 +0000";
layers = (
{
anchors = (
{
name = bottom;
position = "{228, 0}";
},
{
name = top;
position = "{377, 738}";
}
);
background = {
anchors = (
{
name = bottom;
position = "{228, 0}";
},
{
name = top;
position = "{228, 738}";
}
);
paths = (
{
closed = 1;
nodes = (
"170 42 LINE",
"179 97 OFFCURVE",
"188 149 QCURVE",
"196 194 OFFCURVE",
"213 288 OFFCURVE",
"219 321 QCURVE",
"232 325 LINE",
"233 314 OFFCURVE",
"242 277 OFFCURVE",
"254 229 OFFCURVE",
"268 175 OFFCURVE",
"275 149 QCURVE",
"292 87 OFFCURVE",
"312 16 QCURVE",
"471 72 LINE",
"450 123 OFFCURVE",
"429 174 QCURVE",
"411 218 OFFCURVE",
"369 315 OFFCURVE",
"350 356 QCURVE",
"386 375 OFFCURVE",
"449 433 OFFCURVE",
"497 504 OFFCURVE",
"525 583 OFFCURVE",
"525 624 QCURVE",
"525 651 OFFCURVE",
"513 696 OFFCURVE",
"483 730 OFFCURVE",
"431 749 OFFCURVE",
"391 749 QCURVE",
"325 749 OFFCURVE",
"189 731 OFFCURVE",
"131 713 QCURVE",
"126 668 OFFCURVE",
"109 558 OFFCURVE",
"89 440 OFFCURVE",
"67 320 OFFCURVE",
"57 265 QCURVE",
"32 135 OFFCURVE",
"4 -1 QCURVE"
);
},
{
closed = 1;
nodes = (
"278 606 LINE",
"287 606 OFFCURVE",
"310 607 OFFCURVE",
"322 607 QCURVE",
"338 607 OFFCURVE",
"369 605 OFFCURVE",
"394 598 OFFCURVE",
"409 585 OFFCURVE",
"409 573 QCURVE",
"409 557 OFFCURVE",
"372 514 OFFCURVE",
"320 474 OFFCURVE",
"264 445 OFFCURVE",
"245 443 QCURVE"
);
}
);
};
layerId = "A5922FF3-8C0B-4EAE-8A2D-3EBDCCE80B0C";
paths = (
{
closed = 1;
nodes = (
"170 42 LINE",
"179 97 OFFCURVE",
"188 149 QCURVE",
"196 194 OFFCURVE",
"213 288 OFFCURVE",
"219 321 QCURVE",
"232 325 LINE",
"233 314 OFFCURVE",
"242 277 OFFCURVE",
"254 229 OFFCURVE",
"268 175 OFFCURVE",
"275 149 QCURVE",
"292 87 OFFCURVE",
"312 16 QCURVE",
"471 72 LINE",
"450 123 OFFCURVE",
"429 174 QCURVE",
"411 218 OFFCURVE",
"369 315 OFFCURVE",
"350 356 QCURVE",
"386 375 OFFCURVE",
"449 433 OFFCURVE",
"497 504 OFFCURVE",
"525 583 OFFCURVE",
"525 624 QCURVE",
"525 651 OFFCURVE",
"513 696 OFFCURVE",
"483 730 OFFCURVE",
"431 749 OFFCURVE",
"391 749 QCURVE",
"325 749 OFFCURVE",
"189 731 OFFCURVE",
"131 713 QCURVE",
"126 668 OFFCURVE",
"109 558 OFFCURVE",
"89 440 OFFCURVE",
"67 320 OFFCURVE",
"57 265 QCURVE",
"32 135 OFFCURVE",
"4 -1 QCURVE"
);
},
{
closed = 1;
nodes = (
"278 606 LINE",
"287 606 OFFCURVE",
"310 607 OFFCURVE",
"322 607 QCURVE",
"338 607 OFFCURVE",
"369 605 OFFCURVE",
"394 598 OFFCURVE",
"409 585 OFFCURVE",
"409 573 QCURVE",
"409 557 OFFCURVE",
"372 514 OFFCURVE",
"320 474 OFFCURVE",
"264 445 OFFCURVE",
"245 443 QCURVE"
);
}
);
width = 455;
}
);
unicode = 0052;
},
{
glyphname = S;
lastChange = "2016-07-07 11:42:49 +0000";
layers = (
{
anchors = (
{
name = bottom;
position = "{220, 0}";
},
{
name = top;
position = "{377, 738}";
}
);
background = {
anchors = (
{
name = bottom;
position = "{220, 0}";
},
{
name = top;
position = "{220, 738}";
}
);
paths = (
{
closed = 1;
nodes = (
"233 -2 OFFCURVE",
"335 35 OFFCURVE",
"410 102 OFFCURVE",
"454 196 OFFCURVE",
"454 253 QCURVE",
"454 307 OFFCURVE",
"426 378 OFFCURVE",
"385 425 OFFCURVE",
"337 455 OFFCURVE",
"296 483 OFFCURVE",
"268 516 OFFCURVE",
"268 541 QCURVE",
"268 556 OFFCURVE",
"285 583 OFFCURVE",
"308 602 OFFCURVE",
"332 614 OFFCURVE",
"340 614 QCURVE",
"357 614 OFFCURVE",
"379 587 OFFCURVE",
"379 556 QCURVE",
"379 548 OFFCURVE",
"376 531 OFFCURVE",
"374 523 QCURVE",
"522 566 LINE",
"524 583 OFFCURVE",
"529 611 OFFCURVE",
"529 626 QCURVE",
"529 659 OFFCURVE",
"508 705 OFFCURVE",
"472 734 OFFCURVE",
"423 748 OFFCURVE",
"395 748 QCURVE",
"345 748 OFFCURVE",
"232 709 OFFCURVE",
"137 642 OFFCURVE",
"74 550 OFFCURVE",
"74 497 QCURVE",
"74 464 OFFCURVE",
"106 411 OFFCURVE",
"153 368 OFFCURVE",
"208 329 OFFCURVE",
"255 291 OFFCURVE",
"287 249 OFFCURVE",
"287 224 QCURVE",
"287 210 OFFCURVE",
"273 188 OFFCURVE",
"251 172 OFFCURVE",
"224 164 OFFCURVE",
"212 164 QCURVE",
"198 164 OFFCURVE",
"162 177 OFFCURVE",
"126 198 OFFCURVE",
"97 225 OFFCURVE",
"90 239 QCURVE",
"14 90 LINE",
"52 42 OFFCURVE",
"134 -2 OFFCURVE",
"175 -2 QCURVE"
);
}
);
};
layerId = "A5922FF3-8C0B-4EAE-8A2D-3EBDCCE80B0C";
paths = (
{
closed = 1;
nodes = (
"233 -2 OFFCURVE",
"335 35 OFFCURVE",
"410 102 OFFCURVE",
"454 196 OFFCURVE",
"454 253 QCURVE",
"454 307 OFFCURVE",
"426 378 OFFCURVE",
"385 425 OFFCURVE",
"337 455 OFFCURVE",
"296 483 OFFCURVE",
"268 516 OFFCURVE",
"268 541 QCURVE",
"268 556 OFFCURVE",
"285 583 OFFCURVE",
"308 602 OFFCURVE",
"332 614 OFFCURVE",
"340 614 QCURVE",
"357 614 OFFCURVE",
"379 587 OFFCURVE",
"379 556 QCURVE",
"379 548 OFFCURVE",
"376 531 OFFCURVE",
"374 523 QCURVE",
"522 566 LINE",
"524 583 OFFCURVE",
"529 611 OFFCURVE",
"529 626 QCURVE",
"529 659 OFFCURVE",
"508 705 OFFCURVE",
"472 734 OFFCURVE",
"423 748 OFFCURVE",
"395 748 QCURVE",
"345 748 OFFCURVE",
"232 709 OFFCURVE",
"137 642 OFFCURVE",
"74 550 OFFCURVE",
"74 497 QCURVE",
"74 464 OFFCURVE",
"106 411 OFFCURVE",
"153 368 OFFCURVE",
"208 329 OFFCURVE",
"255 291 OFFCURVE",
"287 249 OFFCURVE",
"287 224 QCURVE",
"287 210 OFFCURVE",
"273 188 OFFCURVE",
"251 172 OFFCURVE",
"224 164 OFFCURVE",
"212 164 QCURVE",
"198 164 OFFCURVE",
"162 177 OFFCURVE",
"126 198 OFFCURVE",
"97 225 OFFCURVE",
"90 239 QCURVE",
"14 90 LINE",
"52 42 OFFCURVE",
"134 -2 OFFCURVE",
"175 -2 QCURVE"
);
}
);
width = 440;
}
);
unicode = 0053;
},
{
glyphname = T;
lastChange = "2016-07-07 11:42:52 +0000";
layers = (
{
anchors = (
{
name = bottom;
position = "{186, 0}";
},
{
name = center;
position = "{186, 369}";
},
{
name = top;
position = "{330, 738}";
}
);
background = {
anchors = (
{
name = bottom;
position = "{186, 0}";
},
{
name = center;
position = "{186, 369}";
},
{
name = top;
position = "{186, 738}";
}
);
paths = (
{
closed = 1;
nodes = (
"276 28 LINE",
"291 136 OFFCURVE",
"307 238 QCURVE",
"314 281 OFFCURVE",
"329 375 OFFCURVE",
"344 466 OFFCURVE",
"360 551 OFFCURVE",
"368 586 QCURVE",
"390 590 OFFCURVE",
"436 595 OFFCURVE",
"459 601 QCURVE",
"463 619 OFFCURVE",
"472 668 OFFCURVE",
"477 691 QCURVE",
"488 746 LINE",
"449 741 OFFCURVE",
"404 737 QCURVE",
"366 734 OFFCURVE",
"268 729 OFFCURVE",
"216 729 QCURVE",
"189 729 OFFCURVE",
"136 731 OFFCURVE",
"110 733 QCURVE",
"109 707 OFFCURVE",
"108 683 QCURVE",
"107 662 OFFCURVE",
"106 618 OFFCURVE",
"105 602 QCURVE",
"129 595 OFFCURVE",
"177 597 OFFCURVE",
"201 594 QCURVE",
"196 556 OFFCURVE",
"182 465 OFFCURVE",
"165 368 OFFCURVE",
"146 267 OFFCURVE",
"137 221 QCURVE",
"116 112 OFFCURVE",
"92 -1 QCURVE"
);
}
);
};
layerId = "A5922FF3-8C0B-4EAE-8A2D-3EBDCCE80B0C";
paths = (
{
closed = 1;
nodes = (
"276 28 LINE",
"291 136 OFFCURVE",
"307 238 QCURVE",
"314 281 OFFCURVE",
"329 375 OFFCURVE",
"344 466 OFFCURVE",
"360 551 OFFCURVE",
"368 586 QCURVE",
"390 590 OFFCURVE",
"436 595 OFFCURVE",
"459 601 QCURVE",
"463 619 OFFCURVE",
"472 668 OFFCURVE",
"477 691 QCURVE",
"488 746 LINE",
"449 741 OFFCURVE",
"366 734 OFFCURVE",
"268 729 OFFCURVE",
"216 729 QCURVE",
"189 729 OFFCURVE",
"136 731 OFFCURVE",
"110 733 QCURVE",
"109 707 OFFCURVE",
"108 683 QCURVE",
"107 662 OFFCURVE",
"106 618 OFFCURVE",
"105 602 QCURVE",
"129 595 OFFCURVE",
"177 597 OFFCURVE",
"201 594 QCURVE",
"196 556 OFFCURVE",
"182 465 OFFCURVE",
"165 368 OFFCURVE",
"146 267 OFFCURVE",
"137 221 QCURVE",
"116 112 OFFCURVE",
"92 -1 QCURVE"
);
}
);
width = 371;
}
);
unicode = 0054;
},
{
glyphname = U;
lastChange = "2016-10-05 14:03:34 +0000";
layers = (
{
anchors = (
{
name = bottom;
position = "{215, 0}";
},
{
name = ogonek;
position = "{386, 10}";
},
{
name = top;
position = "{386, 748}";
},
{
name = topright;
position = "{474, 697}";
}
);
background = {
anchors = (
{
name = bottom;
position = "{215, 0}";
},
{
name = ogonek;
position = "{386, 10}";
},
{
name = top;
position = "{215, 738}";
},
{
name = topright;
position = "{409, 738}";
}
);
paths = (
{
closed = 1;
nodes = (
"209 -18 OFFCURVE",
"289 6 OFFCURVE",
"359 59 OFFCURVE",
"412 141 OFFCURVE",
"426 200 QCURVE",
"437 249 OFFCURVE",
"461 367 OFFCURVE",
"485 488 OFFCURVE",
"505 601 OFFCURVE",
"521 689 OFFCURVE",
"531 742 OFFCURVE",
"531 742 QCURVE",
"376 732 LINE",
"359 636 OFFCURVE",
"342 546 QCURVE",
"335 507 OFFCURVE",
"319 425 OFFCURVE",
"304 346 OFFCURVE",
"289 273 OFFCURVE",
"283 244 QCURVE",
"280 232 OFFCURVE",
"272 192 OFFCURVE",
"257 154 OFFCURVE",
"234 126 OFFCURVE",
"217 126 QCURVE",
"205 126 OFFCURVE",
"188 147 OFFCURVE",
"188 164 QCURVE",
"188 184 OFFCURVE",
"198 234 OFFCURVE",
"203 258 QCURVE",
"205 267 OFFCURVE",
"216 319 OFFCURVE",
"231 391 OFFCURVE",
"249 477 OFFCURVE",
"258 520 QCURVE",
"279 621 OFFCURVE",
"305 744 QCURVE",
"274 741 OFFCURVE",
"243 738 QCURVE",
"217 736 OFFCURVE",
"158 730 OFFCURVE",
"136 728 QCURVE",
"134 720 OFFCURVE",
"120 649 OFFCURVE",
"100 543 OFFCURVE",
"76 413 OFFCURVE",
"55 284 OFFCURVE",
"37 165 OFFCURVE",
"33 123 QCURVE",
"32 119 OFFCURVE",
"32 111 OFFCURVE",
"32 107 QCURVE",
"32 75 OFFCURVE",
"57 28 OFFCURVE",
"96 -3 OFFCURVE",
"145 -18 OFFCURVE",
"169 -18 QCURVE"
);
}
);
};
layerId = "A5922FF3-8C0B-4EAE-8A2D-3EBDCCE80B0C";
paths = (
{
closed = 1;
nodes = (
"209 -18 OFFCURVE",
"289 6 OFFCURVE",
"359 59 OFFCURVE",
"412 141 OFFCURVE",
"426 200 QCURVE",
"437 249 OFFCURVE",
"461 367 OFFCURVE",
"485 488 OFFCURVE",
"505 601 OFFCURVE",
"521 689 OFFCURVE",
"531 742 OFFCURVE",
"531 742 QCURVE",
"376 732 LINE",
"359 636 OFFCURVE",
"342 546 QCURVE",
"335 507 OFFCURVE",
"319 425 OFFCURVE",
"304 346 OFFCURVE",
"289 273 OFFCURVE",
"283 244 QCURVE",
"280 232 OFFCURVE",
"272 192 OFFCURVE",
"257 154 OFFCURVE",
"234 126 OFFCURVE",
"217 126 QCURVE",
"205 126 OFFCURVE",
"188 147 OFFCURVE",
"188 164 QCURVE",
"188 184 OFFCURVE",
"198 234 OFFCURVE",
"205 267 OFFCURVE",
"216 319 OFFCURVE",
"231 391 OFFCURVE",
"249 477 OFFCURVE",
"258 520 QCURVE",
"279 621 OFFCURVE",
"305 744 QCURVE",
"274 741 OFFCURVE",
"243 738 QCURVE",
"217 736 OFFCURVE",
"158 730 OFFCURVE",
"136 728 QCURVE",
"134 720 OFFCURVE",
"120 649 OFFCURVE",
"100 543 OFFCURVE",
"76 413 OFFCURVE",
"55 284 OFFCURVE",
"37 165 OFFCURVE",
"33 123 QCURVE",
"32 119 OFFCURVE",
"32 111 OFFCURVE",
"32 107 QCURVE",
"32 75 OFFCURVE",
"57 28 OFFCURVE",
"96 -3 OFFCURVE",
"145 -18 OFFCURVE",
"169 -18 QCURVE"
);
}
);
width = 429;
}
);
unicode = 0055;
},
{
glyphname = V;
lastChange = "2016-07-07 11:42:57 +0000";
layers = (
{
anchors = (
{
name = bottom;
position = "{194, 0}";
},
{
name = top;
position = "{322, 738}";
}
);
background = {
anchors = (
{
name = bottom;
position = "{194, 0}";
},
{
name = top;
position = "{194, 738}";
}
);
paths = (
{
closed = 1;
nodes = (
"326 31 LINE",
"358 170 OFFCURVE",
"391 302 QCURVE",
"405 358 OFFCURVE",
"435 479 OFFCURVE",
"467 596 OFFCURVE",
"497 705 OFFCURVE",
"511 750 QCURVE",
"487 747 OFFCURVE",
"431 744 OFFCURVE",
"406 742 QCURVE",
"377 740 OFFCURVE",
"349 739 QCURVE",
"235 195 LINE",
"216 195 LINE",
"219 221 OFFCURVE",
"227 297 OFFCURVE",
"235 385 OFFCURVE",
"244 480 OFFCURVE",
"249 526 QCURVE",
"260 633 OFFCURVE",
"271 752 QCURVE",
"271 752 OFFCURVE",
"239 749 OFFCURVE",
"192 746 OFFCURVE",
"136 744 OFFCURVE",
"112 744 QCURVE",
"111 696 OFFCURVE",
"106 581 OFFCURVE",
"99 457 OFFCURVE",
"90 330 OFFCURVE",
"85 272 QCURVE",
"74 134 OFFCURVE",
"60 -9 QCURVE"
);
}
);
};
layerId = "A5922FF3-8C0B-4EAE-8A2D-3EBDCCE80B0C";
paths = (
{
closed = 1;
nodes = (
"326 31 LINE",
"358 170 OFFCURVE",
"391 302 QCURVE",
"405 358 OFFCURVE",
"435 479 OFFCURVE",
"467 596 OFFCURVE",
"497 705 OFFCURVE",
"511 750 QCURVE",
"487 747 OFFCURVE",
"431 744 OFFCURVE",
"406 742 QCURVE",
"377 740 OFFCURVE",
"349 739 QCURVE",
"235 195 LINE",
"216 195 LINE",
"219 221 OFFCURVE",
"227 297 OFFCURVE",
"235 385 OFFCURVE",
"244 480 OFFCURVE",
"260 633 OFFCURVE",
"271 752 QCURVE",
"271 752 OFFCURVE",
"239 749 OFFCURVE",
"192 746 OFFCURVE",
"136 744 OFFCURVE",
"112 744 QCURVE",
"111 696 OFFCURVE",
"106 581 OFFCURVE",
"99 457 OFFCURVE",
"90 330 OFFCURVE",
"85 272 QCURVE",
"74 134 OFFCURVE",
"60 -9 QCURVE"
);
}
);
width = 388;
}
);
unicode = 0056;
},
{
glyphname = W;
lastChange = "2016-07-07 11:43:07 +0000";
layers = (
{
anchors = (
{
name = bottom;
position = "{308, 0}";
},
{
name = top;
position = "{481, 742}";
}
);
background = {
anchors = (
{
name = bottom;
position = "{308, 0}";
},
{
name = top;
position = "{308, 738}";
}
);
paths = (
{
closed = 1;
nodes = (
"255 34 LINE",
"356 405 LINE",
"369 405 LINE",
"324 10 LINE",
"555 49 LINE",
"586 187 OFFCURVE",
"619 318 QCURVE",
"633 374 OFFCURVE",
"663 493 OFFCURVE",
"695 609 OFFCURVE",
"726 715 OFFCURVE",
"741 758 QCURVE",
"717 753 OFFCURVE",
"653 744 OFFCURVE",
"624 740 QCURVE",
"590 736 OFFCURVE",
"555 731 QCURVE",
"458 291 LINE",
"439 291 LINE",
"442 320 OFFCURVE",
"450 404 OFFCURVE",
"458 498 OFFCURVE",
"466 595 OFFCURVE",
"474 676 OFFCURVE",
"479 733 OFFCURVE",
"481 742 QCURVE",
"463 738 OFFCURVE",
"445 735 QCURVE",
"429 733 OFFCURVE",
"391 729 OFFCURVE",
"373 729 QCURVE",
"364 729 LINE",
"358 709 OFFCURVE",
"341 649 OFFCURVE",
"322 580 OFFCURVE",
"300 505 OFFCURVE",
"290 469 QCURVE",
"265 385 OFFCURVE",
"239 291 QCURVE",
"223 291 LINE",
"243 416 OFFCURVE",
"259 515 QCURVE",
"266 557 OFFCURVE",
"279 638 OFFCURVE",
"289 702 OFFCURVE",
"295 742 OFFCURVE",
"295 743 QCURVE",
"253 740 OFFCURVE",
"168 725 OFFCURVE",
"120 723 QCURVE",
"42 -4 LINE"
);
}
);
};
layerId = "A5922FF3-8C0B-4EAE-8A2D-3EBDCCE80B0C";
paths = (
{
closed = 1;
nodes = (
"255 34 LINE",
"356 405 LINE",
"369 405 LINE",
"324 10 LINE",
"555 49 LINE",
"586 187 OFFCURVE",
"619 318 QCURVE",
"633 374 OFFCURVE",
"663 493 OFFCURVE",
"695 609 OFFCURVE",
"726 715 OFFCURVE",
"741 758 QCURVE",
"717 753 OFFCURVE",
"653 744 OFFCURVE",
"624 740 QCURVE",
"590 736 OFFCURVE",
"555 731 QCURVE",
"458 291 LINE",
"439 291 LINE",
"442 320 OFFCURVE",
"450 404 OFFCURVE",
"458 498 OFFCURVE",
"466 595 OFFCURVE",
"474 676 OFFCURVE",
"479 733 OFFCURVE",
"481 742 QCURVE",
"463 738 OFFCURVE",
"429 733 OFFCURVE",
"391 729 OFFCURVE",
"373 729 QCURVE",
"364 729 LINE",
"358 709 OFFCURVE",
"341 649 OFFCURVE",
"322 580 OFFCURVE",
"300 505 OFFCURVE",
"265 385 OFFCURVE",
"239 291 QCURVE",
"223 291 LINE",
"243 416 OFFCURVE",
"266 557 OFFCURVE",
"279 638 OFFCURVE",
"289 702 OFFCURVE",
"295 742 OFFCURVE",
"295 743 QCURVE",
"253 740 OFFCURVE",
"168 725 OFFCURVE",
"120 723 QCURVE",
"42 -4 LINE"
);
}
);
width = 615;
}
);
unicode = 0057;
},
{
glyphname = X;
lastChange = "2016-07-07 11:43:09 +0000";
layers = (
{
anchors = (
{
name = bottom;
position = "{211, 0}";
},
{
name = top;
position = "{340, 738}";
}
);
background = {
anchors = (
{
name = bottom;
position = "{211, 0}";
},
{
name = top;
position = "{211, 738}";
}
);
paths = (
{
closed = 1;
nodes = (
"250 -6 OFFCURVE",
"287 5 OFFCURVE",
"329 17 OFFCURVE",
"373 30 OFFCURVE",
"410 40 OFFCURVE",
"434 46 OFFCURVE",
"436 47 QCURVE",
"425 91 OFFCURVE",
"405 170 OFFCURVE",
"386 248 OFFCURVE",
"370 328 OFFCURVE",
"364 373 QCURVE",
"386 421 OFFCURVE",
"425 500 OFFCURVE",
"464 575 OFFCURVE",
"507 651 OFFCURVE",
"534 696 QCURVE",
"385 736 LINE",
"360 686 OFFCURVE",
"314 584 OFFCURVE",
"291 532 QCURVE",
"286 582 OFFCURVE",
"272 698 OFFCURVE",
"267 747 QCURVE",
"103 679 LINE",
"112 634 OFFCURVE",
"128 563 OFFCURVE",
"142 494 OFFCURVE",
"154 422 OFFCURVE",
"160 376 QCURVE",
"117 279 OFFCURVE",
"14 100 OFFCURVE",
"-37 9 QCURVE",
"137 -6 LINE",
"156 33 OFFCURVE",
"173 71 QCURVE",
"187 103 OFFCURVE",
"217 171 OFFCURVE",
"226 194 QCURVE",
"227 171 OFFCURVE",
"232 103 OFFCURVE",
"234 70 QCURVE",
"237 31 OFFCURVE",
"240 -10 QCURVE"
);
}
);
};
layerId = "A5922FF3-8C0B-4EAE-8A2D-3EBDCCE80B0C";
paths = (
{
closed = 1;
nodes = (
"250 -6 OFFCURVE",
"287 5 OFFCURVE",
"329 17 OFFCURVE",
"373 30 OFFCURVE",
"410 40 OFFCURVE",
"434 46 OFFCURVE",
"436 47 QCURVE",
"425 91 OFFCURVE",
"405 170 OFFCURVE",
"386 248 OFFCURVE",
"370 328 OFFCURVE",
"364 373 QCURVE",
"386 421 OFFCURVE",
"425 500 OFFCURVE",
"464 575 OFFCURVE",
"507 651 OFFCURVE",
"534 696 QCURVE",
"385 736 LINE",
"360 686 OFFCURVE",
"314 584 OFFCURVE",
"291 532 QCURVE",
"286 582 OFFCURVE",
"272 698 OFFCURVE",
"267 747 QCURVE",
"103 679 LINE",
"112 634 OFFCURVE",
"128 563 OFFCURVE",
"142 494 OFFCURVE",
"154 422 OFFCURVE",
"160 376 QCURVE",
"117 279 OFFCURVE",
"14 100 OFFCURVE",
"-37 9 QCURVE",
"137 -6 LINE",
"156 33 OFFCURVE",
"173 71 QCURVE",
"187 103 OFFCURVE",
"217 171 OFFCURVE",
"226 194 QCURVE",
"227 171 OFFCURVE",
"232 103 OFFCURVE",
"234 70 QCURVE",
"237 31 OFFCURVE",
"240 -10 QCURVE"
);
}
);
width = 421;
}
);
unicode = 0058;
},
{
glyphname = Y;
lastChange = "2016-07-07 11:43:11 +0000";
layers = (
{
anchors = (
{
name = bottom;
position = "{197, 0}";
},
{
name = top;
position = "{358, 738}";
},
{
name = topleft;
position = "{20, 738}";
}
);
background = {
anchors = (
{
name = bottom;
position = "{197, 0}";
},
{
name = top;
position = "{197, 738}";
},
{
name = topleft;
position = "{20, 738}";
}
);
paths = (
{
closed = 1;
nodes = (
"254 37 LINE",
"264 71 OFFCURVE",
"273 104 QCURVE",
"281 133 OFFCURVE",
"296 197 OFFCURVE",
"301 223 QCURVE",
"316 256 OFFCURVE",
"353 332 OFFCURVE",
"392 413 OFFCURVE",
"431 494 OFFCURVE",
"449 531 QCURVE",
"491 618 OFFCURVE",
"535 707 QCURVE",
"376 742 LINE",
"355 680 OFFCURVE",
"336 624 QCURVE",
"319 575 OFFCURVE",
"282 473 OFFCURVE",
"268 438 QCURVE",
"268 454 OFFCURVE",
"268 499 OFFCURVE",
"269 550 OFFCURVE",
"269 603 OFFCURVE",
"269 629 QCURVE",
"269 754 LINE",
"102 690 LINE",
"102 690 OFFCURVE",
"106 645 OFFCURVE",
"111 570 OFFCURVE",
"117 473 OFFCURVE",
"123 369 OFFCURVE",
"126 265 OFFCURVE",
"126 221 QCURVE",
"79 15 LINE"
);
}
);
};
layerId = "A5922FF3-8C0B-4EAE-8A2D-3EBDCCE80B0C";
paths = (
{
closed = 1;
nodes = (
"254 37 LINE",
"264 71 OFFCURVE",
"273 104 QCURVE",
"281 133 OFFCURVE",
"296 197 OFFCURVE",
"301 223 QCURVE",
"316 256 OFFCURVE",
"353 332 OFFCURVE",
"392 413 OFFCURVE",
"431 494 OFFCURVE",
"449 531 QCURVE",
"491 618 OFFCURVE",
"535 707 QCURVE",
"376 742 LINE",
"355 680 OFFCURVE",
"336 624 QCURVE",
"319 575 OFFCURVE",
"282 473 OFFCURVE",
"268 438 QCURVE",
"268 454 OFFCURVE",
"268 499 OFFCURVE",
"269 550 OFFCURVE",
"269 603 OFFCURVE",
"269 629 QCURVE",
"269 754 LINE",
"102 690 LINE",
"102 690 OFFCURVE",
"106 645 OFFCURVE",
"111 570 OFFCURVE",
"117 473 OFFCURVE",
"123 369 OFFCURVE",
"126 265 OFFCURVE",
"126 221 QCURVE",
"79 15 LINE"
);
}
);
width = 393;
}
);
unicode = 0059;
},
{
glyphname = Z;
lastChange = "2016-07-07 11:43:14 +0000";
layers = (
{
anchors = (
{
name = bottom;
position = "{221, 0}";
},
{
name = top;
position = "{392, 738}";
}
);
background = {
anchors = (
{
name = bottom;
position = "{221, 0}";
},
{
name = top;
position = "{221, 738}";
}
);
paths = (
{
closed = 1;
nodes = (
"31 13 OFFCURVE",
"108 22 OFFCURVE",
"198 29 OFFCURVE",
"292 35 OFFCURVE",
"373 39 OFFCURVE",
"432 41 OFFCURVE",
"441 41 QCURVE",
"444 197 LINE",
"401 194 OFFCURVE",
"362 191 QCURVE",
"328 189 OFFCURVE",
"259 185 OFFCURVE",
"239 185 QCURVE",
"518 583 LINE",
"545 724 LINE",
"126 694 LINE",
"107 533 LINE",
"131 536 LINE",
"155 540 OFFCURVE",
"219 548 OFFCURVE",
"283 555 OFFCURVE",
"300 555 QCURVE",
"9 159 LINE",
"8 9 LINE"
);
}
);
};
layerId = "A5922FF3-8C0B-4EAE-8A2D-3EBDCCE80B0C";
paths = (
{
closed = 1;
nodes = (
"31 13 OFFCURVE",
"108 22 OFFCURVE",
"198 29 OFFCURVE",
"292 35 OFFCURVE",
"373 39 OFFCURVE",
"432 41 OFFCURVE",
"441 41 QCURVE",
"444 197 LINE",
"401 194 OFFCURVE",
"328 189 OFFCURVE",
"259 185 OFFCURVE",
"239 185 QCURVE",
"518 583 LINE",
"545 724 LINE",
"126 694 LINE",
"107 533 LINE",
"131 536 LINE",
"155 540 OFFCURVE",
"219 548 OFFCURVE",
"283 555 OFFCURVE",
"300 555 QCURVE",
"9 159 LINE",
"8 9 LINE"
);
}
);
width = 441;
}
);
unicode = 005A;
},
{
glyphname = bracketleft;
lastChange = "2016-07-07 11:28:23 +0000";
layers = (
{
background = {
paths = (
{
closed = 1;
nodes = (
"100 4 OFFCURVE",
"243 18 OFFCURVE",
"303 26 QCURVE",
"329 133 LINE",
"329 132 OFFCURVE",
"307 127 OFFCURVE",
"275 122 OFFCURVE",
"240 118 OFFCURVE",
"227 118 QCURVE",
"237 180 OFFCURVE",
"254 277 OFFCURVE",
"268 359 OFFCURVE",
"282 434 OFFCURVE",
"297 516 OFFCURVE",
"315 612 OFFCURVE",
"327 674 QCURVE",
"383 674 LINE",
"397 674 OFFCURVE",
"423 674 OFFCURVE",
"436 675 QCURVE",
"442 705 OFFCURVE",
"458 766 OFFCURVE",
"465 796 QCURVE",
"436 789 OFFCURVE",
"366 781 OFFCURVE",
"335 779 QCURVE",
"299 776 OFFCURVE",
"262 775 QCURVE",
"246 774 OFFCURVE",
"231 773 QCURVE",
"218 772 OFFCURVE",
"192 771 OFFCURVE",
"183 771 QCURVE",
"177 771 LINE",
"166 710 OFFCURVE",
"142 579 OFFCURVE",
"117 448 OFFCURVE",
"91 320 OFFCURVE",
"79 262 QCURVE",
"51 126 OFFCURVE",
"22 -5 QCURVE"
);
}
);
};
layerId = "A5922FF3-8C0B-4EAE-8A2D-3EBDCCE80B0C";
paths = (
{
closed = 1;
nodes = (
"100 4 OFFCURVE",
"243 18 OFFCURVE",
"303 26 QCURVE",
"329 133 LINE",
"329 132 OFFCURVE",
"307 127 OFFCURVE",
"275 122 OFFCURVE",
"240 118 OFFCURVE",
"227 118 QCURVE",
"237 180 OFFCURVE",
"254 277 OFFCURVE",
"268 359 OFFCURVE",
"282 434 OFFCURVE",
"297 516 OFFCURVE",
"315 612 OFFCURVE",
"327 674 QCURVE",
"383 674 LINE",
"397 674 OFFCURVE",
"423 674 OFFCURVE",
"436 675 QCURVE",
"442 705 OFFCURVE",
"458 766 OFFCURVE",
"465 796 QCURVE",
"436 789 OFFCURVE",
"366 781 OFFCURVE",
"335 779 QCURVE",
"299 776 OFFCURVE",
"262 775 QCURVE",
"246 774 OFFCURVE",
"218 772 OFFCURVE",
"192 771 OFFCURVE",
"183 771 QCURVE",
"177 771 LINE",
"166 710 OFFCURVE",
"142 579 OFFCURVE",
"117 448 OFFCURVE",
"91 320 OFFCURVE",
"79 262 QCURVE",
"51 126 OFFCURVE",
"22 -5 QCURVE"
);
}
);
width = 327;
}
);
unicode = 005B;
},
{
glyphname = backslash;
lastChange = "2016-07-07 11:28:23 +0000";
layers = (
{
background = {
paths = (
{
closed = 1;
nodes = (
"342 3 OFFCURVE",
"365 8 OFFCURVE",
"375 10 QCURVE",
"386 12 OFFCURVE",
"397 14 QCURVE",
"420 17 OFFCURVE",
"440 21 QCURVE",
"457 24 OFFCURVE",
"490 31 OFFCURVE",
"497 33 QCURVE",
"486 65 OFFCURVE",
"457 166 OFFCURVE",
"423 290 OFFCURVE",
"385 430 OFFCURVE",
"347 573 OFFCURVE",
"309 712 OFFCURVE",
"292 772 QCURVE",
"278 766 OFFCURVE",
"233 756 OFFCURVE",
"212 752 QCURVE",
"187 748 OFFCURVE",
"160 743 QCURVE",
"153 742 OFFCURVE",
"147 741 QCURVE",
"142 740 OFFCURVE",
"133 739 OFFCURVE",
"131 739 QCURVE",
"130 739 LINE",
"157 638 OFFCURVE",
"209 450 OFFCURVE",
"258 269 OFFCURVE",
"307 92 OFFCURVE",
"331 1 QCURVE"
);
}
);
};
layerId = "A5922FF3-8C0B-4EAE-8A2D-3EBDCCE80B0C";
paths = (
{
closed = 1;
nodes = (
"342 3 OFFCURVE",
"365 8 OFFCURVE",
"375 10 QCURVE",
"386 12 OFFCURVE",
"397 14 QCURVE",
"420 17 OFFCURVE",
"440 21 QCURVE",
"457 24 OFFCURVE",
"490 31 OFFCURVE",
"497 33 QCURVE",
"486 65 OFFCURVE",
"457 166 OFFCURVE",
"423 290 OFFCURVE",
"385 430 OFFCURVE",
"347 573 OFFCURVE",
"309 712 OFFCURVE",
"292 772 QCURVE",
"278 766 OFFCURVE",
"233 756 OFFCURVE",
"212 752 QCURVE",
"187 748 OFFCURVE",
"160 743 QCURVE",
"153 742 OFFCURVE",
"142 740 OFFCURVE",
"133 739 OFFCURVE",
"131 739 QCURVE",
"130 739 LINE",
"157 638 OFFCURVE",
"209 450 OFFCURVE",
"258 269 OFFCURVE",
"307 92 OFFCURVE",
"331 1 QCURVE"
);
}
);
width = 522;
}
);
unicode = 005C;
},
{
glyphname = bracketright;
lastChange = "2016-07-07 11:28:23 +0000";
layers = (
{
background = {
paths = (
{
closed = 1;
nodes = (
"47 -21 OFFCURVE",
"104 -14 QCURVE",
"128 -11 OFFCURVE",
"177 -5 OFFCURVE",
"220 0 OFFCURVE",
"252 4 OFFCURVE",
"260 5 QCURVE",
"269 67 OFFCURVE",
"292 200 OFFCURVE",
"317 332 OFFCURVE",
"342 459 OFFCURVE",
"354 516 QCURVE",
"381 650 OFFCURVE",
"410 779 QCURVE",
"112 741 LINE",
"103 623 LINE",
"220 636 LINE",
"127 113 LINE",
"100 109 OFFCURVE",
"75 105 QCURVE",
"54 102 OFFCURVE",
"10 94 OFFCURVE",
"-3 91 QCURVE",
"-6 75 OFFCURVE",
"-13 34 OFFCURVE",
"-15 15 QCURVE",
"-18 -7 OFFCURVE",
"-20 -30 QCURVE"
);
}
);
};
layerId = "A5922FF3-8C0B-4EAE-8A2D-3EBDCCE80B0C";
paths = (
{
closed = 1;
nodes = (
"47 -21 OFFCURVE",
"104 -14 QCURVE",
"128 -11 OFFCURVE",
"177 -5 OFFCURVE",
"220 0 OFFCURVE",
"252 4 OFFCURVE",
"260 5 QCURVE",
"269 67 OFFCURVE",
"292 200 OFFCURVE",
"317 332 OFFCURVE",
"342 459 OFFCURVE",
"354 516 QCURVE",
"381 650 OFFCURVE",
"410 779 QCURVE",
"112 741 LINE",
"103 623 LINE",
"220 636 LINE",
"127 113 LINE",
"100 109 OFFCURVE",
"75 105 QCURVE",
"54 102 OFFCURVE",
"10 94 OFFCURVE",
"-3 91 QCURVE",
"-6 75 OFFCURVE",
"-13 34 OFFCURVE",
"-15 15 QCURVE",
"-18 -7 OFFCURVE",
"-20 -30 QCURVE"
);
}
);
width = 320;
}
);
unicode = 005D;
},
{
glyphname = asciicircum;
lastChange = "2016-07-07 18:50:48 +0000";
layers = (
{
background = {
paths = (
{
closed = 1;
nodes = (
"387 81 OFFCURVE",
"370 190 OFFCURVE",
"370 247 QCURVE",
"370 265 OFFCURVE",
"371 300 OFFCURVE",
"374 317 QCURVE",
"343 315 OFFCURVE",
"284 313 OFFCURVE",
"254 313 QCURVE",
"240 313 OFFCURVE",
"214 313 OFFCURVE",
"200 314 QCURVE",
"165 244 OFFCURVE",
"103 98 OFFCURVE",
"60 34 QCURVE",
"111 37 OFFCURVE",
"161 37 QCURVE",
"173 37 OFFCURVE",
"200 37 OFFCURVE",
"214 36 QCURVE",
"226 72 OFFCURVE",
"247 145 OFFCURVE",
"258 182 QCURVE",
"258 116 LINE",
"258 97 OFFCURVE",
"258 59 OFFCURVE",
"259 39 QCURVE",
"296 39 OFFCURVE",
"369 34 OFFCURVE",
"406 30 QCURVE"
);
}
);
};
layerId = "A5922FF3-8C0B-4EAE-8A2D-3EBDCCE80B0C";
paths = (
{
closed = 1;
nodes = (
"387 672 OFFCURVE",
"370 781 OFFCURVE",
"370 838 QCURVE",
"370 856 OFFCURVE",
"371 891 OFFCURVE",
"374 908 QCURVE",
"343 906 OFFCURVE",
"284 904 OFFCURVE",
"254 904 QCURVE",
"240 904 OFFCURVE",
"214 904 OFFCURVE",
"200 905 QCURVE",
"165 835 OFFCURVE",
"103 689 OFFCURVE",
"60 625 QCURVE",
"111 628 OFFCURVE",
"161 628 QCURVE",
"173 628 OFFCURVE",
"200 628 OFFCURVE",
"214 627 QCURVE",
"226 663 OFFCURVE",
"247 736 OFFCURVE",
"258 773 QCURVE",
"258 707 LINE",
"258 688 OFFCURVE",
"258 650 OFFCURVE",
"259 630 QCURVE",
"296 630 OFFCURVE",
"369 625 OFFCURVE",
"406 621 QCURVE"
);
}
);
width = 373;
}
);
unicode = 005E;
},
{
glyphname = underscore;
lastChange = "2016-07-07 11:28:23 +0000";
layers = (
{
background = {
paths = (
{
closed = 1;
nodes = (
"379 -90 OFFCURVE",
"383 -69 QCURVE",
"386 -51 OFFCURVE",
"394 -11 OFFCURVE",
"399 4 QCURVE",
"347 2 OFFCURVE",
"245 0 OFFCURVE",
"192 0 QCURVE",
"169 0 OFFCURVE",
"94 0 OFFCURVE",
"58 1 QCURVE",
"16 2 OFFCURVE",
"-31 3 QCURVE",
"-34 -21 OFFCURVE",
"-38 -42 QCURVE",
"-41 -61 OFFCURVE",
"-49 -99 OFFCURVE",
"-54 -111 QCURVE",
"-6 -110 OFFCURVE",
"91 -109 OFFCURVE",
"139 -109 QCURVE",
"166 -109 OFFCURVE",
"247 -110 OFFCURVE",
"285 -111 QCURVE",
"329 -112 OFFCURVE",
"377 -112 QCURVE"
);
}
);
};
layerId = "A5922FF3-8C0B-4EAE-8A2D-3EBDCCE80B0C";
paths = (
{
closed = 1;
nodes = (
"379 -90 OFFCURVE",
"386 -51 OFFCURVE",
"394 -11 OFFCURVE",
"399 4 QCURVE",
"347 2 OFFCURVE",
"245 0 OFFCURVE",
"192 0 QCURVE",
"169 0 OFFCURVE",
"94 0 OFFCURVE",
"16 2 OFFCURVE",
"-31 3 QCURVE",
"-34 -21 OFFCURVE",
"-38 -42 QCURVE",
"-41 -61 OFFCURVE",
"-49 -99 OFFCURVE",
"-54 -111 QCURVE",
"-6 -110 OFFCURVE",
"91 -109 OFFCURVE",
"139 -109 QCURVE",
"166 -109 OFFCURVE",
"247 -110 OFFCURVE",
"329 -112 OFFCURVE",
"377 -112 QCURVE"
);
}
);
width = 411;
}
);
unicode = 005F;
},
{
glyphname = a;
lastChange = "2016-10-05 13:59:35 +0000";
layers = (
{
anchors = (
{
name = bottom;
position = "{192, -10}";
},
{
name = ogonek;
position = "{452, 10}";
},
{
name = top;
position = "{325, 768}";
}
);
background = {
anchors = (
{
name = bottom;
position = "{222, 0}";
},
{
name = ogonek;
position = "{399, 10}";
},
{
name = top;
position = "{222, 627}";
}
);
paths = (
{
closed = 1;
nodes = (
"290 6 OFFCURVE",
"351 16 OFFCURVE",
"377 20 QCURVE",
"408 24 OFFCURVE",
"438 29 QCURVE",
"444 187 OFFCURVE",
"450 329 QCURVE",
"453 389 OFFCURVE",
"459 514 OFFCURVE",
"465 629 OFFCURVE",
"472 726 OFFCURVE",
"475 759 QCURVE",
"407 746 OFFCURVE",
"262 732 OFFCURVE",
"193 727 QCURVE",
"180 681 OFFCURVE",
"147 570 OFFCURVE",
"112 451 OFFCURVE",
"76 330 OFFCURVE",
"59 274 QCURVE",
"19 142 OFFCURVE",
"-22 6 QCURVE",
"10 10 OFFCURVE",
"43 14 QCURVE",
"70 17 OFFCURVE",
"131 25 OFFCURVE",
"154 28 QCURVE",
"195 175 LINE",
"284 175 LINE",
"282 155 OFFCURVE",
"276 97 OFFCURVE",
"273 69 QCURVE",
"269 36 OFFCURVE",
"265 2 QCURVE"
);
},
{
closed = 1;
nodes = (
"283 535 LINE",
"306 623 LINE",
"322 624 LINE",
"315 535 LINE",
"309 474 OFFCURVE",
"305 422 QCURVE",
"303 400 OFFCURVE",
"299 355 OFFCURVE",
"296 317 OFFCURVE",
"293 288 OFFCURVE",
"293 282 QCURVE",
"289 281 OFFCURVE",
"268 280 OFFCURVE",
"245 279 OFFCURVE",
"223 278 OFFCURVE",
"219 277 QCURVE"
);
}
);
};
layerId = "A5922FF3-8C0B-4EAE-8A2D-3EBDCCE80B0C";
paths = (
{
closed = 1;
nodes = (
"290 6 OFFCURVE",
"351 16 OFFCURVE",
"377 20 QCURVE",
"408 24 OFFCURVE",
"438 29 QCURVE",
"444 187 OFFCURVE",
"450 329 QCURVE",
"453 389 OFFCURVE",
"459 514 OFFCURVE",
"465 629 OFFCURVE",
"472 726 OFFCURVE",
"475 759 QCURVE",
"407 746 OFFCURVE",
"262 732 OFFCURVE",
"193 727 QCURVE",
"180 681 OFFCURVE",
"147 570 OFFCURVE",
"112 451 OFFCURVE",
"76 330 OFFCURVE",
"59 274 QCURVE",
"19 142 OFFCURVE",
"-22 6 QCURVE",
"10 10 OFFCURVE",
"43 14 QCURVE",
"70 17 OFFCURVE",
"131 25 OFFCURVE",
"154 28 QCURVE",
"195 175 LINE",
"284 175 LINE",
"282 155 OFFCURVE",
"276 97 OFFCURVE",
"273 69 QCURVE",
"269 36 OFFCURVE",
"265 2 QCURVE"
);
},
{
closed = 1;
nodes = (
"283 535 LINE",
"306 623 LINE",
"322 624 LINE",
"315 535 LINE",
"309 474 OFFCURVE",
"305 422 QCURVE",
"303 400 OFFCURVE",
"299 355 OFFCURVE",
"296 317 OFFCURVE",
"293 288 OFFCURVE",
"293 282 QCURVE",
"289 281 OFFCURVE",
"268 280 OFFCURVE",
"245 279 OFFCURVE",
"223 278 OFFCURVE",
"219 277 QCURVE"
);
}
);
width = 443;
}
);
unicode = 0061;
},
{
glyphname = b;
lastChange = "2016-07-07 11:43:25 +0000";
layers = (
{
anchors = (
{
name = bottom;
position = "{219, 0}";
},
{
name = top;
position = "{367, 738}";
}
);
background = {
anchors = (
{
name = bottom;
position = "{219, 0}";
},
{
name = top;
position = "{219, 627}";
}
);
paths = (
{
closed = 1;
nodes = (
"112 -4 OFFCURVE",
"203 11 OFFCURVE",
"290 41 OFFCURVE",
"369 85 OFFCURVE",
"428 143 OFFCURVE",
"463 215 OFFCURVE",
"463 257 QCURVE",
"463 288 OFFCURVE",
"447 337 OFFCURVE",
"423 373 OFFCURVE",
"394 399 OFFCURVE",
"381 407 QCURVE",
"408 417 OFFCURVE",
"459 457 OFFCURVE",
"499 512 OFFCURVE",
"524 580 OFFCURVE",
"524 619 QCURVE",
"524 659 OFFCURVE",
"493 713 OFFCURVE",
"445 745 OFFCURVE",
"388 758 OFFCURVE",
"362 758 QCURVE",
"301 758 OFFCURVE",
"186 740 OFFCURVE",
"133 729 QCURVE",
"106 545 OFFCURVE",
"48 181 OFFCURVE",
"-1 2 QCURVE",
"32 -4 OFFCURVE",
"70 -4 QCURVE"
);
},
{
closed = 1;
nodes = (
"204 228 OFFCURVE",
"211 266 OFFCURVE",
"217 301 OFFCURVE",
"224 339 OFFCURVE",
"228 364 QCURVE",
"232 365 OFFCURVE",
"240 365 OFFCURVE",
"245 365 QCURVE",
"260 365 OFFCURVE",
"295 357 OFFCURVE",
"325 341 OFFCURVE",
"344 316 OFFCURVE",
"344 298 QCURVE",
"344 272 OFFCURVE",
"313 237 OFFCURVE",
"268 215 OFFCURVE",
"219 205 OFFCURVE",
"200 203 QCURVE"
);
},
{
closed = 1;
nodes = (
"254 503 OFFCURVE",
"261 536 OFFCURVE",
"267 569 OFFCURVE",
"272 600 OFFCURVE",
"274 611 QCURVE",
"285 611 LINE",
"297 611 OFFCURVE",
"329 606 OFFCURVE",
"358 594 OFFCURVE",
"377 574 OFFCURVE",
"377 559 QCURVE",
"377 547 OFFCURVE",
"355 526 OFFCURVE",
"319 509 OFFCURVE",
"274 495 OFFCURVE",
"252 490 QCURVE"
);
}
);
};
layerId = "A5922FF3-8C0B-4EAE-8A2D-3EBDCCE80B0C";
paths = (
{
closed = 1;
nodes = (
"112 -4 OFFCURVE",
"203 11 OFFCURVE",
"290 41 OFFCURVE",
"369 85 OFFCURVE",
"428 143 OFFCURVE",
"463 215 OFFCURVE",
"463 257 QCURVE",
"463 288 OFFCURVE",
"447 337 OFFCURVE",
"423 373 OFFCURVE",
"394 399 OFFCURVE",
"381 407 QCURVE",
"408 417 OFFCURVE",
"459 457 OFFCURVE",
"499 512 OFFCURVE",
"524 580 OFFCURVE",
"524 619 QCURVE",
"524 659 OFFCURVE",
"493 713 OFFCURVE",
"445 745 OFFCURVE",
"388 758 OFFCURVE",
"362 758 QCURVE",
"301 758 OFFCURVE",
"186 740 OFFCURVE",
"133 729 QCURVE",
"106 545 OFFCURVE",
"48 181 OFFCURVE",
"-1 2 QCURVE",
"32 -4 OFFCURVE",
"70 -4 QCURVE"
);
},
{
closed = 1;
nodes = (
"204 228 OFFCURVE",
"211 266 OFFCURVE",
"217 301 OFFCURVE",
"224 339 OFFCURVE",
"228 364 QCURVE",
"232 365 OFFCURVE",
"240 365 OFFCURVE",
"245 365 QCURVE",
"260 365 OFFCURVE",
"295 357 OFFCURVE",
"325 341 OFFCURVE",
"344 316 OFFCURVE",
"344 298 QCURVE",
"344 272 OFFCURVE",
"313 237 OFFCURVE",
"268 215 OFFCURVE",
"219 205 OFFCURVE",
"200 203 QCURVE"
);
},
{
closed = 1;
nodes = (
"254 503 OFFCURVE",
"261 536 OFFCURVE",
"267 569 OFFCURVE",
"272 600 OFFCURVE",
"274 611 QCURVE",
"285 611 LINE",
"297 611 OFFCURVE",
"329 606 OFFCURVE",
"358 594 OFFCURVE",
"377 574 OFFCURVE",
"377 559 QCURVE",
"377 547 OFFCURVE",
"355 526 OFFCURVE",
"319 509 OFFCURVE",
"274 495 OFFCURVE",
"252 490 QCURVE"
);
}
);
width = 438;
}
);
unicode = 0062;
},
{
glyphname = c;
lastChange = "2016-07-07 11:43:27 +0000";
layers = (
{
anchors = (
{
name = bottom;
position = "{212, 0}";
},
{
name = top;
position = "{383, 738}";
}
);
background = {
anchors = (
{
name = bottom;
position = "{212, 0}";
},
{
name = top;
position = "{212, 627}";
}
);
paths = (
{
closed = 1;
nodes = (
"218 -2 OFFCURVE",
"286 25 OFFCURVE",
"352 81 OFFCURVE",
"413 164 OFFCURVE",
"437 220 QCURVE",
"320 267 LINE",
"316 250 OFFCURVE",
"296 215 OFFCURVE",
"271 187 OFFCURVE",
"243 170 OFFCURVE",
"231 170 QCURVE",
"217 170 OFFCURVE",
"200 197 OFFCURVE",
"200 229 QCURVE",
"200 251 OFFCURVE",
"215 319 OFFCURVE",
"240 395 OFFCURVE",
"272 470 OFFCURVE",
"307 530 OFFCURVE",
"343 568 OFFCURVE",
"359 568 QCURVE",
"376 568 OFFCURVE",
"388 543 QCURVE",
"522 579 LINE",
"523 586 OFFCURVE",
"523 599 OFFCURVE",
"523 605 QCURVE",
"523 638 OFFCURVE",
"504 691 OFFCURVE",
"471 728 OFFCURVE",
"426 749 OFFCURVE",
"401 749 QCURVE",
"322 749 OFFCURVE",
"189 657 OFFCURVE",
"93 508 OFFCURVE",
"40 320 OFFCURVE",
"40 224 QCURVE",
"40 168 OFFCURVE",
"63 84 OFFCURVE",
"102 27 OFFCURVE",
"155 -2 OFFCURVE",
"186 -2 QCURVE"
);
}
);
};
layerId = "A5922FF3-8C0B-4EAE-8A2D-3EBDCCE80B0C";
paths = (
{
closed = 1;
nodes = (
"218 -2 OFFCURVE",
"286 25 OFFCURVE",
"352 81 OFFCURVE",
"413 164 OFFCURVE",
"437 220 QCURVE",
"320 267 LINE",
"316 250 OFFCURVE",
"296 215 OFFCURVE",
"271 187 OFFCURVE",
"243 170 OFFCURVE",
"231 170 QCURVE",
"217 170 OFFCURVE",
"200 197 OFFCURVE",
"200 229 QCURVE",
"200 251 OFFCURVE",
"215 319 OFFCURVE",
"240 395 OFFCURVE",
"272 470 OFFCURVE",
"307 530 OFFCURVE",
"343 568 OFFCURVE",
"359 568 QCURVE",
"376 568 OFFCURVE",
"388 543 QCURVE",
"522 579 LINE",
"523 586 OFFCURVE",
"523 599 OFFCURVE",
"523 605 QCURVE",
"523 638 OFFCURVE",
"504 691 OFFCURVE",
"471 728 OFFCURVE",
"426 749 OFFCURVE",
"401 749 QCURVE",
"322 749 OFFCURVE",
"189 657 OFFCURVE",
"93 508 OFFCURVE",
"40 320 OFFCURVE",
"40 224 QCURVE",
"40 168 OFFCURVE",
"63 84 OFFCURVE",
"102 27 OFFCURVE",
"155 -2 OFFCURVE",
"186 -2 QCURVE"
);
}
);
width = 424;
}
);
unicode = 0063;
},
{
glyphname = d;
lastChange = "2016-07-07 11:43:33 +0000";
layers = (
{
anchors = (
{
name = bottom;
position = "{226, 0}";
},
{
name = center;
position = "{226, 369}";
},
{
name = top;
position = "{342, 738}";
},
{
name = topright;
position = "{432, 738}";
}
);
background = {
anchors = (
{
name = bottom;
position = "{226, 0}";
},
{
name = center;
position = "{226, 314}";
},
{
name = top;
position = "{226, 627}";
},
{
name = topright;
position = "{432, 627}";
}
);
paths = (
{
closed = 1;
nodes = (
"130 -5 OFFCURVE",
"252 44 OFFCURVE",
"354 125 OFFCURVE",
"435 232 OFFCURVE",
"491 350 OFFCURVE",
"521 470 OFFCURVE",
"521 523 QCURVE",
"521 569 OFFCURVE",
"499 651 OFFCURVE",
"451 713 OFFCURVE",
"374 748 OFFCURVE",
"318 748 QCURVE",
"271 748 OFFCURVE",
"181 733 OFFCURVE",
"137 725 QCURVE",
"131 681 OFFCURVE",
"112 572 OFFCURVE",
"91 454 OFFCURVE",
"69 332 OFFCURVE",
"58 275 QCURVE",
"32 141 OFFCURVE",
"4 0 QCURVE",
"18 -2 OFFCURVE",
"47 -5 OFFCURVE",
"61 -5 QCURVE"
);
},
{
closed = 1;
nodes = (
"195 197 OFFCURVE",
"219 319 OFFCURVE",
"244 432 OFFCURVE",
"268 543 OFFCURVE",
"280 603 QCURVE",
"325 603 OFFCURVE",
"367 560 OFFCURVE",
"367 522 QCURVE",
"367 498 OFFCURVE",
"353 430 OFFCURVE",
"329 352 OFFCURVE",
"295 270 OFFCURVE",
"254 197 OFFCURVE",
"208 140 OFFCURVE",
"183 124 QCURVE"
);
}
);
};
layerId = "A5922FF3-8C0B-4EAE-8A2D-3EBDCCE80B0C";
paths = (
{
closed = 1;
nodes = (
"130 -5 OFFCURVE",
"252 44 OFFCURVE",
"354 125 OFFCURVE",
"435 232 OFFCURVE",
"491 350 OFFCURVE",
"521 470 OFFCURVE",
"521 523 QCURVE",
"521 569 OFFCURVE",
"499 651 OFFCURVE",
"451 713 OFFCURVE",
"374 748 OFFCURVE",
"318 748 QCURVE",
"271 748 OFFCURVE",
"181 733 OFFCURVE",
"137 725 QCURVE",
"131 681 OFFCURVE",
"112 572 OFFCURVE",
"91 454 OFFCURVE",
"69 332 OFFCURVE",
"58 275 QCURVE",
"32 141 OFFCURVE",
"4 0 QCURVE",
"18 -2 OFFCURVE",
"47 -5 OFFCURVE",
"61 -5 QCURVE"
);
},
{
closed = 1;
nodes = (
"195 197 OFFCURVE",
"219 319 OFFCURVE",
"244 432 OFFCURVE",
"268 543 OFFCURVE",
"280 603 QCURVE",
"325 603 OFFCURVE",
"367 560 OFFCURVE",
"367 522 QCURVE",
"367 498 OFFCURVE",
"353 430 OFFCURVE",
"329 352 OFFCURVE",
"295 270 OFFCURVE",
"254 197 OFFCURVE",
"208 140 OFFCURVE",
"183 124 QCURVE"
);
}
);
width = 452;
}
);
unicode = 0064;
},
{
glyphname = e;
lastChange = "2016-10-05 14:00:09 +0000";
layers = (
{
anchors = (
{
name = bottom;
position = "{175, 0}";
},
{
name = ogonek;
position = "{333, 40}";
},
{
name = top;
position = "{316, 758}";
}
);
background = {
anchors = (
{
name = bottom;
position = "{175, 0}";
},
{
name = ogonek;
position = "{314, 10}";
},
{
name = top;
position = "{175, 627}";
}
);
paths = (
{
closed = 1;
nodes = (
"339 50 LINE",
"349 167 LINE",
"200 143 LINE",
"235 332 LINE",
"266 333 OFFCURVE",
"293 334 QCURVE",
"316 335 OFFCURVE",
"362 336 OFFCURVE",
"373 337 QCURVE",
"378 366 OFFCURVE",
"385 421 OFFCURVE",
"389 450 QCURVE",
"378 449 OFFCURVE",
"331 448 OFFCURVE",
"308 447 QCURVE",
"281 446 OFFCURVE",
"249 444 QCURVE",
"285 628 LINE",
"301 628 OFFCURVE",
"345 628 OFFCURVE",
"388 629 OFFCURVE",
"426 630 OFFCURVE",
"436 631 QCURVE",
"439 647 OFFCURVE",
"449 689 OFFCURVE",
"454 709 QCURVE",
"459 732 OFFCURVE",
"466 755 QCURVE",
"142 727 LINE",
"8 -1 LINE"
);
}
);
};
layerId = "A5922FF3-8C0B-4EAE-8A2D-3EBDCCE80B0C";
paths = (
{
closed = 1;
nodes = (
"339 50 LINE",
"349 167 LINE",
"200 143 LINE",
"235 332 LINE",
"266 333 OFFCURVE",
"293 334 QCURVE",
"316 335 OFFCURVE",
"362 336 OFFCURVE",
"373 337 QCURVE",
"378 366 OFFCURVE",
"385 421 OFFCURVE",
"389 450 QCURVE",
"378 449 OFFCURVE",
"331 448 OFFCURVE",
"308 447 QCURVE",
"281 446 OFFCURVE",
"249 444 QCURVE",
"285 628 LINE",
"301 628 OFFCURVE",
"345 628 OFFCURVE",
"388 629 OFFCURVE",
"426 630 OFFCURVE",
"436 631 QCURVE",
"439 647 OFFCURVE",
"449 689 OFFCURVE",
"454 709 QCURVE",
"459 732 OFFCURVE",
"466 755 QCURVE",
"142 727 LINE",
"8 -1 LINE"
);
}
);
width = 349;
}
);
unicode = 0065;
},
{
glyphname = f;
lastChange = "2016-07-07 11:43:35 +0000";
layers = (
{
anchors = (
{
name = bottom;
position = "{175, 0}";
},
{
name = top;
position = "{347, 738}";
}
);
background = {
anchors = (
{
name = bottom;
position = "{175, 0}";
},
{
name = top;
position = "{175, 627}";
}
);
paths = (
{
closed = 1;
nodes = (
"30 5 OFFCURVE",
"97 19 OFFCURVE",
"126 25 QCURVE",
"160 32 OFFCURVE",
"195 38 QCURVE",
"242 340 LINE",
"274 339 OFFCURVE",
"303 338 QCURVE",
"327 337 OFFCURVE",
"376 336 OFFCURVE",
"389 336 QCURVE",
"393 364 OFFCURVE",
"402 419 OFFCURVE",
"406 447 QCURVE",
"392 446 OFFCURVE",
"343 446 OFFCURVE",
"319 446 QCURVE",
"291 446 OFFCURVE",
"259 445 QCURVE",
"291 628 LINE",
"452 628 LINE",
"481 754 LINE",
"138 736 LINE",
"117 591 OFFCURVE",
"95 455 QCURVE",
"85 397 OFFCURVE",
"63 273 OFFCURVE",
"40 153 OFFCURVE",
"16 43 OFFCURVE",
"4 -1 QCURVE"
);
}
);
};
layerId = "A5922FF3-8C0B-4EAE-8A2D-3EBDCCE80B0C";
paths = (
{
closed = 1;
nodes = (
"30 5 OFFCURVE",
"97 19 OFFCURVE",
"126 25 QCURVE",
"160 32 OFFCURVE",
"195 38 QCURVE",
"242 340 LINE",
"274 339 OFFCURVE",
"327 337 OFFCURVE",
"376 336 OFFCURVE",
"389 336 QCURVE",
"393 364 OFFCURVE",
"402 419 OFFCURVE",
"406 447 QCURVE",
"392 446 OFFCURVE",
"343 446 OFFCURVE",
"319 446 QCURVE",
"291 446 OFFCURVE",
"259 445 QCURVE",
"291 628 LINE",
"452 628 LINE",
"481 754 LINE",
"138 736 LINE",
"117 591 OFFCURVE",
"95 455 QCURVE",
"85 397 OFFCURVE",
"63 273 OFFCURVE",
"40 153 OFFCURVE",
"16 43 OFFCURVE",
"4 -1 QCURVE"
);
}
);
width = 349;
}
);
unicode = 0066;
},
{
glyphname = g;
lastChange = "2016-07-07 11:43:37 +0000";
layers = (
{
anchors = (
{
name = bottom;
position = "{256, 0}";
},
{
name = top;
position = "{429, 738}";
}
);
background = {
anchors = (
{
name = bottom;
position = "{256, 0}";
},
{
name = top;
position = "{256, 627}";
}
);
paths = (
{
closed = 1;
nodes = (
"277 -25 OFFCURVE",
"387 27 OFFCURVE",
"482 131 OFFCURVE",
"550 286 OFFCURVE",
"557 390 QCURVE",
"524 384 OFFCURVE",
"437 370 OFFCURVE",
"398 365 QCURVE",
"352 358 OFFCURVE",
"304 352 QCURVE",
"285 251 LINE",
"394 267 LINE",
"393 238 OFFCURVE",
"370 187 OFFCURVE",
"335 150 OFFCURVE",
"291 129 OFFCURVE",
"270 129 QCURVE",
"241 129 OFFCURVE",
"203 183 OFFCURVE",
"203 247 QCURVE",
"205 313 OFFCURVE",
"242 451 OFFCURVE",
"295 565 OFFCURVE",
"356 638 OFFCURVE",
"382 638 QCURVE",
"401 638 OFFCURVE",
"432 603 OFFCURVE",
"441 562 QCURVE",
"582 589 LINE",
"582 625 OFFCURVE",
"564 689 OFFCURVE",
"525 737 OFFCURVE",
"465 766 OFFCURVE",
"424 766 QCURVE",
"367 766 OFFCURVE",
"234 702 OFFCURVE",
"119 571 OFFCURVE",
"43 375 OFFCURVE",
"43 243 QCURVE",
"43 175 OFFCURVE",
"72 75 OFFCURVE",
"122 8 OFFCURVE",
"190 -25 OFFCURVE",
"228 -25 QCURVE"
);
}
);
};
layerId = "A5922FF3-8C0B-4EAE-8A2D-3EBDCCE80B0C";
paths = (
{
closed = 1;
nodes = (
"277 -25 OFFCURVE",
"387 27 OFFCURVE",
"482 131 OFFCURVE",
"550 286 OFFCURVE",
"557 390 QCURVE",
"524 384 OFFCURVE",
"437 370 OFFCURVE",
"398 365 QCURVE",
"352 358 OFFCURVE",
"304 352 QCURVE",
"285 251 LINE",
"394 267 LINE",
"393 238 OFFCURVE",
"370 187 OFFCURVE",
"335 150 OFFCURVE",
"291 129 OFFCURVE",
"270 129 QCURVE",
"241 129 OFFCURVE",
"203 183 OFFCURVE",
"203 247 QCURVE",
"205 313 OFFCURVE",
"242 451 OFFCURVE",
"295 565 OFFCURVE",
"356 638 OFFCURVE",
"382 638 QCURVE",
"401 638 OFFCURVE",
"432 603 OFFCURVE",
"441 562 QCURVE",
"582 589 LINE",
"582 625 OFFCURVE",
"564 689 OFFCURVE",
"525 737 OFFCURVE",
"465 766 OFFCURVE",
"424 766 QCURVE",
"367 766 OFFCURVE",
"234 702 OFFCURVE",
"119 571 OFFCURVE",
"43 375 OFFCURVE",
"43 243 QCURVE",
"43 175 OFFCURVE",
"72 75 OFFCURVE",
"122 8 OFFCURVE",
"190 -25 OFFCURVE",
"228 -25 QCURVE"
);
}
);
width = 511;
}
);
unicode = 0067;
},
{
glyphname = h;
lastChange = "2016-07-07 11:43:40 +0000";
layers = (
{
anchors = (
{
name = bottom;
position = "{226, 0}";
},
{
name = center;
position = "{226, 369}";
},
{
name = top;
position = "{367, 738}";
}
);
background = {
anchors = (
{
name = bottom;
position = "{226, 0}";
},
{
name = center;
position = "{226, 314}";
},
{
name = top;
position = "{226, 627}";
}
);
paths = (
{
closed = 1;
nodes = (
"166 31 LINE",
"177 86 OFFCURVE",
"188 141 QCURVE",
"197 187 OFFCURVE",
"216 290 OFFCURVE",
"223 329 QCURVE",
"323 338 LINE",
"316 300 OFFCURVE",
"295 194 OFFCURVE",
"285 144 QCURVE",
"274 86 OFFCURVE",
"261 25 QCURVE",
"421 43 LINE",
"440 179 OFFCURVE",
"463 309 QCURVE",
"472 364 OFFCURVE",
"495 484 OFFCURVE",
"519 602 OFFCURVE",
"545 712 OFFCURVE",
"559 758 QCURVE",
"559 758 OFFCURVE",
"525 755 OFFCURVE",
"476 751 OFFCURVE",
"419 745 OFFCURVE",
"395 741 QCURVE",
"377 669 OFFCURVE",
"354 532 OFFCURVE",
"340 460 QCURVE",
"239 448 LINE",
"253 522 OFFCURVE",
"287 668 OFFCURVE",
"304 740 QCURVE",
"281 740 OFFCURVE",
"241 741 OFFCURVE",
"202 743 OFFCURVE",
"162 746 OFFCURVE",
"138 748 QCURVE",
"133 700 OFFCURVE",
"116 585 OFFCURVE",
"96 462 OFFCURVE",
"74 336 OFFCURVE",
"63 278 QCURVE",
"37 141 OFFCURVE",
"8 -2 QCURVE"
);
}
);
};
layerId = "A5922FF3-8C0B-4EAE-8A2D-3EBDCCE80B0C";
paths = (
{
closed = 1;
nodes = (
"166 31 LINE",
"177 86 OFFCURVE",
"188 141 QCURVE",
"197 187 OFFCURVE",
"216 290 OFFCURVE",
"223 329 QCURVE",
"323 338 LINE",
"316 300 OFFCURVE",
"295 194 OFFCURVE",
"285 144 QCURVE",
"274 86 OFFCURVE",
"261 25 QCURVE",
"421 43 LINE",
"440 179 OFFCURVE",
"463 309 QCURVE",
"472 364 OFFCURVE",
"495 484 OFFCURVE",
"519 602 OFFCURVE",
"545 712 OFFCURVE",
"559 758 QCURVE",
"559 758 OFFCURVE",
"525 755 OFFCURVE",
"476 751 OFFCURVE",
"419 745 OFFCURVE",
"395 741 QCURVE",
"377 669 OFFCURVE",
"354 532 OFFCURVE",
"340 460 QCURVE",
"239 448 LINE",
"253 522 OFFCURVE",
"287 668 OFFCURVE",
"304 740 QCURVE",
"281 740 OFFCURVE",
"241 741 OFFCURVE",
"202 743 OFFCURVE",
"162 746 OFFCURVE",
"138 748 QCURVE",
"133 700 OFFCURVE",
"116 585 OFFCURVE",
"96 462 OFFCURVE",
"74 336 OFFCURVE",
"63 278 QCURVE",
"37 141 OFFCURVE",
"8 -2 QCURVE"
);
}
);
width = 452;
}
);
unicode = 0068;
},
{
glyphname = i;
lastChange = "2016-07-07 12:10:22 +0000";
layers = (
{
anchors = (
{
name = bottom;
position = "{103, 0}";
}
);
background = {
anchors = (
{
name = bottom;
position = "{103, 0}";
}
);
paths = (
{
closed = 1;
nodes = (
"-4 2 OFFCURVE",
"42 8 OFFCURVE",
"99 15 OFFCURVE",
"153 20 OFFCURVE",
"162 20 QCURVE",
"170 66 OFFCURVE",
"191 177 OFFCURVE",
"213 296 OFFCURVE",
"237 417 OFFCURVE",
"248 473 QCURVE",
"274 605 OFFCURVE",
"301 742 QCURVE",
"141 717 LINE",
"117 579 OFFCURVE",
"91 447 QCURVE",
"80 391 OFFCURVE",
"56 270 OFFCURVE",
"31 153 OFFCURVE",
"6 45 OFFCURVE",
"-6 1 QCURVE"
);
}
);
};
components = (
{
name = idotless;
}
);
layerId = "A5922FF3-8C0B-4EAE-8A2D-3EBDCCE80B0C";
width = 207;
}
);
unicode = 0069;
},
{
glyphname = j;
lastChange = "2016-07-07 11:28:24 +0000";
layers = (
{
background = {
paths = (
{
closed = 1;
nodes = (
"151 -1 OFFCURVE",
"213 51 OFFCURVE",
"257 130 OFFCURVE",
"284 227 OFFCURVE",
"293 272 QCURVE",
"303 326 OFFCURVE",
"331 460 OFFCURVE",
"361 599 OFFCURVE",
"394 732 OFFCURVE",
"410 784 QCURVE",
"365 772 OFFCURVE",
"275 755 OFFCURVE",
"229 751 QCURVE",
"206 652 OFFCURVE",
"171 455 OFFCURVE",
"152 355 QCURVE",
"149 338 OFFCURVE",
"141 281 OFFCURVE",
"127 226 OFFCURVE",
"108 185 OFFCURVE",
"95 185 QCURVE",
"78 185 OFFCURVE",
"48 201 OFFCURVE",
"43 211 QCURVE",
"-28 53 LINE",
"12 24 OFFCURVE",
"79 -1 OFFCURVE",
"108 -1 QCURVE"
);
}
);
};
layerId = "A5922FF3-8C0B-4EAE-8A2D-3EBDCCE80B0C";
paths = (
{
closed = 1;
nodes = (
"151 -1 OFFCURVE",
"213 51 OFFCURVE",
"257 130 OFFCURVE",
"284 227 OFFCURVE",
"293 272 QCURVE",
"303 326 OFFCURVE",
"331 460 OFFCURVE",
"361 599 OFFCURVE",
"394 732 OFFCURVE",
"410 784 QCURVE",
"365 772 OFFCURVE",
"275 755 OFFCURVE",
"229 751 QCURVE",
"206 652 OFFCURVE",
"171 455 OFFCURVE",
"152 355 QCURVE",
"149 338 OFFCURVE",
"141 281 OFFCURVE",
"127 226 OFFCURVE",
"108 185 OFFCURVE",
"95 185 QCURVE",
"78 185 OFFCURVE",
"48 201 OFFCURVE",
"43 211 QCURVE",
"-28 53 LINE",
"12 24 OFFCURVE",
"79 -1 OFFCURVE",
"108 -1 QCURVE"
);
}
);
width = 286;
}
);
unicode = 006A;
},
{
glyphname = k;
lastChange = "2016-07-07 11:44:07 +0000";
layers = (
{
anchors = (
{
name = bottom;
position = "{237, 0}";
},
{
name = top;
position = "{357, 738}";
}
);
background = {
anchors = (
{
name = bottom;
position = "{237, 0}";
},
{
name = top;
position = "{237, 627}";
}
);
paths = (
{
closed = 1;
nodes = (
"173 24 LINE",
"183 76 OFFCURVE",
"193 125 QCURVE",
"201 167 OFFCURVE",
"218 257 OFFCURVE",
"225 288 QCURVE",
"244 309 LINE",
"253 243 OFFCURVE",
"274 96 OFFCURVE",
"284 30 QCURVE",
"313 31 OFFCURVE",
"369 32 OFFCURVE",
"398 32 QCURVE",
"422 32 OFFCURVE",
"471 31 OFFCURVE",
"495 30 QCURVE",
"463 130 OFFCURVE",
"401 323 OFFCURVE",
"379 426 QCURVE",
"392 447 OFFCURVE",
"426 499 OFFCURVE",
"465 554 OFFCURVE",
"505 611 OFFCURVE",
"524 638 QCURVE",
"569 700 OFFCURVE",
"617 765 QCURVE",
"566 757 OFFCURVE",
"464 746 OFFCURVE",
"413 742 QCURVE",
"399 721 OFFCURVE",
"360 660 OFFCURVE",
"319 595 OFFCURVE",
"282 537 OFFCURVE",
"271 520 QCURVE",
"265 519 LINE",
"275 575 OFFCURVE",
"284 621 QCURVE",
"288 640 OFFCURVE",
"295 679 OFFCURVE",
"301 711 OFFCURVE",
"305 733 OFFCURVE",
"306 737 QCURVE",
"275 737 OFFCURVE",
"245 739 QCURVE",
"219 741 OFFCURVE",
"160 744 OFFCURVE",
"136 747 QCURVE",
"132 699 OFFCURVE",
"117 584 OFFCURVE",
"97 461 OFFCURVE",
"75 336 OFFCURVE",
"64 278 QCURVE",
"38 142 OFFCURVE",
"7 -1 QCURVE"
);
}
);
};
layerId = "A5922FF3-8C0B-4EAE-8A2D-3EBDCCE80B0C";
paths = (
{
closed = 1;
nodes = (
"173 24 LINE",
"183 76 OFFCURVE",
"193 125 QCURVE",
"201 167 OFFCURVE",
"218 257 OFFCURVE",
"225 288 QCURVE",
"244 309 LINE",
"253 243 OFFCURVE",
"274 96 OFFCURVE",
"284 30 QCURVE",
"313 31 OFFCURVE",
"369 32 OFFCURVE",
"398 32 QCURVE",
"422 32 OFFCURVE",
"471 31 OFFCURVE",
"495 30 QCURVE",
"463 130 OFFCURVE",
"401 323 OFFCURVE",
"379 426 QCURVE",
"392 447 OFFCURVE",
"426 499 OFFCURVE",
"465 554 OFFCURVE",
"505 611 OFFCURVE",
"524 638 QCURVE",
"569 700 OFFCURVE",
"617 765 QCURVE",
"566 757 OFFCURVE",
"464 746 OFFCURVE",
"413 742 QCURVE",
"399 721 OFFCURVE",
"360 660 OFFCURVE",
"319 595 OFFCURVE",
"282 537 OFFCURVE",
"271 520 QCURVE",
"265 519 LINE",
"275 575 OFFCURVE",
"284 621 QCURVE",
"288 640 OFFCURVE",
"295 679 OFFCURVE",
"301 711 OFFCURVE",
"305 733 OFFCURVE",
"306 737 QCURVE",
"275 737 OFFCURVE",
"245 739 QCURVE",
"219 741 OFFCURVE",
"160 744 OFFCURVE",
"136 747 QCURVE",
"132 699 OFFCURVE",
"117 584 OFFCURVE",
"97 461 OFFCURVE",
"75 336 OFFCURVE",
"64 278 QCURVE",
"38 142 OFFCURVE",
"7 -1 QCURVE"
);
}
);
width = 473;
}
);
unicode = 006B;
},
{
glyphname = l;
lastChange = "2016-07-07 11:44:09 +0000";
layers = (
{
anchors = (
{
name = bottom;
position = "{155, 0}";
},
{
name = center;
position = "{155, 369}";
},
{
name = top;
position = "{259, 738}";
},
{
name = topright;
position = "{289, 738}";
}
);
background = {
anchors = (
{
name = bottom;
position = "{155, 0}";
},
{
name = center;
position = "{155, 314}";
},
{
name = top;
position = "{155, 627}";
},
{
name = topright;
position = "{289, 627}";
}
);
paths = (
{
closed = 1;
nodes = (
"40 7 OFFCURVE",
"109 20 OFFCURVE",
"180 29 OFFCURVE",
"251 33 OFFCURVE",
"283 33 QCURVE",
"291 33 OFFCURVE",
"306 32 OFFCURVE",
"314 32 QCURVE",
"313 36 OFFCURVE",
"310 59 OFFCURVE",
"305 90 OFFCURVE",
"301 128 OFFCURVE",
"300 147 QCURVE",
"277 147 OFFCURVE",
"219 146 OFFCURVE",
"194 144 QCURVE",
"199 180 OFFCURVE",
"215 272 OFFCURVE",
"236 371 OFFCURVE",
"258 474 OFFCURVE",
"269 522 QCURVE",
"295 635 OFFCURVE",
"323 754 QCURVE",
"143 730 LINE",
"115 591 OFFCURVE",
"89 457 QCURVE",
"78 400 OFFCURVE",
"56 277 OFFCURVE",
"35 157 OFFCURVE",
"18 44 OFFCURVE",
"12 -2 QCURVE"
);
}
);
};
layerId = "A5922FF3-8C0B-4EAE-8A2D-3EBDCCE80B0C";
paths = (
{
closed = 1;
nodes = (
"40 7 OFFCURVE",
"109 20 OFFCURVE",
"180 29 OFFCURVE",
"251 33 OFFCURVE",
"283 33 QCURVE",
"291 33 OFFCURVE",
"306 32 OFFCURVE",
"314 32 QCURVE",
"313 36 OFFCURVE",
"310 59 OFFCURVE",
"305 90 OFFCURVE",
"301 128 OFFCURVE",
"300 147 QCURVE",
"277 147 OFFCURVE",
"219 146 OFFCURVE",
"194 144 QCURVE",
"199 180 OFFCURVE",
"215 272 OFFCURVE",
"236 371 OFFCURVE",
"258 474 OFFCURVE",
"269 522 QCURVE",
"295 635 OFFCURVE",
"323 754 QCURVE",
"143 730 LINE",
"115 591 OFFCURVE",
"89 457 QCURVE",
"78 400 OFFCURVE",
"56 277 OFFCURVE",
"35 157 OFFCURVE",
"18 44 OFFCURVE",
"12 -2 QCURVE"
);
}
);
width = 309;
}
);
unicode = 006C;
},
{
glyphname = m;
lastChange = "2016-07-07 11:44:11 +0000";
layers = (
{
anchors = (
{
name = bottom;
position = "{317, 0}";
},
{
name = top;
position = "{515, 745}";
}
);
background = {
anchors = (
{
name = bottom;
position = "{317, 0}";
},
{
name = top;
position = "{317, 627}";
}
);
paths = (
{
closed = 1;
nodes = (
"138 17 LINE",
"139 20 OFFCURVE",
"154 69 OFFCURVE",
"175 143 OFFCURVE",
"200 230 OFFCURVE",
"221 311 OFFCURVE",
"238 374 OFFCURVE",
"240 387 QCURVE",
"255 387 LINE",
"222 7 LINE",
"256 9 OFFCURVE",
"307 12 OFFCURVE",
"343 13 QCURVE",
"356 56 OFFCURVE",
"391 151 OFFCURVE",
"427 249 OFFCURVE",
"462 344 OFFCURVE",
"476 387 QCURVE",
"485 387 LINE",
"480 360 OFFCURVE",
"470 286 OFFCURVE",
"461 206 OFFCURVE",
"452 126 OFFCURVE",
"446 60 OFFCURVE",
"443 15 OFFCURVE",
"443 10 QCURVE",
"622 42 LINE",
"631 163 OFFCURVE",
"643 290 QCURVE",
"648 344 OFFCURVE",
"661 465 OFFCURVE",
"676 589 OFFCURVE",
"694 714 OFFCURVE",
"704 773 QCURVE",
"677 768 OFFCURVE",
"631 761 OFFCURVE",
"586 754 OFFCURVE",
"541 748 OFFCURVE",
"515 745 QCURVE",
"505 724 OFFCURVE",
"481 668 OFFCURVE",
"456 605 OFFCURVE",
"431 540 OFFCURVE",
"419 509 QCURVE",
"392 436 OFFCURVE",
"363 358 QCURVE",
"349 358 LINE",
"361 435 OFFCURVE",
"372 507 QCURVE",
"376 538 OFFCURVE",
"386 603 OFFCURVE",
"395 665 OFFCURVE",
"402 721 OFFCURVE",
"405 743 QCURVE",
"347 738 OFFCURVE",
"247 726 OFFCURVE",
"190 726 QCURVE",
"178 679 OFFCURVE",
"146 568 OFFCURVE",
"110 450 OFFCURVE",
"73 329 OFFCURVE",
"55 273 QCURVE",
"14 142 OFFCURVE",
"-31 6 QCURVE"
);
}
);
};
layerId = "A5922FF3-8C0B-4EAE-8A2D-3EBDCCE80B0C";
paths = (
{
closed = 1;
nodes = (
"138 17 LINE",
"139 20 OFFCURVE",
"154 69 OFFCURVE",
"175 143 OFFCURVE",
"200 230 OFFCURVE",
"221 311 OFFCURVE",
"238 374 OFFCURVE",
"240 387 QCURVE",
"255 387 LINE",
"222 7 LINE",
"256 9 OFFCURVE",
"307 12 OFFCURVE",
"343 13 QCURVE",
"356 56 OFFCURVE",
"391 151 OFFCURVE",
"427 249 OFFCURVE",
"462 344 OFFCURVE",
"476 387 QCURVE",
"485 387 LINE",
"480 360 OFFCURVE",
"470 286 OFFCURVE",
"461 206 OFFCURVE",
"452 126 OFFCURVE",
"446 60 OFFCURVE",
"443 15 OFFCURVE",
"443 10 QCURVE",
"622 42 LINE",
"631 163 OFFCURVE",
"643 290 QCURVE",
"648 344 OFFCURVE",
"661 465 OFFCURVE",
"676 589 OFFCURVE",
"694 714 OFFCURVE",
"704 773 QCURVE",
"677 768 OFFCURVE",
"631 761 OFFCURVE",
"586 754 OFFCURVE",
"541 748 OFFCURVE",
"515 745 QCURVE",
"505 724 OFFCURVE",
"481 668 OFFCURVE",
"456 605 OFFCURVE",
"431 540 OFFCURVE",
"392 436 OFFCURVE",
"363 358 QCURVE",
"349 358 LINE",
"361 435 OFFCURVE",
"376 538 OFFCURVE",
"386 603 OFFCURVE",
"395 665 OFFCURVE",
"402 721 OFFCURVE",
"405 743 QCURVE",
"347 738 OFFCURVE",
"247 726 OFFCURVE",
"190 726 QCURVE",
"178 679 OFFCURVE",
"146 568 OFFCURVE",
"110 450 OFFCURVE",
"73 329 OFFCURVE",
"55 273 QCURVE",
"14 142 OFFCURVE",
"-31 6 QCURVE"
);
}
);
width = 634;
}
);
unicode = 006D;
},
{
glyphname = n;
lastChange = "2016-07-07 11:44:14 +0000";
layers = (
{
anchors = (
{
name = bottom;
position = "{232, 0}";
},
{
name = top;
position = "{379, 738}";
}
);
background = {
anchors = (
{
name = bottom;
position = "{232, 0}";
},
{
name = top;
position = "{232, 627}";
}
);
paths = (
{
closed = 1;
nodes = (
"155 30 LINE",
"170 104 OFFCURVE",
"183 173 QCURVE",
"189 202 OFFCURVE",
"200 264 OFFCURVE",
"210 322 OFFCURVE",
"220 373 OFFCURVE",
"223 392 QCURVE",
"227 373 OFFCURVE",
"236 319 OFFCURVE",
"244 258 OFFCURVE",
"251 191 OFFCURVE",
"254 160 QCURVE",
"261 86 OFFCURVE",
"267 4 QCURVE",
"281 9 OFFCURVE",
"335 22 OFFCURVE",
"389 34 OFFCURVE",
"431 43 OFFCURVE",
"434 43 QCURVE",
"438 76 OFFCURVE",
"453 173 OFFCURVE",
"473 287 OFFCURVE",
"497 411 OFFCURVE",
"509 471 QCURVE",
"536 611 OFFCURVE",
"570 768 QCURVE",
"445 753 LINE",
"430 682 OFFCURVE",
"416 615 QCURVE",
"410 586 OFFCURVE",
"398 525 OFFCURVE",
"386 466 OFFCURVE",
"376 412 OFFCURVE",
"372 391 QCURVE",
"362 434 OFFCURVE",
"339 557 OFFCURVE",
"328 615 QCURVE",
"316 682 OFFCURVE",
"302 754 QCURVE",
"279 753 OFFCURVE",
"257 752 QCURVE",
"238 751 OFFCURVE",
"197 750 OFFCURVE",
"182 750 QCURVE",
"170 750 OFFCURVE",
"152 750 OFFCURVE",
"138 751 QCURVE",
"134 705 OFFCURVE",
"118 591 OFFCURVE",
"97 467 OFFCURVE",
"74 340 OFFCURVE",
"63 281 QCURVE",
"36 142 OFFCURVE",
"5 -5 QCURVE"
);
}
);
};
layerId = "A5922FF3-8C0B-4EAE-8A2D-3EBDCCE80B0C";
paths = (
{
closed = 1;
nodes = (
"155 30 LINE",
"170 104 OFFCURVE",
"183 173 QCURVE",
"189 202 OFFCURVE",
"200 264 OFFCURVE",
"210 322 OFFCURVE",
"220 373 OFFCURVE",
"223 392 QCURVE",
"227 373 OFFCURVE",
"236 319 OFFCURVE",
"244 258 OFFCURVE",
"251 191 OFFCURVE",
"254 160 QCURVE",
"261 86 OFFCURVE",
"267 4 QCURVE",
"281 9 OFFCURVE",
"335 22 OFFCURVE",
"389 34 OFFCURVE",
"431 43 OFFCURVE",
"434 43 QCURVE",
"438 76 OFFCURVE",
"453 173 OFFCURVE",
"473 287 OFFCURVE",
"497 411 OFFCURVE",
"509 471 QCURVE",
"536 611 OFFCURVE",
"570 768 QCURVE",
"445 753 LINE",
"430 682 OFFCURVE",
"416 615 QCURVE",
"410 586 OFFCURVE",
"398 525 OFFCURVE",
"386 466 OFFCURVE",
"376 412 OFFCURVE",
"372 391 QCURVE",
"362 434 OFFCURVE",
"339 557 OFFCURVE",
"328 615 QCURVE",
"316 682 OFFCURVE",
"302 754 QCURVE",
"279 753 OFFCURVE",
"238 751 OFFCURVE",
"197 750 OFFCURVE",
"182 750 QCURVE",
"170 750 OFFCURVE",
"152 750 OFFCURVE",
"138 751 QCURVE",
"134 705 OFFCURVE",
"118 591 OFFCURVE",
"97 467 OFFCURVE",
"74 340 OFFCURVE",
"63 281 QCURVE",
"36 142 OFFCURVE",
"5 -5 QCURVE"
);
}
);
width = 463;
}
);
unicode = 006E;
},
{
glyphname = o;
lastChange = "2016-10-05 14:00:37 +0000";
layers = (
{
anchors = (
{
name = bottom;
position = "{152, -4}";
},
{
name = center;
position = "{253, 369}";
},
{
name = ogonek;
position = "{350, 10}";
},
{
name = top;
position = "{410, 768}";
},
{
name = topright;
position = "{485, 738}";
}
);
background = {
anchors = (
{
name = bottom;
position = "{253, 0}";
},
{
name = center;
position = "{253, 314}";
},
{
name = ogonek;
position = "{454, 10}";
},
{
name = top;
position = "{253, 627}";
},
{
name = topright;
position = "{485, 627}";
}
);
paths = (
{
closed = 1;
nodes = (
"225 -4 OFFCURVE",
"313 32 OFFCURVE",
"399 100 OFFCURVE",
"478 198 OFFCURVE",
"538 322 OFFCURVE",
"573 470 OFFCURVE",
"573 554 QCURVE",
"573 592 OFFCURVE",
"559 668 OFFCURVE",
"525 728 OFFCURVE",
"465 766 OFFCURVE",
"419 766 QCURVE",
"366 766 OFFCURVE",
"267 715 OFFCURVE",
"181 628 OFFCURVE",
"110 515 OFFCURVE",
"60 390 OFFCURVE",
"32 263 OFFCURVE",
"32 206 QCURVE",
"32 151 OFFCURVE",
"55 72 OFFCURVE",
"96 21 OFFCURVE",
"152 -4 OFFCURVE",
"185 -4 QCURVE"
);
},
{
closed = 1;
nodes = (
"228 165 OFFCURVE",
"207 178 OFFCURVE",
"192 197 OFFCURVE",
"184 221 OFFCURVE",
"184 232 QCURVE",
"184 257 OFFCURVE",
"195 325 OFFCURVE",
"218 395 OFFCURVE",
"251 464 OFFCURVE",
"295 518 OFFCURVE",
"350 551 OFFCURVE",
"383 551 QCURVE",
"399 551 OFFCURVE",
"419 534 OFFCURVE",
"428 509 OFFCURVE",
"431 480 OFFCURVE",
"431 468 QCURVE",
"431 425 OFFCURVE",
"406 320 OFFCURVE",
"358 228 OFFCURVE",
"287 165 OFFCURVE",
"241 165 QCURVE"
);
}
);
};
layerId = "A5922FF3-8C0B-4EAE-8A2D-3EBDCCE80B0C";
paths = (
{
closed = 1;
nodes = (
"225 -4 OFFCURVE",
"313 32 OFFCURVE",
"399 100 OFFCURVE",
"478 198 OFFCURVE",
"538 322 OFFCURVE",
"573 470 OFFCURVE",
"573 554 QCURVE",
"573 592 OFFCURVE",
"559 668 OFFCURVE",
"525 728 OFFCURVE",
"465 766 OFFCURVE",
"419 766 QCURVE",
"366 766 OFFCURVE",
"267 715 OFFCURVE",
"181 628 OFFCURVE",
"110 515 OFFCURVE",
"60 390 OFFCURVE",
"32 263 OFFCURVE",
"32 206 QCURVE",
"32 151 OFFCURVE",
"55 72 OFFCURVE",
"96 21 OFFCURVE",
"152 -4 OFFCURVE",
"185 -4 QCURVE"
);
},
{
closed = 1;
nodes = (
"228 165 OFFCURVE",
"207 178 OFFCURVE",
"192 197 OFFCURVE",
"184 221 OFFCURVE",
"184 232 QCURVE",
"184 257 OFFCURVE",
"195 325 OFFCURVE",
"218 395 OFFCURVE",
"251 464 OFFCURVE",
"295 518 OFFCURVE",
"350 551 OFFCURVE",
"383 551 QCURVE",
"399 551 OFFCURVE",
"419 534 OFFCURVE",
"428 509 OFFCURVE",
"431 480 OFFCURVE",
"431 468 QCURVE",
"431 425 OFFCURVE",
"406 320 OFFCURVE",
"358 228 OFFCURVE",
"287 165 OFFCURVE",
"241 165 QCURVE"
);
}
);
width = 505;
}
);
unicode = 006F;
},
{
glyphname = p;
lastChange = "2016-07-07 11:44:19 +0000";
layers = (
{
anchors = (
{
name = bottom;
position = "{194, 0}";
},
{
name = top;
position = "{317, 738}";
}
);
background = {
anchors = (
{
name = bottom;
position = "{194, 0}";
},
{
name = top;
position = "{194, 627}";
}
);
paths = (
{
closed = 1;
nodes = (
"174 34 LINE",
"180 75 OFFCURVE",
"187 116 QCURVE",
"193 151 OFFCURVE",
"207 232 OFFCURVE",
"215 267 QCURVE",
"226 267 LINE",
"275 267 OFFCURVE",
"367 316 OFFCURVE",
"437 399 OFFCURVE",
"479 506 OFFCURVE",
"479 563 QCURVE",
"479 603 OFFCURVE",
"463 673 OFFCURVE",
"424 725 OFFCURVE",
"361 756 OFFCURVE",
"315 756 QCURVE",
"289 756 OFFCURVE",
"228 745 OFFCURVE",
"202 739 QCURVE",
"171 732 OFFCURVE",
"141 723 QCURVE",
"134 677 OFFCURVE",
"114 566 OFFCURVE",
"91 447 OFFCURVE",
"67 325 OFFCURVE",
"55 269 QCURVE",
"28 137 OFFCURVE",
"-3 -1 QCURVE"
);
},
{
closed = 1;
nodes = (
"249 443 OFFCURVE",
"271 564 OFFCURVE",
"283 632 QCURVE",
"303 632 OFFCURVE",
"337 593 OFFCURVE",
"337 555 QCURVE",
"337 520 OFFCURVE",
"318 457 OFFCURVE",
"288 409 OFFCURVE",
"252 379 OFFCURVE",
"236 375 QCURVE"
);
}
);
};
layerId = "A5922FF3-8C0B-4EAE-8A2D-3EBDCCE80B0C";
paths = (
{
closed = 1;
nodes = (
"174 34 LINE",
"180 75 OFFCURVE",
"187 116 QCURVE",
"193 151 OFFCURVE",
"207 232 OFFCURVE",
"215 267 QCURVE",
"226 267 LINE",
"275 267 OFFCURVE",
"367 316 OFFCURVE",
"437 399 OFFCURVE",
"479 506 OFFCURVE",
"479 563 QCURVE",
"479 603 OFFCURVE",
"463 673 OFFCURVE",
"424 725 OFFCURVE",
"361 756 OFFCURVE",
"315 756 QCURVE",
"289 756 OFFCURVE",
"228 745 OFFCURVE",
"171 732 OFFCURVE",
"141 723 QCURVE",
"134 677 OFFCURVE",
"114 566 OFFCURVE",
"91 447 OFFCURVE",
"67 325 OFFCURVE",
"55 269 QCURVE",
"28 137 OFFCURVE",
"-3 -1 QCURVE"
);
},
{
closed = 1;
nodes = (
"249 443 OFFCURVE",
"271 564 OFFCURVE",
"283 632 QCURVE",
"303 632 OFFCURVE",
"337 593 OFFCURVE",
"337 555 QCURVE",
"337 520 OFFCURVE",
"318 457 OFFCURVE",
"288 409 OFFCURVE",
"252 379 OFFCURVE",
"236 375 QCURVE"
);
}
);
width = 388;
}
);
unicode = 0070;
},
{
glyphname = q;
lastChange = "2016-07-07 11:44:22 +0000";
layers = (
{
anchors = (
{
name = bottom;
position = "{269, 0}";
},
{
name = top;
position = "{408, 738}";
}
);
background = {
anchors = (
{
name = bottom;
position = "{269, 0}";
},
{
name = top;
position = "{269, 627}";
}
);
paths = (
{
closed = 1;
nodes = (
"477 -31 OFFCURVE",
"519 21 OFFCURVE",
"538 45 QCURVE",
"560 73 OFFCURVE",
"583 102 QCURVE",
"485 217 LINE",
"524 285 OFFCURVE",
"573 454 OFFCURVE",
"573 554 QCURVE",
"573 592 OFFCURVE",
"559 668 OFFCURVE",
"525 728 OFFCURVE",
"465 766 OFFCURVE",
"419 766 QCURVE",
"366 766 OFFCURVE",
"267 715 OFFCURVE",
"181 628 OFFCURVE",
"110 515 OFFCURVE",
"60 390 OFFCURVE",
"32 263 OFFCURVE",
"32 206 QCURVE",
"32 151 OFFCURVE",
"55 72 OFFCURVE",
"96 21 OFFCURVE",
"152 -4 OFFCURVE",
"185 -4 QCURVE",
"229 -4 OFFCURVE",
"325 38 OFFCURVE",
"372 78 QCURVE",
"377 70 LINE",
"397 39 OFFCURVE",
"441 -20 OFFCURVE",
"462 -49 QCURVE"
);
},
{
closed = 1;
nodes = (
"228 165 OFFCURVE",
"207 178 OFFCURVE",
"192 197 OFFCURVE",
"184 221 OFFCURVE",
"184 232 QCURVE",
"184 257 OFFCURVE",
"195 325 OFFCURVE",
"218 395 OFFCURVE",
"251 464 OFFCURVE",
"295 518 OFFCURVE",
"350 551 OFFCURVE",
"383 551 QCURVE",
"399 551 OFFCURVE",
"419 534 OFFCURVE",
"428 509 OFFCURVE",
"431 480 OFFCURVE",
"431 468 QCURVE",
"431 434 OFFCURVE",
"415 354 OFFCURVE",
"401 316 QCURVE",
"379 342 LINE",
"377 340 OFFCURVE",
"365 330 QCURVE",
"354 322 OFFCURVE",
"308 285 OFFCURVE",
"265 252 QCURVE",
"306 184 LINE",
"276 165 OFFCURVE",
"241 165 QCURVE"
);
}
);
};
layerId = "A5922FF3-8C0B-4EAE-8A2D-3EBDCCE80B0C";
paths = (
{
closed = 1;
nodes = (
"477 -31 OFFCURVE",
"519 21 OFFCURVE",
"538 45 QCURVE",
"560 73 OFFCURVE",
"583 102 QCURVE",
"485 217 LINE",
"524 285 OFFCURVE",
"573 454 OFFCURVE",
"573 554 QCURVE",
"573 592 OFFCURVE",
"559 668 OFFCURVE",
"525 728 OFFCURVE",
"465 766 OFFCURVE",
"419 766 QCURVE",
"366 766 OFFCURVE",
"267 715 OFFCURVE",
"181 628 OFFCURVE",
"110 515 OFFCURVE",
"60 390 OFFCURVE",
"32 263 OFFCURVE",
"32 206 QCURVE",
"32 151 OFFCURVE",
"55 72 OFFCURVE",
"96 21 OFFCURVE",
"152 -4 OFFCURVE",
"185 -4 QCURVE",
"229 -4 OFFCURVE",
"325 38 OFFCURVE",
"372 78 QCURVE",
"377 70 LINE",
"397 39 OFFCURVE",
"441 -20 OFFCURVE",
"462 -49 QCURVE"
);
},
{
closed = 1;
nodes = (
"228 165 OFFCURVE",
"207 178 OFFCURVE",
"192 197 OFFCURVE",
"184 221 OFFCURVE",
"184 232 QCURVE",
"184 257 OFFCURVE",
"195 325 OFFCURVE",
"218 395 OFFCURVE",
"251 464 OFFCURVE",
"295 518 OFFCURVE",
"350 551 OFFCURVE",
"383 551 QCURVE",
"399 551 OFFCURVE",
"419 534 OFFCURVE",
"428 509 OFFCURVE",
"431 480 OFFCURVE",
"431 468 QCURVE",
"431 434 OFFCURVE",
"415 354 OFFCURVE",
"401 316 QCURVE",
"379 342 LINE",
"377 340 OFFCURVE",
"365 330 QCURVE",
"354 322 OFFCURVE",
"308 285 OFFCURVE",
"265 252 QCURVE",
"306 184 LINE",
"276 165 OFFCURVE",
"241 165 QCURVE"
);
}
);
width = 538;
}
);
unicode = 0071;
},
{
glyphname = r;
lastChange = "2016-07-07 11:44:24 +0000";
layers = (
{
anchors = (
{
name = bottom;
position = "{228, 0}";
},
{
name = top;
position = "{370, 738}";
}
);
background = {
anchors = (
{
name = bottom;
position = "{228, 0}";
},
{
name = top;
position = "{228, 627}";
}
);
paths = (
{
closed = 1;
nodes = (
"170 42 LINE",
"179 91 OFFCURVE",
"188 139 QCURVE",
"196 180 OFFCURVE",
"213 268 OFFCURVE",
"219 301 QCURVE",
"232 305 LINE",
"233 294 OFFCURVE",
"242 258 OFFCURVE",
"254 213 OFFCURVE",
"268 163 OFFCURVE",
"275 139 QCURVE",
"292 82 OFFCURVE",
"312 16 QCURVE",
"471 72 LINE",
"450 123 OFFCURVE",
"429 174 QCURVE",
"411 218 OFFCURVE",
"369 315 OFFCURVE",
"350 356 QCURVE",
"386 375 OFFCURVE",
"449 433 OFFCURVE",
"497 504 OFFCURVE",
"525 583 OFFCURVE",
"525 624 QCURVE",
"525 651 OFFCURVE",
"513 696 OFFCURVE",
"483 730 OFFCURVE",
"431 749 OFFCURVE",
"391 749 QCURVE",
"325 749 OFFCURVE",
"189 731 OFFCURVE",
"131 713 QCURVE",
"126 668 OFFCURVE",
"109 558 OFFCURVE",
"89 440 OFFCURVE",
"67 320 OFFCURVE",
"57 265 QCURVE",
"32 135 OFFCURVE",
"4 -1 QCURVE"
);
},
{
closed = 1;
nodes = (
"278 606 LINE",
"287 606 OFFCURVE",
"310 607 OFFCURVE",
"322 607 QCURVE",
"338 607 OFFCURVE",
"369 605 OFFCURVE",
"394 598 OFFCURVE",
"409 585 OFFCURVE",
"409 573 QCURVE",
"409 557 OFFCURVE",
"372 514 OFFCURVE",
"320 474 OFFCURVE",
"264 445 OFFCURVE",
"245 443 QCURVE"
);
}
);
};
layerId = "A5922FF3-8C0B-4EAE-8A2D-3EBDCCE80B0C";
paths = (
{
closed = 1;
nodes = (
"170 42 LINE",
"179 91 OFFCURVE",
"188 139 QCURVE",
"196 180 OFFCURVE",
"213 268 OFFCURVE",
"219 301 QCURVE",
"232 305 LINE",
"233 294 OFFCURVE",
"242 258 OFFCURVE",
"254 213 OFFCURVE",
"268 163 OFFCURVE",
"275 139 QCURVE",
"292 82 OFFCURVE",
"312 16 QCURVE",
"471 72 LINE",
"450 123 OFFCURVE",
"429 174 QCURVE",
"411 218 OFFCURVE",
"369 315 OFFCURVE",
"350 356 QCURVE",
"386 375 OFFCURVE",
"449 433 OFFCURVE",
"497 504 OFFCURVE",
"525 583 OFFCURVE",
"525 624 QCURVE",
"525 651 OFFCURVE",
"513 696 OFFCURVE",
"483 730 OFFCURVE",
"431 749 OFFCURVE",
"391 749 QCURVE",
"325 749 OFFCURVE",
"189 731 OFFCURVE",
"131 713 QCURVE",
"126 668 OFFCURVE",
"109 558 OFFCURVE",
"89 440 OFFCURVE",
"67 320 OFFCURVE",
"57 265 QCURVE",
"32 135 OFFCURVE",
"4 -1 QCURVE"
);
},
{
closed = 1;
nodes = (
"278 606 LINE",
"287 606 OFFCURVE",
"310 607 OFFCURVE",
"322 607 QCURVE",
"338 607 OFFCURVE",
"369 605 OFFCURVE",
"394 598 OFFCURVE",
"409 585 OFFCURVE",
"409 573 QCURVE",
"409 557 OFFCURVE",
"372 514 OFFCURVE",
"320 474 OFFCURVE",
"264 445 OFFCURVE",
"245 443 QCURVE"
);
}
);
width = 455;
}
);
unicode = 0072;
},
{
glyphname = s;
lastChange = "2016-07-07 11:44:27 +0000";
layers = (
{
anchors = (
{
name = bottom;
position = "{220, 0}";
},
{
name = top;
position = "{367, 738}";
}
);
background = {
anchors = (
{
name = bottom;
position = "{220, 0}";
},
{
name = top;
position = "{220, 627}";
}
);
paths = (
{
closed = 1;
nodes = (
"233 -2 OFFCURVE",
"335 35 OFFCURVE",
"410 102 OFFCURVE",
"454 196 OFFCURVE",
"454 253 QCURVE",
"454 307 OFFCURVE",
"426 378 OFFCURVE",
"385 425 OFFCURVE",
"337 455 OFFCURVE",
"296 483 OFFCURVE",
"268 516 OFFCURVE",
"268 541 QCURVE",
"268 556 OFFCURVE",
"285 583 OFFCURVE",
"308 602 OFFCURVE",
"332 614 OFFCURVE",
"340 614 QCURVE",
"357 614 OFFCURVE",
"379 587 OFFCURVE",
"379 556 QCURVE",
"379 548 OFFCURVE",
"376 531 OFFCURVE",
"374 523 QCURVE",
"522 566 LINE",
"524 583 OFFCURVE",
"529 611 OFFCURVE",
"529 626 QCURVE",
"529 659 OFFCURVE",
"508 705 OFFCURVE",
"472 734 OFFCURVE",
"423 748 OFFCURVE",
"395 748 QCURVE",
"345 748 OFFCURVE",
"232 709 OFFCURVE",
"137 642 OFFCURVE",
"74 550 OFFCURVE",
"74 497 QCURVE",
"74 464 OFFCURVE",
"106 411 OFFCURVE",
"153 368 OFFCURVE",
"208 329 OFFCURVE",
"255 291 OFFCURVE",
"287 249 OFFCURVE",
"287 224 QCURVE",
"287 210 OFFCURVE",
"273 188 OFFCURVE",
"251 172 OFFCURVE",
"224 164 OFFCURVE",
"212 164 QCURVE",
"198 164 OFFCURVE",
"162 177 OFFCURVE",
"126 198 OFFCURVE",
"97 225 OFFCURVE",
"90 239 QCURVE",
"14 90 LINE",
"52 42 OFFCURVE",
"134 -2 OFFCURVE",
"175 -2 QCURVE"
);
}
);
};
layerId = "A5922FF3-8C0B-4EAE-8A2D-3EBDCCE80B0C";
paths = (
{
closed = 1;
nodes = (
"233 -2 OFFCURVE",
"335 35 OFFCURVE",
"410 102 OFFCURVE",
"454 196 OFFCURVE",
"454 253 QCURVE",
"454 307 OFFCURVE",
"426 378 OFFCURVE",
"385 425 OFFCURVE",
"337 455 OFFCURVE",
"296 483 OFFCURVE",
"268 516 OFFCURVE",
"268 541 QCURVE",
"268 556 OFFCURVE",
"285 583 OFFCURVE",
"308 602 OFFCURVE",
"332 614 OFFCURVE",
"340 614 QCURVE",
"357 614 OFFCURVE",
"379 587 OFFCURVE",
"379 556 QCURVE",
"379 548 OFFCURVE",
"376 531 OFFCURVE",
"374 523 QCURVE",
"522 566 LINE",
"524 583 OFFCURVE",
"529 611 OFFCURVE",
"529 626 QCURVE",
"529 659 OFFCURVE",
"508 705 OFFCURVE",
"472 734 OFFCURVE",
"423 748 OFFCURVE",
"395 748 QCURVE",
"345 748 OFFCURVE",
"232 709 OFFCURVE",
"137 642 OFFCURVE",
"74 550 OFFCURVE",
"74 497 QCURVE",
"74 464 OFFCURVE",
"106 411 OFFCURVE",
"153 368 OFFCURVE",
"208 329 OFFCURVE",
"255 291 OFFCURVE",
"287 249 OFFCURVE",
"287 224 QCURVE",
"287 210 OFFCURVE",
"273 188 OFFCURVE",
"251 172 OFFCURVE",
"224 164 OFFCURVE",
"212 164 QCURVE",
"198 164 OFFCURVE",
"162 177 OFFCURVE",
"126 198 OFFCURVE",
"97 225 OFFCURVE",
"90 239 QCURVE",
"14 90 LINE",
"52 42 OFFCURVE",
"134 -2 OFFCURVE",
"175 -2 QCURVE"
);
}
);
width = 440;
}
);
unicode = 0073;
},
{
glyphname = t;
lastChange = "2016-07-07 11:44:29 +0000";
layers = (
{
anchors = (
{
name = bottom;
position = "{186, 0}";
},
{
name = center;
position = "{186, 369}";
},
{
name = top;
position = "{304, 738}";
},
{
name = topright;
position = "{351, 738}";
}
);
background = {
anchors = (
{
name = bottom;
position = "{186, 0}";
},
{
name = center;
position = "{186, 314}";
},
{
name = top;
position = "{186, 627}";
},
{
name = topright;
position = "{351, 627}";
}
);
paths = (
{
closed = 1;
nodes = (
"276 28 LINE",
"291 136 OFFCURVE",
"307 238 QCURVE",
"314 281 OFFCURVE",
"329 375 OFFCURVE",
"344 466 OFFCURVE",
"360 551 OFFCURVE",
"368 586 QCURVE",
"390 590 OFFCURVE",
"436 595 OFFCURVE",
"459 601 QCURVE",
"463 619 OFFCURVE",
"472 668 OFFCURVE",
"477 691 QCURVE",
"488 746 LINE",
"449 741 OFFCURVE",
"404 737 QCURVE",
"366 734 OFFCURVE",
"268 729 OFFCURVE",
"216 729 QCURVE",
"189 729 OFFCURVE",
"136 731 OFFCURVE",
"110 733 QCURVE",
"109 707 OFFCURVE",
"108 683 QCURVE",
"107 662 OFFCURVE",
"106 618 OFFCURVE",
"105 602 QCURVE",
"129 595 OFFCURVE",
"177 597 OFFCURVE",
"201 594 QCURVE",
"196 556 OFFCURVE",
"182 465 OFFCURVE",
"165 368 OFFCURVE",
"146 267 OFFCURVE",
"137 221 QCURVE",
"116 112 OFFCURVE",
"92 -1 QCURVE"
);
}
);
};
layerId = "A5922FF3-8C0B-4EAE-8A2D-3EBDCCE80B0C";
paths = (
{
closed = 1;
nodes = (
"276 28 LINE",
"291 136 OFFCURVE",
"307 238 QCURVE",
"314 281 OFFCURVE",
"329 375 OFFCURVE",
"344 466 OFFCURVE",
"360 551 OFFCURVE",
"368 586 QCURVE",
"390 590 OFFCURVE",
"436 595 OFFCURVE",
"459 601 QCURVE",
"463 619 OFFCURVE",
"472 668 OFFCURVE",
"477 691 QCURVE",
"488 746 LINE",
"449 741 OFFCURVE",
"366 734 OFFCURVE",
"268 729 OFFCURVE",
"216 729 QCURVE",
"189 729 OFFCURVE",
"136 731 OFFCURVE",
"110 733 QCURVE",
"109 707 OFFCURVE",
"108 683 QCURVE",
"107 662 OFFCURVE",
"106 618 OFFCURVE",
"105 602 QCURVE",
"129 595 OFFCURVE",
"177 597 OFFCURVE",
"201 594 QCURVE",
"196 556 OFFCURVE",
"182 465 OFFCURVE",
"165 368 OFFCURVE",
"146 267 OFFCURVE",
"137 221 QCURVE",
"116 112 OFFCURVE",
"92 -1 QCURVE"
);
}
);
width = 371;
}
);
unicode = 0074;
},
{
glyphname = u;
lastChange = "2016-10-05 14:01:45 +0000";
layers = (
{
anchors = (
{
name = bottom;
position = "{175, -20}";
},
{
name = ogonek;
position = "{386, 10}";
},
{
name = top;
position = "{389, 738}";
},
{
name = topright;
position = "{459, 708}";
}
);
background = {
anchors = (
{
name = bottom;
position = "{215, 0}";
},
{
name = ogonek;
position = "{386, 10}";
},
{
name = top;
position = "{215, 627}";
},
{
name = topright;
position = "{409, 627}";
}
);
paths = (
{
closed = 1;
nodes = (
"209 -18 OFFCURVE",
"289 6 OFFCURVE",
"359 59 OFFCURVE",
"412 141 OFFCURVE",
"426 200 QCURVE",
"437 249 OFFCURVE",
"461 367 OFFCURVE",
"485 488 OFFCURVE",
"505 601 OFFCURVE",
"521 689 OFFCURVE",
"531 742 OFFCURVE",
"531 742 QCURVE",
"376 732 LINE",
"359 636 OFFCURVE",
"342 546 QCURVE",
"335 507 OFFCURVE",
"319 425 OFFCURVE",
"304 346 OFFCURVE",
"289 273 OFFCURVE",
"283 244 QCURVE",
"280 232 OFFCURVE",
"272 192 OFFCURVE",
"257 154 OFFCURVE",
"234 126 OFFCURVE",
"217 126 QCURVE",
"205 126 OFFCURVE",
"188 147 OFFCURVE",
"188 164 QCURVE",
"188 184 OFFCURVE",
"198 234 OFFCURVE",
"203 258 QCURVE",
"205 267 OFFCURVE",
"216 319 OFFCURVE",
"231 391 OFFCURVE",
"249 477 OFFCURVE",
"258 520 QCURVE",
"279 621 OFFCURVE",
"305 744 QCURVE",
"274 741 OFFCURVE",
"243 738 QCURVE",
"217 736 OFFCURVE",
"158 730 OFFCURVE",
"136 728 QCURVE",
"134 720 OFFCURVE",
"120 649 OFFCURVE",
"100 543 OFFCURVE",
"76 413 OFFCURVE",
"55 284 OFFCURVE",
"37 165 OFFCURVE",
"33 123 QCURVE",
"32 119 OFFCURVE",
"32 111 OFFCURVE",
"32 107 QCURVE",
"32 75 OFFCURVE",
"57 28 OFFCURVE",
"96 -3 OFFCURVE",
"145 -18 OFFCURVE",
"169 -18 QCURVE"
);
}
);
};
layerId = "A5922FF3-8C0B-4EAE-8A2D-3EBDCCE80B0C";
paths = (
{
closed = 1;
nodes = (
"209 -18 OFFCURVE",
"289 6 OFFCURVE",
"359 59 OFFCURVE",
"412 141 OFFCURVE",
"426 200 QCURVE",
"437 249 OFFCURVE",
"461 367 OFFCURVE",
"485 488 OFFCURVE",
"505 601 OFFCURVE",
"521 689 OFFCURVE",
"531 742 OFFCURVE",
"531 742 QCURVE",
"376 732 LINE",
"359 636 OFFCURVE",
"342 546 QCURVE",
"335 507 OFFCURVE",
"319 425 OFFCURVE",
"304 346 OFFCURVE",
"289 273 OFFCURVE",
"283 244 QCURVE",
"280 232 OFFCURVE",
"272 192 OFFCURVE",
"257 154 OFFCURVE",
"234 126 OFFCURVE",
"217 126 QCURVE",
"205 126 OFFCURVE",
"188 147 OFFCURVE",
"188 164 QCURVE",
"188 184 OFFCURVE",
"198 234 OFFCURVE",
"205 267 OFFCURVE",
"216 319 OFFCURVE",
"231 391 OFFCURVE",
"249 477 OFFCURVE",
"258 520 QCURVE",
"279 621 OFFCURVE",
"305 744 QCURVE",
"274 741 OFFCURVE",
"243 738 QCURVE",
"217 736 OFFCURVE",
"158 730 OFFCURVE",
"136 728 QCURVE",
"134 720 OFFCURVE",
"120 649 OFFCURVE",
"100 543 OFFCURVE",
"76 413 OFFCURVE",
"55 284 OFFCURVE",
"37 165 OFFCURVE",
"33 123 QCURVE",
"32 119 OFFCURVE",
"32 111 OFFCURVE",
"32 107 QCURVE",
"32 75 OFFCURVE",
"57 28 OFFCURVE",
"96 -3 OFFCURVE",
"145 -18 OFFCURVE",
"169 -18 QCURVE"
);
}
);
width = 429;
}
);
unicode = 0075;
},
{
glyphname = v;
lastChange = "2016-07-07 11:33:16 +0000";
layers = (
{
anchors = (
{
name = bottom;
position = "{194, 0}";
},
{
name = top;
position = "{194, 738}";
}
);
background = {
anchors = (
{
name = bottom;
position = "{194, 0}";
},
{
name = top;
position = "{194, 627}";
}
);
paths = (
{
closed = 1;
nodes = (
"326 31 LINE",
"358 170 OFFCURVE",
"391 302 QCURVE",
"405 358 OFFCURVE",
"435 479 OFFCURVE",
"467 596 OFFCURVE",
"497 705 OFFCURVE",
"511 750 QCURVE",
"487 747 OFFCURVE",
"431 744 OFFCURVE",
"406 742 QCURVE",
"377 740 OFFCURVE",
"349 739 QCURVE",
"235 195 LINE",
"216 195 LINE",
"219 221 OFFCURVE",
"227 297 OFFCURVE",
"235 385 OFFCURVE",
"244 480 OFFCURVE",
"249 526 QCURVE",
"260 633 OFFCURVE",
"271 752 QCURVE",
"271 752 OFFCURVE",
"239 749 OFFCURVE",
"192 746 OFFCURVE",
"136 744 OFFCURVE",
"112 744 QCURVE",
"111 696 OFFCURVE",
"106 581 OFFCURVE",
"99 457 OFFCURVE",
"90 330 OFFCURVE",
"85 272 QCURVE",
"74 134 OFFCURVE",
"60 -9 QCURVE"
);
}
);
};
layerId = "A5922FF3-8C0B-4EAE-8A2D-3EBDCCE80B0C";
paths = (
{
closed = 1;
nodes = (
"326 31 LINE",
"358 170 OFFCURVE",
"391 302 QCURVE",
"405 358 OFFCURVE",
"435 479 OFFCURVE",
"467 596 OFFCURVE",
"497 705 OFFCURVE",
"511 750 QCURVE",
"487 747 OFFCURVE",
"431 744 OFFCURVE",
"406 742 QCURVE",
"377 740 OFFCURVE",
"349 739 QCURVE",
"235 195 LINE",
"216 195 LINE",
"219 221 OFFCURVE",
"227 297 OFFCURVE",
"235 385 OFFCURVE",
"244 480 OFFCURVE",
"260 633 OFFCURVE",
"271 752 QCURVE",
"271 752 OFFCURVE",
"239 749 OFFCURVE",
"192 746 OFFCURVE",
"136 744 OFFCURVE",
"112 744 QCURVE",
"111 696 OFFCURVE",
"106 581 OFFCURVE",
"99 457 OFFCURVE",
"90 330 OFFCURVE",
"85 272 QCURVE",
"74 134 OFFCURVE",
"60 -9 QCURVE"
);
}
);
width = 388;
}
);
unicode = 0076;
},
{
glyphname = w;
lastChange = "2016-07-07 11:44:40 +0000";
layers = (
{
anchors = (
{
name = bottom;
position = "{308, 0}";
},
{
name = top;
position = "{481, 742}";
}
);
background = {
anchors = (
{
name = bottom;
position = "{308, 0}";
},
{
name = top;
position = "{308, 627}";
}
);
paths = (
{
closed = 1;
nodes = (
"255 34 LINE",
"356 405 LINE",
"369 405 LINE",
"324 10 LINE",
"555 49 LINE",
"586 187 OFFCURVE",
"619 318 QCURVE",
"633 374 OFFCURVE",
"663 493 OFFCURVE",
"695 609 OFFCURVE",
"726 715 OFFCURVE",
"741 758 QCURVE",
"717 753 OFFCURVE",
"653 744 OFFCURVE",
"624 740 QCURVE",
"590 736 OFFCURVE",
"555 731 QCURVE",
"458 291 LINE",
"439 291 LINE",
"442 320 OFFCURVE",
"450 404 OFFCURVE",
"458 498 OFFCURVE",
"466 595 OFFCURVE",
"474 676 OFFCURVE",
"479 733 OFFCURVE",
"481 742 QCURVE",
"463 738 OFFCURVE",
"445 735 QCURVE",
"429 733 OFFCURVE",
"391 729 OFFCURVE",
"373 729 QCURVE",
"364 729 LINE",
"358 709 OFFCURVE",
"341 649 OFFCURVE",
"322 580 OFFCURVE",
"300 505 OFFCURVE",
"290 469 QCURVE",
"265 385 OFFCURVE",
"239 291 QCURVE",
"223 291 LINE",
"243 416 OFFCURVE",
"259 515 QCURVE",
"266 557 OFFCURVE",
"279 638 OFFCURVE",
"289 702 OFFCURVE",
"295 742 OFFCURVE",
"295 743 QCURVE",
"253 740 OFFCURVE",
"168 725 OFFCURVE",
"120 723 QCURVE",
"42 -4 LINE"
);
}
);
};
layerId = "A5922FF3-8C0B-4EAE-8A2D-3EBDCCE80B0C";
paths = (
{
closed = 1;
nodes = (
"255 34 LINE",
"356 405 LINE",
"369 405 LINE",
"324 10 LINE",
"555 49 LINE",
"586 187 OFFCURVE",
"619 318 QCURVE",
"633 374 OFFCURVE",
"663 493 OFFCURVE",
"695 609 OFFCURVE",
"726 715 OFFCURVE",
"741 758 QCURVE",
"717 753 OFFCURVE",
"653 744 OFFCURVE",
"624 740 QCURVE",
"590 736 OFFCURVE",
"555 731 QCURVE",
"458 291 LINE",
"439 291 LINE",
"442 320 OFFCURVE",
"450 404 OFFCURVE",
"458 498 OFFCURVE",
"466 595 OFFCURVE",
"474 676 OFFCURVE",
"479 733 OFFCURVE",
"481 742 QCURVE",
"463 738 OFFCURVE",
"429 733 OFFCURVE",
"391 729 OFFCURVE",
"373 729 QCURVE",
"364 729 LINE",
"358 709 OFFCURVE",
"341 649 OFFCURVE",
"322 580 OFFCURVE",
"300 505 OFFCURVE",
"265 385 OFFCURVE",
"239 291 QCURVE",
"223 291 LINE",
"243 416 OFFCURVE",
"266 557 OFFCURVE",
"279 638 OFFCURVE",
"289 702 OFFCURVE",
"295 742 OFFCURVE",
"295 743 QCURVE",
"253 740 OFFCURVE",
"168 725 OFFCURVE",
"120 723 QCURVE",
"42 -4 LINE"
);
}
);
width = 615;
}
);
unicode = 0077;
},
{
glyphname = x;
lastChange = "2016-07-07 11:33:16 +0000";
layers = (
{
anchors = (
{
name = bottom;
position = "{211, 0}";
},
{
name = top;
position = "{211, 738}";
}
);
background = {
anchors = (
{
name = bottom;
position = "{211, 0}";
},
{
name = top;
position = "{211, 627}";
}
);
paths = (
{
closed = 1;
nodes = (
"250 -6 OFFCURVE",
"287 5 OFFCURVE",
"329 17 OFFCURVE",
"373 30 OFFCURVE",
"410 40 OFFCURVE",
"434 46 OFFCURVE",
"436 47 QCURVE",
"425 91 OFFCURVE",
"405 170 OFFCURVE",
"386 248 OFFCURVE",
"370 328 OFFCURVE",
"364 373 QCURVE",
"386 421 OFFCURVE",
"425 500 OFFCURVE",
"464 575 OFFCURVE",
"507 651 OFFCURVE",
"534 696 QCURVE",
"385 736 LINE",
"360 686 OFFCURVE",
"314 584 OFFCURVE",
"291 532 QCURVE",
"286 582 OFFCURVE",
"272 698 OFFCURVE",
"267 747 QCURVE",
"103 679 LINE",
"112 634 OFFCURVE",
"128 563 OFFCURVE",
"142 494 OFFCURVE",
"154 422 OFFCURVE",
"160 376 QCURVE",
"117 279 OFFCURVE",
"14 100 OFFCURVE",
"-37 9 QCURVE",
"137 -6 LINE",
"156 33 OFFCURVE",
"173 71 QCURVE",
"187 103 OFFCURVE",
"217 171 OFFCURVE",
"226 194 QCURVE",
"227 171 OFFCURVE",
"232 103 OFFCURVE",
"234 70 QCURVE",
"237 31 OFFCURVE",
"240 -10 QCURVE"
);
}
);
};
layerId = "A5922FF3-8C0B-4EAE-8A2D-3EBDCCE80B0C";
paths = (
{
closed = 1;
nodes = (
"250 -6 OFFCURVE",
"287 5 OFFCURVE",
"329 17 OFFCURVE",
"373 30 OFFCURVE",
"410 40 OFFCURVE",
"434 46 OFFCURVE",
"436 47 QCURVE",
"425 91 OFFCURVE",
"405 170 OFFCURVE",
"386 248 OFFCURVE",
"370 328 OFFCURVE",
"364 373 QCURVE",
"386 421 OFFCURVE",
"425 500 OFFCURVE",
"464 575 OFFCURVE",
"507 651 OFFCURVE",
"534 696 QCURVE",
"385 736 LINE",
"360 686 OFFCURVE",
"314 584 OFFCURVE",
"291 532 QCURVE",
"286 582 OFFCURVE",
"272 698 OFFCURVE",
"267 747 QCURVE",
"103 679 LINE",
"112 634 OFFCURVE",
"128 563 OFFCURVE",
"142 494 OFFCURVE",
"154 422 OFFCURVE",
"160 376 QCURVE",
"117 279 OFFCURVE",
"14 100 OFFCURVE",
"-37 9 QCURVE",
"137 -6 LINE",
"156 33 OFFCURVE",
"173 71 QCURVE",
"187 103 OFFCURVE",
"217 171 OFFCURVE",
"226 194 QCURVE",
"227 171 OFFCURVE",
"232 103 OFFCURVE",
"234 70 QCURVE",
"237 31 OFFCURVE",
"240 -10 QCURVE"
);
}
);
width = 421;
}
);
unicode = 0078;
},
{
glyphname = y;
lastChange = "2016-10-05 14:02:06 +0000";
layers = (
{
anchors = (
{
name = bottom;
position = "{140, 0}";
},
{
name = top;
position = "{328, 758}";
}
);
background = {
anchors = (
{
name = bottom;
position = "{197, 0}";
},
{
name = top;
position = "{197, 627}";
}
);
paths = (
{
closed = 1;
nodes = (
"254 37 LINE",
"264 71 OFFCURVE",
"273 104 QCURVE",
"281 133 OFFCURVE",
"296 197 OFFCURVE",
"301 223 QCURVE",
"316 256 OFFCURVE",
"353 332 OFFCURVE",
"392 413 OFFCURVE",
"431 494 OFFCURVE",
"449 531 QCURVE",
"491 618 OFFCURVE",
"535 707 QCURVE",
"376 742 LINE",
"355 680 OFFCURVE",
"336 624 QCURVE",
"319 575 OFFCURVE",
"282 473 OFFCURVE",
"268 438 QCURVE",
"268 454 OFFCURVE",
"268 499 OFFCURVE",
"269 550 OFFCURVE",
"269 603 OFFCURVE",
"269 629 QCURVE",
"269 754 LINE",
"102 690 LINE",
"102 690 OFFCURVE",
"106 645 OFFCURVE",
"111 570 OFFCURVE",
"117 473 OFFCURVE",
"123 369 OFFCURVE",
"126 265 OFFCURVE",
"126 221 QCURVE",
"79 15 LINE"
);
}
);
};
layerId = "A5922FF3-8C0B-4EAE-8A2D-3EBDCCE80B0C";
paths = (
{
closed = 1;
nodes = (
"254 37 LINE",
"264 71 OFFCURVE",
"273 104 QCURVE",
"281 133 OFFCURVE",
"296 197 OFFCURVE",
"301 223 QCURVE",
"316 256 OFFCURVE",
"353 332 OFFCURVE",
"392 413 OFFCURVE",
"431 494 OFFCURVE",
"449 531 QCURVE",
"491 618 OFFCURVE",
"535 707 QCURVE",
"376 742 LINE",
"355 680 OFFCURVE",
"336 624 QCURVE",
"319 575 OFFCURVE",
"282 473 OFFCURVE",
"268 438 QCURVE",
"268 454 OFFCURVE",
"268 499 OFFCURVE",
"269 550 OFFCURVE",
"269 603 OFFCURVE",
"269 629 QCURVE",
"269 754 LINE",
"102 690 LINE",
"102 690 OFFCURVE",
"106 645 OFFCURVE",
"111 570 OFFCURVE",
"117 473 OFFCURVE",
"123 369 OFFCURVE",
"126 265 OFFCURVE",
"126 221 QCURVE",
"79 15 LINE"
);
}
);
width = 393;
}
);
unicode = 0079;
},
{
glyphname = z;
lastChange = "2016-07-07 11:44:48 +0000";
layers = (
{
anchors = (
{
name = bottom;
position = "{221, 0}";
},
{
name = top;
position = "{414, 738}";
}
);
background = {
anchors = (
{
name = bottom;
position = "{221, 0}";
},
{
name = top;
position = "{221, 627}";
}
);
paths = (
{
closed = 1;
nodes = (
"31 13 OFFCURVE",
"108 22 OFFCURVE",
"198 29 OFFCURVE",
"292 35 OFFCURVE",
"373 39 OFFCURVE",
"432 41 OFFCURVE",
"441 41 QCURVE",
"444 197 LINE",
"401 194 OFFCURVE",
"362 191 QCURVE",
"328 189 OFFCURVE",
"259 185 OFFCURVE",
"239 185 QCURVE",
"518 583 LINE",
"545 724 LINE",
"126 694 LINE",
"107 533 LINE",
"131 536 LINE",
"155 540 OFFCURVE",
"219 548 OFFCURVE",
"283 555 OFFCURVE",
"300 555 QCURVE",
"9 159 LINE",
"8 9 LINE"
);
}
);
};
layerId = "A5922FF3-8C0B-4EAE-8A2D-3EBDCCE80B0C";
paths = (
{
closed = 1;
nodes = (
"31 13 OFFCURVE",
"108 22 OFFCURVE",
"198 29 OFFCURVE",
"292 35 OFFCURVE",
"373 39 OFFCURVE",
"432 41 OFFCURVE",
"441 41 QCURVE",
"444 197 LINE",
"401 194 OFFCURVE",
"328 189 OFFCURVE",
"259 185 OFFCURVE",
"239 185 QCURVE",
"518 583 LINE",
"545 724 LINE",
"126 694 LINE",
"107 533 LINE",
"131 536 LINE",
"155 540 OFFCURVE",
"219 548 OFFCURVE",
"283 555 OFFCURVE",
"300 555 QCURVE",
"9 159 LINE",
"8 9 LINE"
);
}
);
width = 441;
}
);
unicode = 007A;
},
{
glyphname = braceleft;
lastChange = "2016-07-07 11:28:24 +0000";
layers = (
{
background = {
paths = (
{
closed = 1;
nodes = (
"302 156 LINE",
"290 160 OFFCURVE",
"267 176 OFFCURVE",
"249 198 OFFCURVE",
"237 223 OFFCURVE",
"237 236 QCURVE",
"237 272 LINE",
"237 290 OFFCURVE",
"234 328 OFFCURVE",
"222 361 OFFCURVE",
"200 386 OFFCURVE",
"181 393 QCURVE",
"211 401 OFFCURVE",
"242 436 OFFCURVE",
"259 479 OFFCURVE",
"271 526 OFFCURVE",
"293 566 OFFCURVE",
"332 595 OFFCURVE",
"368 598 QCURVE",
"309 749 LINE",
"253 727 OFFCURVE",
"193 668 OFFCURVE",
"162 604 OFFCURVE",
"149 541 OFFCURVE",
"131 491 OFFCURVE",
"97 460 OFFCURVE",
"61 460 QCURVE",
"53 460 LINE",
"35 342 LINE",
"63 339 OFFCURVE",
"96 314 OFFCURVE",
"111 277 OFFCURVE",
"115 232 OFFCURVE",
"115 210 QCURVE",
"115 173 OFFCURVE",
"135 111 OFFCURVE",
"171 61 OFFCURVE",
"220 21 OFFCURVE",
"248 7 QCURVE"
);
}
);
};
layerId = "A5922FF3-8C0B-4EAE-8A2D-3EBDCCE80B0C";
paths = (
{
closed = 1;
nodes = (
"302 156 LINE",
"290 160 OFFCURVE",
"267 176 OFFCURVE",
"249 198 OFFCURVE",
"237 223 OFFCURVE",
"237 236 QCURVE",
"237 272 LINE",
"237 290 OFFCURVE",
"234 328 OFFCURVE",
"222 361 OFFCURVE",
"200 386 OFFCURVE",
"181 393 QCURVE",
"211 401 OFFCURVE",
"242 436 OFFCURVE",
"259 479 OFFCURVE",
"271 526 OFFCURVE",
"293 566 OFFCURVE",
"332 595 OFFCURVE",
"368 598 QCURVE",
"309 749 LINE",
"253 727 OFFCURVE",
"193 668 OFFCURVE",
"162 604 OFFCURVE",
"149 541 OFFCURVE",
"131 491 OFFCURVE",
"97 460 OFFCURVE",
"61 460 QCURVE",
"53 460 LINE",
"35 342 LINE",
"63 339 OFFCURVE",
"96 314 OFFCURVE",
"111 277 OFFCURVE",
"115 232 OFFCURVE",
"115 210 QCURVE",
"115 173 OFFCURVE",
"135 111 OFFCURVE",
"171 61 OFFCURVE",
"220 21 OFFCURVE",
"248 7 QCURVE"
);
}
);
width = 288;
}
);
unicode = 007B;
},
{
glyphname = bar;
lastChange = "2016-07-07 11:28:24 +0000";
layers = (
{
background = {
paths = (
{
closed = 1;
nodes = (
"25 -18 OFFCURVE",
"71 -12 OFFCURVE",
"129 -5 OFFCURVE",
"183 0 OFFCURVE",
"192 0 QCURVE",
"199 46 OFFCURVE",
"217 162 OFFCURVE",
"239 288 OFFCURVE",
"262 419 OFFCURVE",
"273 480 QCURVE",
"299 623 OFFCURVE",
"328 776 QCURVE",
"171 764 LINE",
"144 607 OFFCURVE",
"118 461 QCURVE",
"107 399 OFFCURVE",
"82 266 OFFCURVE",
"57 139 OFFCURVE",
"33 25 OFFCURVE",
"23 -19 QCURVE"
);
}
);
};
layerId = "A5922FF3-8C0B-4EAE-8A2D-3EBDCCE80B0C";
paths = (
{
closed = 1;
nodes = (
"25 -18 OFFCURVE",
"71 -12 OFFCURVE",
"129 -5 OFFCURVE",
"183 0 OFFCURVE",
"192 0 QCURVE",
"199 46 OFFCURVE",
"217 162 OFFCURVE",
"239 288 OFFCURVE",
"262 419 OFFCURVE",
"273 480 QCURVE",
"299 623 OFFCURVE",
"328 776 QCURVE",
"171 764 LINE",
"144 607 OFFCURVE",
"118 461 QCURVE",
"107 399 OFFCURVE",
"82 266 OFFCURVE",
"57 139 OFFCURVE",
"33 25 OFFCURVE",
"23 -19 QCURVE"
);
}
);
width = 254;
}
);
unicode = 007C;
},
{
glyphname = braceright;
lastChange = "2016-07-07 11:28:24 +0000";
layers = (
{
background = {
paths = (
{
closed = 1;
nodes = (
"71 13 OFFCURVE",
"142 48 OFFCURVE",
"197 99 OFFCURVE",
"234 164 OFFCURVE",
"240 200 QCURVE",
"244 227 OFFCURVE",
"257 273 OFFCURVE",
"280 307 OFFCURVE",
"314 329 OFFCURVE",
"338 332 QCURVE",
"353 450 LINE",
"345 450 LINE",
"324 450 OFFCURVE",
"298 461 OFFCURVE",
"284 482 OFFCURVE",
"280 509 OFFCURVE",
"280 526 QCURVE",
"280 538 OFFCURVE",
"281 564 OFFCURVE",
"281 578 QCURVE",
"281 601 OFFCURVE",
"275 648 OFFCURVE",
"254 693 OFFCURVE",
"213 733 OFFCURVE",
"178 749 QCURVE",
"87 628 LINE",
"119 624 OFFCURVE",
"148 590 OFFCURVE",
"158 542 OFFCURVE",
"156 486 OFFCURVE",
"161 435 OFFCURVE",
"181 393 OFFCURVE",
"206 383 QCURVE",
"185 375 OFFCURVE",
"156 342 OFFCURVE",
"138 300 OFFCURVE",
"128 255 OFFCURVE",
"126 236 QCURVE",
"123 212 OFFCURVE",
"101 181 OFFCURVE",
"70 161 OFFCURVE",
"35 150 OFFCURVE",
"19 146 QCURVE",
"31 7 LINE"
);
}
);
};
layerId = "A5922FF3-8C0B-4EAE-8A2D-3EBDCCE80B0C";
paths = (
{
closed = 1;
nodes = (
"71 13 OFFCURVE",
"142 48 OFFCURVE",
"197 99 OFFCURVE",
"234 164 OFFCURVE",
"240 200 QCURVE",
"244 227 OFFCURVE",
"257 273 OFFCURVE",
"280 307 OFFCURVE",
"314 329 OFFCURVE",
"338 332 QCURVE",
"353 450 LINE",
"345 450 LINE",
"324 450 OFFCURVE",
"298 461 OFFCURVE",
"284 482 OFFCURVE",
"280 509 OFFCURVE",
"280 526 QCURVE",
"280 538 OFFCURVE",
"281 564 OFFCURVE",
"281 578 QCURVE",
"281 601 OFFCURVE",
"275 648 OFFCURVE",
"254 693 OFFCURVE",
"213 733 OFFCURVE",
"178 749 QCURVE",
"87 628 LINE",
"119 624 OFFCURVE",
"148 590 OFFCURVE",
"158 542 OFFCURVE",
"156 486 OFFCURVE",
"161 435 OFFCURVE",
"181 393 OFFCURVE",
"206 383 QCURVE",
"185 375 OFFCURVE",
"156 342 OFFCURVE",
"138 300 OFFCURVE",
"128 255 OFFCURVE",
"126 236 QCURVE",
"123 212 OFFCURVE",
"101 181 OFFCURVE",
"70 161 OFFCURVE",
"35 150 OFFCURVE",
"19 146 QCURVE",
"31 7 LINE"
);
}
);
width = 280;
}
);
unicode = 007D;
},
{
glyphname = asciitilde;
lastChange = "2016-07-07 11:28:24 +0000";
layers = (
{
background = {
paths = (
{
closed = 1;
nodes = (
"169 513 OFFCURVE",
"199 553 OFFCURVE",
"216 553 QCURVE",
"232 553 OFFCURVE",
"266 525 OFFCURVE",
"302 492 OFFCURVE",
"339 464 OFFCURVE",
"358 464 QCURVE",
"383 464 OFFCURVE",
"424 481 OFFCURVE",
"457 509 OFFCURVE",
"483 544 OFFCURVE",
"492 563 QCURVE",
"514 606 OFFCURVE",
"524 662 QCURVE",
"514 669 OFFCURVE",
"501 676 QCURVE",
"478 688 OFFCURVE",
"439 707 QCURVE",
"423 656 OFFCURVE",
"398 618 OFFCURVE",
"386 618 QCURVE",
"375 618 OFFCURVE",
"350 645 OFFCURVE",
"319 676 OFFCURVE",
"277 703 OFFCURVE",
"249 703 QCURVE",
"215 703 OFFCURVE",
"162 674 OFFCURVE",
"123 630 OFFCURVE",
"96 580 OFFCURVE",
"79 536 OFFCURVE",
"71 507 OFFCURVE",
"70 507 QCURVE",
"80 500 OFFCURVE",
"93 493 QCURVE",
"104 487 OFFCURVE",
"135 471 OFFCURVE",
"155 462 QCURVE"
);
}
);
};
layerId = "A5922FF3-8C0B-4EAE-8A2D-3EBDCCE80B0C";
paths = (
{
closed = 1;
nodes = (
"169 513 OFFCURVE",
"199 553 OFFCURVE",
"216 553 QCURVE",
"232 553 OFFCURVE",
"266 525 OFFCURVE",
"302 492 OFFCURVE",
"339 464 OFFCURVE",
"358 464 QCURVE",
"383 464 OFFCURVE",
"424 481 OFFCURVE",
"457 509 OFFCURVE",
"483 544 OFFCURVE",
"492 563 QCURVE",
"514 606 OFFCURVE",
"524 662 QCURVE",
"514 669 OFFCURVE",
"501 676 QCURVE",
"478 688 OFFCURVE",
"439 707 QCURVE",
"423 656 OFFCURVE",
"398 618 OFFCURVE",
"386 618 QCURVE",
"375 618 OFFCURVE",
"350 645 OFFCURVE",
"319 676 OFFCURVE",
"277 703 OFFCURVE",
"249 703 QCURVE",
"215 703 OFFCURVE",
"162 674 OFFCURVE",
"123 630 OFFCURVE",
"96 580 OFFCURVE",
"79 536 OFFCURVE",
"71 507 OFFCURVE",
"70 507 QCURVE",
"80 500 OFFCURVE",
"104 487 OFFCURVE",
"135 471 OFFCURVE",
"155 462 QCURVE"
);
}
);
width = 416;
}
);
unicode = 007E;
},
{
glyphname = cent;
lastChange = "2016-07-07 11:28:24 +0000";
layers = (
{
background = {
paths = (
{
closed = 1;
nodes = (
"163 -88 OFFCURVE",
"176 -87 OFFCURVE",
"200 -84 QCURVE",
"209 -83 OFFCURVE",
"234 -81 OFFCURVE",
"245 -80 QCURVE",
"258 -79 OFFCURVE",
"271 -79 QCURVE",
"276 -47 OFFCURVE",
"281 2 OFFCURVE",
"283 22 QCURVE",
"331 50 OFFCURVE",
"419 167 OFFCURVE",
"453 260 QCURVE",
"336 307 LINE",
"329 287 OFFCURVE",
"310 242 OFFCURVE",
"286 203 OFFCURVE",
"255 177 OFFCURVE",
"236 177 QCURVE",
"225 177 OFFCURVE",
"216 205 OFFCURVE",
"216 229 QCURVE",
"216 258 OFFCURVE",
"229 338 OFFCURVE",
"251 423 OFFCURVE",
"280 506 OFFCURVE",
"314 572 OFFCURVE",
"349 612 OFFCURVE",
"367 612 QCURVE",
"372 612 OFFCURVE",
"378 598 OFFCURVE",
"382 577 OFFCURVE",
"384 554 OFFCURVE",
"384 545 QCURVE",
"384 533 LINE",
"538 579 LINE",
"539 586 OFFCURVE",
"539 599 OFFCURVE",
"539 605 QCURVE",
"539 665 OFFCURVE",
"481 740 OFFCURVE",
"436 747 QCURVE",
"439 763 OFFCURVE",
"445 789 OFFCURVE",
"447 798 QCURVE",
"450 809 OFFCURVE",
"452 816 QCURVE",
"355 814 LINE",
"353 804 OFFCURVE",
"351 792 QCURVE",
"349 781 OFFCURVE",
"345 754 OFFCURVE",
"343 738 QCURVE",
"279 718 OFFCURVE",
"173 616 OFFCURVE",
"98 475 OFFCURVE",
"56 308 OFFCURVE",
"56 224 QCURVE",
"56 123 OFFCURVE",
"126 10 OFFCURVE",
"179 0 QCURVE",
"176 -20 OFFCURVE",
"169 -59 OFFCURVE",
"162 -88 QCURVE"
);
}
);
};
layerId = "A5922FF3-8C0B-4EAE-8A2D-3EBDCCE80B0C";
paths = (
{
closed = 1;
nodes = (
"163 -88 OFFCURVE",
"176 -87 OFFCURVE",
"209 -83 OFFCURVE",
"234 -81 OFFCURVE",
"245 -80 QCURVE",
"258 -79 OFFCURVE",
"271 -79 QCURVE",
"276 -47 OFFCURVE",
"281 2 OFFCURVE",
"283 22 QCURVE",
"331 50 OFFCURVE",
"419 167 OFFCURVE",
"453 260 QCURVE",
"336 307 LINE",
"329 287 OFFCURVE",
"310 242 OFFCURVE",
"286 203 OFFCURVE",
"255 177 OFFCURVE",
"236 177 QCURVE",
"225 177 OFFCURVE",
"216 205 OFFCURVE",
"216 229 QCURVE",
"216 258 OFFCURVE",
"229 338 OFFCURVE",
"251 423 OFFCURVE",
"280 506 OFFCURVE",
"314 572 OFFCURVE",
"349 612 OFFCURVE",
"367 612 QCURVE",
"372 612 OFFCURVE",
"378 598 OFFCURVE",
"382 577 OFFCURVE",
"384 554 OFFCURVE",
"384 545 QCURVE",
"384 533 LINE",
"538 579 LINE",
"539 586 OFFCURVE",
"539 599 OFFCURVE",
"539 605 QCURVE",
"539 665 OFFCURVE",
"481 740 OFFCURVE",
"436 747 QCURVE",
"439 763 OFFCURVE",
"445 789 OFFCURVE",
"447 798 QCURVE",
"450 809 OFFCURVE",
"452 816 QCURVE",
"355 814 LINE",
"353 804 OFFCURVE",
"351 792 QCURVE",
"349 781 OFFCURVE",
"345 754 OFFCURVE",
"343 738 QCURVE",
"279 718 OFFCURVE",
"173 616 OFFCURVE",
"98 475 OFFCURVE",
"56 308 OFFCURVE",
"56 224 QCURVE",
"56 123 OFFCURVE",
"126 10 OFFCURVE",
"179 0 QCURVE",
"176 -20 OFFCURVE",
"169 -59 OFFCURVE",
"162 -88 QCURVE"
);
}
);
width = 457;
}
);
unicode = 00A2;
},
{
glyphname = sterling;
lastChange = "2016-07-07 11:28:24 +0000";
layers = (
{
background = {
paths = (
{
closed = 1;
nodes = (
"35 7 OFFCURVE",
"119 20 OFFCURVE",
"206 29 OFFCURVE",
"293 33 OFFCURVE",
"331 33 QCURVE",
"343 33 OFFCURVE",
"370 32 OFFCURVE",
"382 32 QCURVE",
"382 34 OFFCURVE",
"381 39 OFFCURVE",
"381 42 QCURVE",
"381 58 OFFCURVE",
"385 117 OFFCURVE",
"387 149 QCURVE",
"373 149 OFFCURVE",
"335 148 OFFCURVE",
"295 146 OFFCURVE",
"257 145 OFFCURVE",
"242 144 QCURVE",
"261 161 OFFCURVE",
"288 207 OFFCURVE",
"304 254 OFFCURVE",
"311 298 OFFCURVE",
"311 314 QCURVE",
"328 313 OFFCURVE",
"359 313 OFFCURVE",
"371 312 QCURVE",
"385 311 OFFCURVE",
"398 311 QCURVE",
"415 446 LINE",
"400 445 OFFCURVE",
"383 444 QCURVE",
"369 443 OFFCURVE",
"331 443 OFFCURVE",
"311 443 QCURVE",
"307 466 OFFCURVE",
"292 516 OFFCURVE",
"292 533 QCURVE",
"292 572 OFFCURVE",
"328 600 OFFCURVE",
"352 600 QCURVE",
"378 600 OFFCURVE",
"429 584 OFFCURVE",
"442 577 QCURVE",
"449 600 OFFCURVE",
"456 625 QCURVE",
"462 646 OFFCURVE",
"476 697 OFFCURVE",
"482 720 QCURVE",
"455 734 OFFCURVE",
"385 750 OFFCURVE",
"347 750 QCURVE",
"310 750 OFFCURVE",
"238 732 OFFCURVE",
"182 691 OFFCURVE",
"148 625 OFFCURVE",
"148 577 QCURVE",
"148 521 OFFCURVE",
"168 443 QCURVE",
"163 443 OFFCURVE",
"150 443 OFFCURVE",
"143 444 QCURVE",
"135 444 OFFCURVE",
"126 445 QCURVE",
"95 312 LINE",
"119 312 LINE",
"130 312 OFFCURVE",
"154 312 OFFCURVE",
"165 313 QCURVE",
"156 283 OFFCURVE",
"130 225 OFFCURVE",
"99 177 OFFCURVE",
"66 145 OFFCURVE",
"51 141 QCURVE",
"26 131 LINE",
"20 104 OFFCURVE",
"15 79 QCURVE",
"10 58 OFFCURVE",
"2 13 OFFCURVE",
"0 -2 QCURVE"
);
}
);
};
layerId = "A5922FF3-8C0B-4EAE-8A2D-3EBDCCE80B0C";
paths = (
{
closed = 1;
nodes = (
"35 7 OFFCURVE",
"119 20 OFFCURVE",
"206 29 OFFCURVE",
"293 33 OFFCURVE",
"331 33 QCURVE",
"343 33 OFFCURVE",
"370 32 OFFCURVE",
"382 32 QCURVE",
"382 34 OFFCURVE",
"381 39 OFFCURVE",
"381 42 QCURVE",
"381 58 OFFCURVE",
"385 117 OFFCURVE",
"387 149 QCURVE",
"373 149 OFFCURVE",
"335 148 OFFCURVE",
"295 146 OFFCURVE",
"257 145 OFFCURVE",
"242 144 QCURVE",
"261 161 OFFCURVE",
"288 207 OFFCURVE",
"304 254 OFFCURVE",
"311 298 OFFCURVE",
"311 314 QCURVE",
"328 313 OFFCURVE",
"359 313 OFFCURVE",
"371 312 QCURVE",
"385 311 OFFCURVE",
"398 311 QCURVE",
"415 446 LINE",
"400 445 OFFCURVE",
"369 443 OFFCURVE",
"331 443 OFFCURVE",
"311 443 QCURVE",
"307 466 OFFCURVE",
"292 516 OFFCURVE",
"292 533 QCURVE",
"292 572 OFFCURVE",
"328 600 OFFCURVE",
"352 600 QCURVE",
"378 600 OFFCURVE",
"429 584 OFFCURVE",
"442 577 QCURVE",
"449 600 OFFCURVE",
"456 625 QCURVE",
"462 646 OFFCURVE",
"476 697 OFFCURVE",
"482 720 QCURVE",
"455 734 OFFCURVE",
"385 750 OFFCURVE",
"347 750 QCURVE",
"310 750 OFFCURVE",
"238 732 OFFCURVE",
"182 691 OFFCURVE",
"148 625 OFFCURVE",
"148 577 QCURVE",
"148 521 OFFCURVE",
"168 443 QCURVE",
"163 443 OFFCURVE",
"150 443 OFFCURVE",
"143 444 QCURVE",
"135 444 OFFCURVE",
"126 445 QCURVE",
"95 312 LINE",
"119 312 LINE",
"130 312 OFFCURVE",
"154 312 OFFCURVE",
"165 313 QCURVE",
"156 283 OFFCURVE",
"130 225 OFFCURVE",
"99 177 OFFCURVE",
"66 145 OFFCURVE",
"51 141 QCURVE",
"26 131 LINE",
"20 104 OFFCURVE",
"15 79 QCURVE",
"10 58 OFFCURVE",
"2 13 OFFCURVE",
"0 -2 QCURVE"
);
}
);
width = 411;
}
);
unicode = 00A3;
},
{
glyphname = currency;
lastChange = "2016-07-07 11:28:24 +0000";
layers = (
{
background = {
paths = (
{
closed = 1;
nodes = (
"463 298 LINE",
"459 302 OFFCURVE",
"452 312 QCURVE",
"446 320 OFFCURVE",
"428 347 OFFCURVE",
"414 367 QCURVE",
"446 409 OFFCURVE",
"481 506 OFFCURVE",
"481 555 QCURVE",
"481 588 OFFCURVE",
"472 621 QCURVE",
"519 666 LINE",
"509 676 OFFCURVE",
"477 707 OFFCURVE",
"467 721 QCURVE",
"429 682 LINE",
"397 706 OFFCURVE",
"349 706 QCURVE",
"317 706 OFFCURVE",
"255 681 OFFCURVE",
"229 660 QCURVE",
"223 669 OFFCURVE",
"215 682 OFFCURVE",
"208 695 OFFCURVE",
"198 711 OFFCURVE",
"190 725 QCURVE",
"177 714 OFFCURVE",
"139 692 OFFCURVE",
"125 684 QCURVE",
"174 612 LINE",
"140 570 OFFCURVE",
"102 468 OFFCURVE",
"102 420 QCURVE",
"102 405 OFFCURVE",
"107 378 OFFCURVE",
"110 366 QCURVE",
"96 353 OFFCURVE",
"77 336 OFFCURVE",
"70 330 QCURVE",
"62 323 OFFCURVE",
"57 318 QCURVE",
"109 259 LINE",
"118 268 LINE",
"123 273 OFFCURVE",
"142 291 OFFCURVE",
"157 305 QCURVE",
"192 282 OFFCURVE",
"251 282 QCURVE",
"276 282 OFFCURVE",
"329 302 OFFCURVE",
"355 320 QCURVE",
"371 294 OFFCURVE",
"387 268 OFFCURVE",
"392 261 QCURVE",
"396 253 OFFCURVE",
"398 252 QCURVE"
);
},
{
closed = 1;
nodes = (
"238 384 OFFCURVE",
"209 425 OFFCURVE",
"209 455 QCURVE",
"209 479 OFFCURVE",
"226 534 OFFCURVE",
"259 581 OFFCURVE",
"306 611 OFFCURVE",
"337 611 QCURVE",
"364 611 OFFCURVE",
"389 574 OFFCURVE",
"389 547 QCURVE",
"389 522 OFFCURVE",
"370 465 OFFCURVE",
"337 416 OFFCURVE",
"294 384 OFFCURVE",
"269 384 QCURVE"
);
}
);
};
layerId = "A5922FF3-8C0B-4EAE-8A2D-3EBDCCE80B0C";
paths = (
{
closed = 1;
nodes = (
"463 298 LINE",
"459 302 OFFCURVE",
"452 312 QCURVE",
"446 320 OFFCURVE",
"428 347 OFFCURVE",
"414 367 QCURVE",
"446 409 OFFCURVE",
"481 506 OFFCURVE",
"481 555 QCURVE",
"481 588 OFFCURVE",
"472 621 QCURVE",
"519 666 LINE",
"509 676 OFFCURVE",
"477 707 OFFCURVE",
"467 721 QCURVE",
"429 682 LINE",
"397 706 OFFCURVE",
"349 706 QCURVE",
"317 706 OFFCURVE",
"255 681 OFFCURVE",
"229 660 QCURVE",
"223 669 OFFCURVE",
"215 682 OFFCURVE",
"208 695 OFFCURVE",
"198 711 OFFCURVE",
"190 725 QCURVE",
"177 714 OFFCURVE",
"139 692 OFFCURVE",
"125 684 QCURVE",
"174 612 LINE",
"140 570 OFFCURVE",
"102 468 OFFCURVE",
"102 420 QCURVE",
"102 405 OFFCURVE",
"107 378 OFFCURVE",
"110 366 QCURVE",
"96 353 OFFCURVE",
"77 336 OFFCURVE",
"70 330 QCURVE",
"62 323 OFFCURVE",
"57 318 QCURVE",
"109 259 LINE",
"118 268 LINE",
"123 273 OFFCURVE",
"142 291 OFFCURVE",
"157 305 QCURVE",
"192 282 OFFCURVE",
"251 282 QCURVE",
"276 282 OFFCURVE",
"329 302 OFFCURVE",
"355 320 QCURVE",
"371 294 OFFCURVE",
"387 268 OFFCURVE",
"392 261 QCURVE",
"396 253 OFFCURVE",
"398 252 QCURVE"
);
},
{
closed = 1;
nodes = (
"238 384 OFFCURVE",
"209 425 OFFCURVE",
"209 455 QCURVE",
"209 479 OFFCURVE",
"226 534 OFFCURVE",
"259 581 OFFCURVE",
"306 611 OFFCURVE",
"337 611 QCURVE",
"364 611 OFFCURVE",
"389 574 OFFCURVE",
"389 547 QCURVE",
"389 522 OFFCURVE",
"370 465 OFFCURVE",
"337 416 OFFCURVE",
"294 384 OFFCURVE",
"269 384 QCURVE"
);
}
);
width = 439;
}
);
unicode = 00A4;
},
{
glyphname = yen;
lastChange = "2016-07-07 11:28:24 +0000";
layers = (
{
background = {
paths = (
{
closed = 1;
nodes = (
"278 37 LINE",
"280 47 OFFCURVE",
"284 59 QCURVE",
"287 69 OFFCURVE",
"294 96 OFFCURVE",
"299 112 QCURVE",
"314 111 OFFCURVE",
"344 111 OFFCURVE",
"355 111 QCURVE",
"380 111 LINE",
"400 194 LINE",
"319 194 LINE",
"325 223 LINE",
"339 254 LINE",
"411 254 LINE",
"444 342 LINE",
"436 342 OFFCURVE",
"426 341 QCURVE",
"418 340 OFFCURVE",
"394 339 OFFCURVE",
"380 339 QCURVE",
"410 402 OFFCURVE",
"474 532 OFFCURVE",
"500 586 QCURVE",
"531 648 OFFCURVE",
"559 707 QCURVE",
"400 742 LINE",
"379 680 OFFCURVE",
"360 624 QCURVE",
"343 575 OFFCURVE",
"306 473 OFFCURVE",
"292 438 QCURVE",
"292 454 OFFCURVE",
"292 499 OFFCURVE",
"293 550 OFFCURVE",
"293 603 OFFCURVE",
"293 629 QCURVE",
"293 754 LINE",
"126 690 LINE",
"131 635 OFFCURVE",
"135 576 QCURVE",
"139 525 OFFCURVE",
"146 400 OFFCURVE",
"148 337 QCURVE",
"137 337 OFFCURVE",
"117 338 OFFCURVE",
"109 338 QCURVE",
"100 338 OFFCURVE",
"92 339 QCURVE",
"76 254 LINE",
"150 254 LINE",
"150 221 LINE",
"144 195 LINE",
"72 195 LINE",
"48 110 LINE",
"70 110 LINE",
"81 110 OFFCURVE",
"108 111 OFFCURVE",
"125 111 QCURVE",
"103 15 LINE"
);
}
);
};
layerId = "A5922FF3-8C0B-4EAE-8A2D-3EBDCCE80B0C";
paths = (
{
closed = 1;
nodes = (
"278 37 LINE",
"280 47 OFFCURVE",
"284 59 QCURVE",
"287 69 OFFCURVE",
"294 96 OFFCURVE",
"299 112 QCURVE",
"314 111 OFFCURVE",
"344 111 OFFCURVE",
"355 111 QCURVE",
"380 111 LINE",
"400 194 LINE",
"319 194 LINE",
"325 223 LINE",
"339 254 LINE",
"411 254 LINE",
"444 342 LINE",
"436 342 OFFCURVE",
"418 340 OFFCURVE",
"394 339 OFFCURVE",
"380 339 QCURVE",
"410 402 OFFCURVE",
"474 532 OFFCURVE",
"500 586 QCURVE",
"531 648 OFFCURVE",
"559 707 QCURVE",
"400 742 LINE",
"379 680 OFFCURVE",
"360 624 QCURVE",
"343 575 OFFCURVE",
"306 473 OFFCURVE",
"292 438 QCURVE",
"292 454 OFFCURVE",
"292 499 OFFCURVE",
"293 550 OFFCURVE",
"293 603 OFFCURVE",
"293 629 QCURVE",
"293 754 LINE",
"126 690 LINE",
"131 635 OFFCURVE",
"135 576 QCURVE",
"139 525 OFFCURVE",
"146 400 OFFCURVE",
"148 337 QCURVE",
"137 337 OFFCURVE",
"117 338 OFFCURVE",
"109 338 QCURVE",
"100 338 OFFCURVE",
"92 339 QCURVE",
"76 254 LINE",
"150 254 LINE",
"150 221 LINE",
"144 195 LINE",
"72 195 LINE",
"48 110 LINE",
"70 110 LINE",
"81 110 OFFCURVE",
"108 111 OFFCURVE",
"125 111 QCURVE",
"103 15 LINE"
);
}
);
width = 457;
}
);
unicode = 00A5;
},
